<?xml version="1.0" encoding="utf-8"?>
<!-- Generator: Adobe Illustrator 26.0.3, SVG Export Plug-In . SVG Version: 6.00 Build 0)  -->
<svg version="1.1" id="Layer_1" xmlns="http://www.w3.org/2000/svg" xmlns:xlink="http://www.w3.org/1999/xlink" x="0px" y="0px"
	 viewBox="0 0 500 500" style="enable-background:new 0 0 500 500;" xml:space="preserve">
<style type="text/css">
	.st0{fill:#EBEBEB;}
	.st1{fill:#E0E0E0;}
	.st2{fill:#F5F5F5;}
	.st3{fill:#AB2C65;}
	.st4{fill:#310527;}
	.st5{fill:#FAFAFA;}
	.st6{fill:#636363;}
	.st7{opacity:0.6;}
	.st8{fill:#FFFFFF;}
	.st9{opacity:0.3;}
	.st10{fill:#FFBE84;}
	.st11{fill:#EB996E;}
</style>
<g id="freepik--background-complete--inject-80">
	<path class="st0" d="M448.4,372.5c4.4-2.3,9.5-2.6,14.4-1.8c2.6,0.4,5.3,1.2,7.1,3.2s2.1,5.4,0.1,7.1c-1.3,0.9-2.9,1.3-4.5,1.1
		c-3.8,0-8-0.7-11.1,1.6c-1.7,1.3-2.9,3.5-5,4.1c-2.1,0.5-4.3-0.5-5.4-2.4c-1-1.9-1.2-4.1-0.6-6.2
		C443.9,376.4,445.8,373.9,448.4,372.5z"/>
	<path class="st0" d="M438.4,353.2c2.7,3.8,7.9,2.6,10.3,0.2s3.4-5.7,4.4-8.9c2.1-7.4,4.3-15.1,2.7-22.6c-0.4-2.3-1.4-4.4-2.9-6.1
		c-1.5-1.8-3.9-2.5-6.2-2.1c-2.6,0.7-4.3,3.3-5.4,5.7c-3.5,7.2-5.3,15.1-5.3,23.1C435.9,346.2,436.3,350.1,438.4,353.2"/>
	<path class="st0" d="M431,358.6c2.9-3.5,3.5-8.5,2.2-12.8s-4.2-8-7.6-11c-4-3.5-8.6-6.2-13.6-8c-1.9-0.8-4-1.1-6.1-1
		c-2.1,0.1-4,1.3-5.1,3.1c-1.4,2.7-0.1,6,1.4,8.7c2.6,4.8,5.6,9.3,8.9,13.6c2.7,3.5,5.7,6.9,9.8,8.4s8.3,1.4,10.5-1.5"/>
	<path class="st1" d="M438.2,410.8c0.1-0.6,0.2-1.2,0.2-1.7c0.1-1.3,0.3-2.9,0.5-4.7c0.2-2.4,0.6-4.7,1.1-7c0.6-2.8,1.5-5.5,2.5-8.2
		c1-2.7,2.5-5.2,4.2-7.4c1.4-1.8,3.2-3.3,5.3-4.4c1.4-0.7,2.9-1.2,4.5-1.4c0.6,0,1.2-0.1,1.7-0.2c-0.6-0.1-1.2-0.1-1.8,0
		c-1.6,0.1-3.2,0.5-4.7,1.2c-2.2,1-4.1,2.5-5.6,4.4c-1.8,2.3-3.3,4.9-4.3,7.6c-1.1,2.7-1.9,5.5-2.5,8.3c-0.5,2.3-0.8,4.7-0.9,7
		c-0.1,2-0.2,3.6-0.2,4.8C438.1,409.6,438.1,410.2,438.2,410.8z"/>
	<path class="st1" d="M438.5,407.2c0.1-0.3,0.1-0.5,0-0.8c0-0.6,0-1.4,0-2.3c0-2,0-4.9,0.1-8.5c0.2-7.1,0.8-14.9,2-25.7
		c1.1-10.2,2.6-22.1,4.2-29.8c0.3-1.8,0.7-3.3,1-4.7s0.6-2.6,0.8-3.5l0.5-2.2c0.1-0.3,0.1-0.5,0.1-0.8c-0.1,0.2-0.2,0.5-0.3,0.8
		c-0.2,0.6-0.4,1.3-0.7,2.2s-0.6,2.1-1,3.5s-0.7,3-1.1,4.7c-2,9.1-3.4,18.4-4.4,27.6c-1.2,10.9-1.7,20.8-1.8,27.9
		c0,3.6,0,6.5,0.1,8.5l0.1,2.3C438.5,406.7,438.5,406.9,438.5,407.2z"/>
	<path class="st1" d="M438.6,388.1c0.1-0.8,0.1-1.6,0-2.4c-0.1-2.2-0.4-4.4-0.7-6.5c-0.5-3.2-1.2-6.4-2.1-9.5c-1-3.8-2.4-7.6-4-11.2
		c-2.8-6.7-6.7-12.9-11.7-18.2c-0.9-0.9-1.8-1.8-2.8-2.5c-0.4-0.4-0.8-0.7-1.2-1l-1.1-0.7c-0.6-0.5-1.3-0.9-2-1.3
		c-0.1,0.2,2.9,1.9,6.6,5.9c4.8,5.3,8.6,11.5,11.4,18.1c1.6,3.6,2.9,7.3,4,11.1c1,3.5,1.7,6.7,2.3,9.4s0.8,4.9,1,6.5
		C438.4,386.5,438.4,387.3,438.6,388.1z"/>
	<polygon class="st1" points="420.1,421.8 422,448 455.7,448 457.6,421.8 	"/>
	<rect x="416.9" y="411.4" class="st1" width="44.8" height="10.3"/>
	<polygon class="st0" points="416.9,447 416.9,449.8 419,449.8 460.9,449.8 460.9,447 	"/>
	<polygon class="st1" points="421,454.9 419,449.8 459.3,449.8 456.9,454.9 	"/>
	<path class="st2" d="M457,430.3c0,0,0,0.1-0.2,0.2l-0.5,0.7l-2,2.5l-0.1,0.1l-0.1-0.1c-1.2-1.7-2.9-4-4.8-6.7h0.3l-4.7,6.7
		l-0.1,0.2l-0.2-0.2l-5.6-6.7h0.3l-0.3,0.4l-5,6.3l-0.2,0.2l-0.1-0.2c-1.7-2.4-3.3-4.7-4.8-6.7h0.3l-5.9,6.7l-0.1,0.1l-0.1-0.1
		c-0.8-1.3-1.4-2.3-1.8-3.1l-0.5-0.8c-0.1-0.1-0.1-0.2-0.1-0.3c0.1,0.1,0.1,0.2,0.2,0.3l0.5,0.8c0.5,0.7,1.1,1.8,1.9,3h-0.2l5.8-6.7
		l0.1-0.2l0.1,0.2l4.8,6.7h-0.3l5-6.3l0.3-0.4l0.2-0.2l0.2,0.2c2,2.4,3.9,4.6,5.6,6.7h-0.3l4.8-6.7l0.1-0.2l0.1,0.2l4.7,6.7h-0.2
		l2-2.4l0.5-0.6C456.9,430.4,457,430.3,457,430.3z"/>
	<path class="st2" d="M458.1,421.6c0,0.1-8.4,0.2-18.8,0.2s-18.8-0.1-18.8-0.2s8.4-0.2,18.8-0.2S458.1,421.5,458.1,421.6z"/>
	<path class="st2" d="M459.8,450.1c0,0.1-9.2,0.2-20.5,0.2s-20.5-0.1-20.5-0.2s9.2-0.2,20.5-0.2S459.8,450,459.8,450.1z"/>
	<path class="st1" d="M465.9,123.7c0,0-0.4,0-1.1-0.1l-3.2-0.4l-12.2-1.4c-2.6-0.3-5.6-0.6-8.8-0.9l-5-0.5l-5.5-0.4
		c-3.8-0.3-7.8-0.4-12.1-0.6c-4.3,0-8.8-0.1-13.6,0.2c-10.4,0.5-20.7,1.6-30.9,3.2c-1.4,0.2-2.8,0.4-4.2,0.7l-4.2,0.8
		c-2.9,0.5-5.7,1-8.7,1.6c-5.8,1.2-11.9,2.3-18,3.7l-9.3,2l-9.5,2.2c-6.4,1.4-13,3-19.6,4.6c-6.7,1.6-13.4,3.2-20.3,4.9l-10.4,2.5
		l-10.6,2.4c-26.8,5.5-54,8.4-81.4,8.8c-22.3,0.4-44.6-0.6-66.8-2.9c-19-2-34.2-4.5-44.6-6.4c-5.2-1-9.3-1.9-12-2.5l-3.1-0.7
		c-0.7-0.2-1-0.3-1-0.3l1.1,0.2l3.1,0.7c2.7,0.6,6.8,1.4,12,2.4c10.5,1.9,25.7,4.4,44.6,6.3c22.2,2.3,44.5,3.2,66.8,2.8
		c27.3-0.4,54.5-3.3,81.3-8.8l10.5-2.4l10.4-2.5c6.9-1.7,13.6-3.3,20.3-4.9s13.2-3.1,19.6-4.6l9.5-2.2l9.4-2
		c6.1-1.4,12.2-2.5,18-3.7c2.9-0.6,5.8-1,8.7-1.6l4.2-0.8c1.4-0.2,2.8-0.4,4.2-0.6c10.3-1.7,20.6-2.8,31-3.2
		c4.8-0.3,9.3-0.2,13.6-0.2c4.3,0.2,8.3,0.3,12.1,0.6l5.5,0.4l5,0.5c3.2,0.3,6.2,0.7,8.8,1c5.3,0.6,9.4,1.2,12.2,1.5l3.2,0.4
		L465.9,123.7z"/>
	<path class="st1" d="M463.7,131.4c0,0-0.4,0-1.1-0.1l-3.2-0.4l-12.2-1.4c-2.6-0.3-5.6-0.6-8.8-0.9l-5-0.5l-5.5-0.4
		c-3.8-0.3-7.8-0.4-12.1-0.6c-4.3,0-8.8-0.1-13.6,0.2c-10.4,0.5-20.7,1.6-30.9,3.2c-1.4,0.2-2.8,0.4-4.2,0.6l-4.2,0.8
		c-2.9,0.5-5.7,1-8.7,1.6c-5.8,1.2-11.9,2.3-18,3.7l-9.3,2l-9.5,2.2c-6.4,1.4-13,3-19.6,4.6s-13.4,3.2-20.3,4.9l-10.4,2.5l-10.6,2.4
		c-26.8,5.5-54,8.4-81.4,8.8c-22.3,0.3-44.6-0.7-66.8-3c-19-2-34.2-4.5-44.6-6.4c-5.2-1-9.3-1.9-12-2.5l-3.1-0.7
		c-0.7-0.2-1-0.3-1-0.3l1.1,0.2l3.1,0.7c2.7,0.6,6.8,1.4,12,2.4c10.5,1.9,25.7,4.4,44.6,6.3c22.2,2.3,44.5,3.2,66.8,2.9
		c27.3-0.4,54.5-3.3,81.3-8.8l10.5-2.4l10.4-2.5c6.9-1.7,13.6-3.3,20.3-4.9s13.2-3.1,19.6-4.6l9.5-2.1l9.3-2
		c6.1-1.4,12.2-2.5,18-3.7c2.9-0.6,5.8-1.1,8.7-1.6l4.2-0.8c1.4-0.2,2.8-0.4,4.2-0.6c10.3-1.7,20.6-2.8,31-3.2
		c4.8-0.3,9.3-0.2,13.6-0.2c4.3,0.2,8.3,0.3,12.1,0.6l5.5,0.4l5,0.5c3.2,0.3,6.2,0.6,8.8,1c5.3,0.6,9.4,1.2,12.2,1.5l3.2,0.4
		L463.7,131.4z"/>
	<path class="st1" d="M463.7,139.5l-1.1-0.1l-3.2-0.4l-12.2-1.4c-2.6-0.3-5.6-0.6-8.8-0.9l-5-0.5l-5.5-0.4
		c-3.8-0.3-7.8-0.4-12.1-0.6c-4.3,0-8.8-0.1-13.6,0.2c-10.4,0.5-20.7,1.6-30.9,3.3c-1.4,0.2-2.8,0.4-4.2,0.6l-4.2,0.8
		c-2.9,0.5-5.7,1-8.7,1.6c-5.8,1.2-11.9,2.3-18,3.7l-9.3,2l-9.5,2.2c-6.4,1.4-13,3-19.6,4.6s-13.4,3.2-20.3,4.9l-10.4,2.5l-10.6,2.4
		c-26.8,5.5-54,8.4-81.4,8.8c-22.3,0.3-44.6-0.7-66.8-3c-19-2-34.2-4.5-44.6-6.4c-5.2-1-9.3-1.8-12-2.5l-3.1-0.7
		c-0.7-0.2-1-0.3-1-0.3l1.1,0.2l3.1,0.7c2.7,0.6,6.8,1.4,12,2.4c10.5,1.9,25.7,4.4,44.6,6.3c22.2,2.3,44.5,3.2,66.8,2.8
		c27.3-0.4,54.5-3.3,81.3-8.8l10.5-2.4l10.4-2.5c6.9-1.7,13.6-3.3,20.3-4.9s13.2-3.1,19.6-4.6l9.5-2.2l9.3-2
		c6.1-1.4,12.2-2.5,18-3.7c2.9-0.6,5.8-1,8.7-1.6l4.2-0.8c1.4-0.2,2.8-0.4,4.2-0.6c10.3-1.7,20.6-2.7,31-3.2
		c4.8-0.3,9.3-0.2,13.6-0.1c4.3,0.2,8.3,0.3,12.1,0.6l5.5,0.4l5,0.5c3.2,0.3,6.2,0.6,8.8,1c5.3,0.6,9.4,1.1,12.2,1.5l3.2,0.4
		L463.7,139.5z"/>
	<path class="st1" d="M463.7,147.7l-1.1-0.1l-3.2-0.4l-12.2-1.4c-2.6-0.3-5.6-0.6-8.8-0.9l-5-0.5l-5.5-0.4
		c-3.8-0.3-7.8-0.4-12.1-0.6c-4.3,0-8.8-0.1-13.6,0.2c-10.4,0.5-20.7,1.6-30.9,3.3c-1.4,0.2-2.8,0.4-4.2,0.6l-4.2,0.8
		c-2.9,0.5-5.7,1-8.7,1.6c-5.8,1.2-11.9,2.3-18,3.7l-9.3,2l-9.5,2.2c-6.4,1.4-13,3-19.6,4.6s-13.4,3.2-20.3,4.9l-10.4,2.5l-10.5,2.4
		c-26.8,5.5-54,8.4-81.4,8.8c-22.3,0.4-44.6-0.6-66.8-2.9c-19-2-34.2-4.5-44.6-6.4c-5.2-1-9.3-1.9-12-2.5l-3.1-0.7l-1-0.3l1.1,0.2
		l3.1,0.7c2.7,0.6,6.8,1.4,12,2.4c10.5,1.9,25.7,4.4,44.6,6.3c22.2,2.3,44.5,3.2,66.8,2.8c27.3-0.4,54.5-3.3,81.3-8.8l10.5-2.4
		l10.4-2.5c6.9-1.7,13.6-3.3,20.3-4.9s13.2-3.1,19.6-4.6l9.5-2.2l9.3-2c6.1-1.4,12.2-2.5,18-3.7c2.9-0.6,5.8-1,8.7-1.6l4.2-0.8
		c1.4-0.2,2.8-0.4,4.2-0.6c10.3-1.7,20.6-2.8,31-3.2c4.8-0.3,9.3-0.2,13.6-0.1c4.3,0.2,8.3,0.3,12.1,0.6l5.5,0.4l5,0.5
		c3.2,0.3,6.2,0.6,8.8,1c5.3,0.6,9.4,1.1,12.2,1.5l3.2,0.4C463.3,147.6,463.7,147.7,463.7,147.7z"/>
	<path class="st1" d="M470,154.1l-1.1-0.1l-3.2-0.4l-12.2-1.4c-2.6-0.3-5.6-0.6-8.8-0.9l-5-0.5l-5.5-0.4c-3.8-0.3-7.8-0.4-12.1-0.6
		c-4.3,0-8.8-0.1-13.6,0.2c-10.4,0.5-20.7,1.6-30.9,3.3c-1.4,0.2-2.8,0.4-4.2,0.6l-4.2,0.8c-2.8,0.5-5.7,1-8.7,1.6
		c-5.8,1.2-11.9,2.3-18,3.7l-9.3,2l-9.5,2.2c-6.4,1.4-13,3-19.6,4.6s-13.4,3.2-20.3,4.9l-10.5,2.5l-10.6,2.4
		c-26.8,5.5-54,8.4-81.4,8.8c-22.3,0.4-44.6-0.6-66.8-2.9c-18.9-2-34.2-4.5-44.6-6.4c-5.2-1-9.3-1.9-12-2.5l-3.1-0.7l-1-0.3l1.1,0.2
		l3.1,0.7c2.7,0.6,6.8,1.4,12,2.4c10.5,1.9,25.7,4.4,44.6,6.3c22.2,2.3,44.5,3.2,66.8,2.8c27.3-0.4,54.5-3.3,81.3-8.8l10.5-2.4
		l10.4-2.5c6.9-1.7,13.7-3.3,20.3-4.9c6.7-1.6,13.2-3.1,19.6-4.6l9.5-2.1l9.4-2c6.1-1.4,12.2-2.5,18-3.7c2.9-0.6,5.8-1,8.7-1.6
		l4.2-0.8c1.4-0.2,2.8-0.4,4.2-0.6c10.3-1.7,20.6-2.7,31-3.2c4.8-0.3,9.3-0.2,13.6-0.1c4.3,0.2,8.3,0.3,12.1,0.6l5.5,0.4l5,0.5
		c3.2,0.3,6.2,0.7,8.8,1c5.3,0.6,9.4,1.1,12.2,1.5l3.2,0.4C469.6,154,470,154.1,470,154.1z"/>
	<path class="st1" d="M66.1,163.8c-0.1,0.1-0.2,0.2-0.4,0.3c-0.4,0.2-0.8,0.4-1.2,0.5c-1.8,0.3-3.6-0.4-4.6-1.8
		c-0.7-1.1-1-2.4-0.6-3.6c0.4-1.5,1.4-2.8,2.8-3.5c1.6-0.7,3.4-0.7,5,0.1c0.9,0.4,1.6,1,2.2,1.8c0.6,0.8,1,1.8,1.2,2.8
		c0.3,2.1-0.2,4.3-1.6,6c-1.5,1.8-3.7,2.9-6,3.2c-2.5,0.3-5-0.3-7.1-1.7c-2.2-1.5-3.8-3.8-4.3-6.4c-0.3-1.3-0.3-2.7-0.1-4.1
		c0.3-1.4,0.8-2.7,1.5-3.9c1.6-2.4,3.7-4.4,6.1-5.9c4.8-3.2,9.9-6.3,15.1-9.5c1.3-0.7,2.5-1.7,3.4-2.8c0.9-1.1,1.3-2.6,0.9-4
		c-0.5-1.3-1.7-2.3-3.1-2.3c-0.7-0.1-1.4,0-2,0.3c-0.6,0.3-1.2,0.6-1.8,1.1c-1.1,1-1.9,2.1-2.5,3.4c-0.6,1.3-1.1,2.6-1.4,3.9
		c-0.7,2.6-1,5.3-1.2,8c-0.4,10.6-0.8,20.1-1.2,28.1c0,1.9-0.3,3.8-0.8,5.7c-0.5,1.7-1.6,3.1-3,4.1c-1.2,0.9-2.8,1.2-4.3,0.9
		c-1.3-0.3-2.3-1.1-3-2.3c-0.5-0.9-0.7-1.9-0.5-2.9c0.1-0.7,0.4-1.4,0.8-2c0.3-0.4,0.6-0.7,0.9-1c0.1-0.1,0.2-0.2,0.4-0.2
		c-0.5,0.4-0.9,0.8-1.2,1.3c-0.4,0.6-0.7,1.3-0.7,2c-0.1,1,0.1,2,0.6,2.8c0.6,1.1,1.6,1.8,2.8,2.1c1.4,0.3,2.9,0,4.1-0.9
		c1.4-1,2.4-2.4,2.8-4c0.5-1.8,0.8-3.7,0.8-5.6c0.3-8,0.6-17.5,1-28.1c0.1-2.7,0.5-5.4,1.2-8.1c0.4-1.4,0.8-2.7,1.4-4
		c0.6-1.3,1.4-2.5,2.5-3.6c0.6-0.5,1.3-0.9,2-1.2c0.7-0.3,1.5-0.4,2.3-0.3c0.8,0.1,1.5,0.3,2.2,0.8c0.7,0.5,1.2,1.1,1.4,1.9
		c0.4,1.6,0,3.2-1,4.4c-1,1.2-2.2,2.2-3.6,2.9c-5.2,3.3-10.3,6.4-15,9.6c-2.4,1.5-4.4,3.4-6,5.8c-0.7,1.1-1.2,2.4-1.5,3.7
		c-0.2,1.3-0.2,2.6,0.1,3.9c0.5,2.5,2,4.7,4.1,6.1c2,1.3,4.4,1.9,6.8,1.7c2.2-0.2,4.3-1.3,5.7-3c1.3-1.6,1.9-3.7,1.6-5.8
		c-0.1-0.9-0.5-1.8-1.1-2.6c-0.5-0.7-1.2-1.3-2.1-1.7c-1.5-0.8-3.2-0.9-4.8-0.2c-1.3,0.7-2.2,1.9-2.6,3.3c-0.3,1.2-0.1,2.4,0.5,3.5
		c0.6,0.8,1.4,1.4,2.3,1.7c0.7,0.2,1.4,0.3,2.1,0.2C65.1,164.4,65.6,164.2,66.1,163.8z"/>
	<path class="st1" d="M55.1,183c-1-0.9-0.7-1.7-0.2-2.1c0.5-0.3,1-0.6,1.6-0.7c1.4-0.7,2.1-2.3,1.7-3.8c-0.5-1.5-2.2-2.3-3.7-1.8
		c-1.1,0.5-2,1.4-2.3,2.6c-0.4,1.3-0.2,2.8,0.5,4c0.8,1.2,1.4,1.4,3.1,2.6"/>
	<path class="st1" d="M52,162.2c-0.5-3.5,1.3-6,4-8.3s6-3.8,9.1-5.4c3.2-1.6,6.2-3.7,8.8-6.1c2.6-2.5,4.3-5.7,5-9.3
		c-0.8,1.9-2.2,3.6-4,4.7c-1.8,1.1-3.6,2.1-5.5,3c-3.4,1.9-6.7,4-9.9,6.3c-2.3,1.5-4.3,3.4-6.1,5.5c-3,3.9-2.5,6.8-1.6,10
		c0.2-0.2,0.2,0.9,0.4,0.7"/>
	<path class="st1" d="M90.5,182.3c-1.4-0.9-3.1-1.3-4.8-1c-1.7,0.3-3.3,1.1-4.5,2.4c-0.8,0.7-1.2,1.8-1,2.9c0.4,1.1,1.4,1.9,2.5,2.1
		c1.7,0.5,3.6,0.4,5.3-0.1c1.3-0.4,2.5-1.3,3.2-2.5C91.9,184.8,91.6,183.3,90.5,182.3"/>
	<path class="st1" d="M96.3,154.4c0,0.4,0,0.8,0,1.2c0,0.8-0.1,1.9-0.3,3.3c-0.3,2.8-0.7,6.7-1.5,10.9s-1.6,8.1-2.3,10.8
		c-0.3,1.4-0.7,2.5-0.9,3.2c-0.1,0.4-0.2,0.8-0.4,1.2c0-0.4,0.1-0.8,0.2-1.2l0.7-3.3c0.6-2.8,1.4-6.6,2.1-10.8s1.3-8.1,1.6-10.9
		c0.2-1.3,0.3-2.4,0.4-3.3C96.1,155.2,96.2,154.8,96.3,154.4z"/>
	<path class="st1" d="M95.5,162.1c2.4,1,4.6,2.7,6.2,4.8c1.6,2.2,2.2,4.9,1.5,7.5c-0.7,2.6-2.9,4.6-5.6,4.9c2.1-1,4.4-1.5,6.5-2.6
		s3.9-3.1,4-5.4c0.1-2-0.9-4.1-1.7-5.9c-2-4.1-5.7-7.1-9.9-9.2"/>
	<path class="st1" d="M284.5,156.5c-1.4-0.9-3.1-1.3-4.8-1c-1.7,0.3-3.3,1.1-4.5,2.4c-0.8,0.7-1.2,1.8-1,2.9
		c0.4,1.1,1.4,1.9,2.5,2.1c1.7,0.5,3.6,0.4,5.3-0.1c1.3-0.4,2.5-1.3,3.2-2.5C285.8,159,285.5,157.5,284.5,156.5"/>
	<path class="st1" d="M290.2,128.6c0,0.4,0,0.8,0,1.2c0,0.8-0.1,1.9-0.3,3.3c-0.3,2.8-0.7,6.7-1.5,10.9s-1.6,8.1-2.3,10.8
		c-0.4,1.4-0.6,2.5-0.9,3.2c-0.1,0.4-0.2,0.8-0.4,1.2c0-0.4,0.1-0.8,0.2-1.2c0.2-0.9,0.4-2,0.7-3.3c0.6-2.8,1.4-6.6,2.1-10.8
		s1.3-8.1,1.6-10.9c0.2-1.3,0.3-2.4,0.4-3.3C290,129.4,290.1,129,290.2,128.6z"/>
	<path class="st1" d="M289.4,136.3c2.4,1,4.6,2.7,6.2,4.8c1.6,2.2,2.2,4.9,1.5,7.5c-0.7,2.6-2.9,4.6-5.6,4.9c2.1-1,4.5-1.5,6.5-2.6
		s3.9-3.1,4-5.4c0.1-2-0.9-4.1-1.7-5.9c-2-4.1-5.7-7.1-9.9-9.2"/>
	<path class="st1" d="M121.3,173.3c-3.3-1.1-6.9,0.1-9,2.8c-0.6,0.6-0.8,1.5-0.6,2.4c0.4,0.7,1.1,1.2,1.9,1.3
		c1.4,0.4,2.9,0.5,4.4,0.1c1.5-0.3,2.7-1.2,3.4-2.6c0.7-1.3,0.6-3-0.4-4.1"/>
	<path class="st1" d="M141.8,170.5c-3.3-1.1-6.9,0.1-9,2.8c-0.6,0.6-0.8,1.5-0.6,2.4c0.4,0.7,1.2,1.2,2,1.3c1.4,0.4,2.9,0.5,4.4,0.1
		c1.5-0.3,2.7-1.2,3.4-2.5c0.7-1.3,0.6-3-0.4-4.1"/>
	<path class="st1" d="M121.4,175.3c-0.2,0-0.3-5.5-0.3-12.3s0.1-12.4,0.3-12.4s0.3,5.5,0.3,12.4S121.6,175.3,121.4,175.3z"/>
	<path class="st1" d="M142.2,172.1c-0.1,0-0.3-5.5-0.3-12.3s0.1-12.3,0.3-12.3s0.3,5.5,0.3,12.3S142.3,172.1,142.2,172.1z"/>
	<polygon class="st1" points="121.4,150.9 142.2,146.9 142.2,151.3 121.4,155.5 	"/>
	<path class="st1" d="M215.2,173.9c-2.6-2.3-6.3-2.8-9.3-1.2c-0.8,0.3-1.4,1.1-1.5,1.9c0.1,0.8,0.5,1.6,1.2,2c1.1,1,2.5,1.6,3.9,1.9
		c1.5,0.3,3,0,4.2-0.9c1.2-0.9,1.8-2.5,1.4-3.9"/>
	<path class="st1" d="M235,179.8c-2.6-2.3-6.3-2.8-9.3-1.2c-0.8,0.3-1.4,1.1-1.5,1.9c0.1,0.8,0.5,1.6,1.2,2c1.1,1,2.5,1.6,3.9,1.9
		c1.5,0.3,3,0,4.2-0.9c1.2-0.9,1.7-2.5,1.4-3.9"/>
	<path class="st1" d="M214.4,175.8c-0.1-0.1,2.1-5.1,4.9-11.3s5.2-11.2,5.4-11.1s-2.1,5.1-4.9,11.3S214.6,175.8,214.4,175.8z"/>
	<path class="st1" d="M234.7,181.4c-0.1-0.1,2.1-5.1,4.9-11.3s5.2-11.2,5.4-11.1s-2.1,5.1-4.9,11.3S234.8,181.4,234.7,181.4z"/>
	<polygon class="st1" points="224.6,153.6 245.1,158.5 243.3,162.5 222.7,157.7 	"/>
	<path class="st1" d="M157.6,186.2c-3-1.7-6.7-1.4-9.4,0.9c-0.7,0.5-1.1,1.3-1.1,2.2c0.3,0.8,0.9,1.4,1.6,1.7c1.3,0.7,2.8,1,4.2,1
		c1.5,0,2.9-0.6,3.9-1.8c1-1.1,1.2-2.8,0.5-4.1"/>
	<path class="st1" d="M164,160.2c0.1,0-1.2,6.4-2.9,14.3s-3.3,14.2-3.4,14.2s1.2-6.4,2.9-14.3S163.8,160.1,164,160.2z"/>
	<path class="st1" d="M261.8,166.9c-3.4-0.5-6.8,1.2-8.4,4.3c-0.5,0.7-0.5,1.6-0.2,2.4c0.5,0.6,1.3,1,2.1,0.9c1.5,0.2,3,0,4.3-0.6
		c1.4-0.6,2.5-1.7,3-3.1c0.5-1.4,0.1-3-1.1-4"/>
	<path class="st1" d="M258,140.4c0.1,0,1.3,6.4,2.6,14.4s2.3,14.4,2.1,14.4s-1.3-6.4-2.7-14.4S257.8,140.4,258,140.4z"/>
	<path class="st1" d="M383.1,149.9c-3.4,0.4-6.2,2.9-7,6.3c-0.3,0.8-0.1,1.7,0.5,2.4c0.7,0.5,1.5,0.6,2.3,0.4c1.5-0.2,2.8-0.8,4-1.7
		c1.2-0.9,1.9-2.3,2.1-3.7c0.1-1.5-0.7-2.9-2.1-3.6"/>
	<path class="st1" d="M400.6,138.8c-3.4,0.4-6.2,2.9-7,6.3c-0.3,0.8-0.1,1.7,0.5,2.4c0.7,0.5,1.5,0.6,2.3,0.4c1.4-0.2,2.8-0.8,4-1.7
		c1.2-0.9,1.9-2.3,2.1-3.8c0.1-1.5-0.7-2.9-2-3.6"/>
	<path class="st1" d="M384.1,151.7c-0.1,0.1-2.5-4.9-5.4-11.1s-5-11.2-4.9-11.3s2.5,4.9,5.4,11.1S384.2,151.6,384.1,151.7z"/>
	<path class="st1" d="M401.5,140.1c-0.1,0.1-2.5-4.9-5.4-11.1s-5-11.2-4.9-11.3s2.5,4.9,5.4,11.1S401.7,140,401.5,140.1z"/>
	<polygon class="st1" points="373.9,129.6 391,117.3 392.9,121.3 375.8,133.7 	"/>
	<polygon class="st1" points="377,136.4 394.1,124.1 396,128.1 378.9,140.6 	"/>
	<path class="st1" d="M422.3,138.2c-3.4-0.5-6.7,1.2-8.4,4.3c-0.5,0.7-0.5,1.6-0.2,2.4c0.5,0.6,1.3,1,2.1,0.9c1.5,0.2,3,0,4.3-0.6
		c1.4-0.6,2.5-1.7,3-3.1c0.5-1.4,0.1-3-1-4"/>
	<path class="st1" d="M418.5,111.7c0.1,0,1.3,6.4,2.7,14.3s2.3,14.4,2.1,14.4s-1.3-6.4-2.6-14.3S418.4,111.8,418.5,111.7z"/>
	<path class="st1" d="M361.6,136.5c-3.4-0.5-6.7,1.2-8.4,4.3c-0.5,0.7-0.5,1.6-0.2,2.4c0.5,0.6,1.3,1,2.1,0.9c1.5,0.2,3-0.1,4.3-0.6
		c1.4-0.6,2.5-1.7,3-3.1c0.5-1.4,0.1-3-1.1-4"/>
	<path class="st1" d="M357.8,110c0.1,0,1.3,6.4,2.6,14.3s2.3,14.4,2.1,14.4s-1.3-6.4-2.6-14.3S357.7,110,357.8,110z"/>
	<path class="st1" d="M179.8,196.3c-0.1-0.4-0.1-0.9-0.1-1.3v-3.6c0-3,0-7.1,0-11.7s-0.2-8.7-0.2-11.7c0-1.4-0.1-2.6-0.1-3.6
		c0-0.4,0-0.9,0-1.3c0.1,0.4,0.2,0.9,0.2,1.3c0.1,0.8,0.2,2,0.2,3.5c0.2,3,0.3,7.1,0.4,11.7s0,8.7-0.1,11.7c0,1.5-0.1,2.7-0.2,3.6
		C179.9,195.4,179.8,195.8,179.8,196.3z"/>
	<path class="st1" d="M185.1,194.5c0-0.4,0-0.8,0-1.3c0-0.9,0.1-2.1,0.1-3.4c0.1-2.9,0.1-6.9,0-11.3s-0.2-8.4-0.4-11.3
		c-0.1-1.4-0.1-2.5-0.2-3.4c0-0.4,0-0.8,0-1.3c0.1,0.4,0.2,0.8,0.2,1.2c0.1,0.8,0.2,2,0.4,3.4c0.3,2.9,0.5,6.9,0.6,11.4
		s0,8.5-0.2,11.4c-0.1,1.5-0.2,2.6-0.2,3.4C185.3,193.6,185.2,194.1,185.1,194.5z"/>
	<path class="st1" d="M188.4,183.1c-1.8,0.8-3.6,1.4-5.5,1.8c-1.8,0.6-3.7,1-5.7,1.3c1.8-0.8,3.6-1.4,5.5-1.8
		C184.6,183.8,186.5,183.4,188.4,183.1z"/>
	<path class="st1" d="M189.9,169.3c-0.7,0.4-1.5,0.8-2.3,1c-1.9,0.7-3.8,1.2-5.8,1.7c-1.9,0.5-3.9,0.8-5.9,1.1
		c-0.8,0.1-1.7,0.2-2.5,0.2c0.8-0.3,1.6-0.4,2.4-0.5c1.5-0.3,3.6-0.7,5.9-1.2s4.3-1.1,5.8-1.5C188.3,169.6,189.1,169.4,189.9,169.3z
		"/>
	<path class="st1" d="M328.2,173.3c-0.2-0.4-0.4-0.8-0.5-1.2c-0.3-0.9-0.7-2-1.2-3.3c-1-2.8-2.4-6.7-4-11s-3.1-8.1-4.2-10.9
		c-0.5-1.3-1-2.4-1.3-3.3c-0.2-0.4-0.3-0.8-0.4-1.2c0.2,0.4,0.5,0.8,0.6,1.2c0.4,0.8,0.9,1.9,1.4,3.2c1.2,2.8,2.8,6.6,4.4,10.9
		s3,8.2,3.9,11.1c0.5,1.4,0.8,2.6,1.1,3.4C328.1,172.5,328.2,172.9,328.2,173.3z"/>
	<path class="st1" d="M332.6,169.8c-0.2-0.4-0.3-0.8-0.5-1.2c-0.3-0.9-0.7-2-1.1-3.3c-0.9-2.8-2.2-6.5-3.8-10.7s-3.1-7.8-4.3-10.5
		l-1.4-3.2c-0.2-0.4-0.3-0.8-0.5-1.2c0.3,0.3,0.5,0.7,0.6,1.1c0.4,0.7,0.9,1.8,1.5,3.1c1.2,2.6,2.8,6.3,4.4,10.5s2.9,8,3.7,10.8
		c0.4,1.4,0.7,2.5,1,3.3C332.5,169,332.6,169.4,332.6,169.8z"/>
	<path class="st1" d="M331.9,158c-1.4,1.3-3,2.5-4.6,3.6c-1.5,1.2-3.2,2.3-4.9,3.2c1.4-1.3,2.9-2.5,4.6-3.6
		C328.5,160,330.2,158.9,331.9,158z"/>
	<path class="st1" d="M328.5,144.5c-0.5,0.6-1.2,1.2-1.8,1.7c-3.1,2.5-6.5,4.7-10,6.6c-0.7,0.4-1.5,0.8-2.3,1
		c0.7-0.5,1.4-0.9,2.1-1.3c1.3-0.8,3.1-1.9,5.1-3.1s3.7-2.5,4.9-3.4C327.1,145.4,327.8,144.9,328.5,144.5z"/>
	<path class="st1" d="M463.6,190.5l-1.1-0.1l-3.2-0.4l-12.2-1.4c-2.6-0.3-5.6-0.6-8.8-0.9l-5-0.5l-5.5-0.4
		c-3.8-0.3-7.8-0.4-12.1-0.6c-4.3,0-8.8-0.1-13.6,0.2c-10.4,0.5-20.7,1.6-30.9,3.3c-1.4,0.2-2.8,0.4-4.2,0.6l-4.2,0.8
		c-2.8,0.5-5.7,1-8.7,1.6c-5.8,1.2-11.9,2.3-18,3.7l-9.3,2l-9.5,2.2c-6.4,1.4-13,3-19.6,4.6s-13.4,3.2-20.3,4.9l-10.4,2.5l-10.6,2.4
		c-26.8,5.5-54.1,8.4-81.4,8.8c-22.3,0.3-44.6-0.7-66.8-3c-19-2-34.2-4.5-44.6-6.4c-5.2-1-9.3-1.9-12-2.5l-3.1-0.6l-1-0.3l1.1,0.2
		l3.1,0.7c2.7,0.6,6.8,1.4,12,2.4c10.5,1.9,25.7,4.4,44.6,6.3c22.2,2.3,44.5,3.2,66.8,2.8c27.3-0.4,54.5-3.3,81.3-8.8l10.5-2.4
		l10.4-2.5c6.9-1.7,13.7-3.3,20.3-4.9c6.7-1.6,13.2-3.1,19.6-4.5l9.5-2.1l9.3-2c6.1-1.4,12.2-2.5,18-3.7c2.9-0.6,5.8-1,8.7-1.6
		l4.2-0.8c1.4-0.2,2.8-0.4,4.2-0.6c10.3-1.7,20.6-2.7,31-3.2c4.8-0.3,9.3-0.2,13.6-0.1c4.3,0.2,8.3,0.3,12.1,0.6l5.5,0.4l5,0.5
		c3.2,0.3,6.2,0.7,8.8,1c5.3,0.6,9.4,1.1,12.2,1.5l3.2,0.4C463.2,190.4,463.6,190.5,463.6,190.5z"/>
	<path class="st1" d="M461.4,198.2l-1.1-0.1l-3.2-0.4l-12.1-1.4c-2.6-0.3-5.6-0.6-8.8-0.9l-5-0.5l-5.5-0.4
		c-3.8-0.3-7.8-0.4-12.1-0.6c-4.3,0-8.8-0.1-13.6,0.2c-10.4,0.5-20.7,1.6-30.9,3.3c-1.4,0.2-2.8,0.4-4.2,0.6l-4.2,0.8
		c-2.8,0.5-5.7,1-8.7,1.6c-5.8,1.2-11.9,2.3-18,3.7l-9.3,2l-9.5,2.2c-6.4,1.4-13,3-19.6,4.6s-13.4,3.2-20.3,4.9l-10.4,2.5l-10.6,2.4
		c-26.8,5.5-54,8.4-81.4,8.8c-22.3,0.4-44.7-0.6-66.9-2.9c-19-2-34.2-4.5-44.6-6.4c-5.2-1-9.3-1.9-12-2.5l-3.1-0.7
		c-0.7-0.2-1-0.3-1-0.3l1.1,0.2l3.1,0.7c2.7,0.6,6.8,1.4,12,2.4c10.4,1.9,25.7,4.4,44.6,6.3c22.2,2.3,44.5,3.2,66.8,2.8
		c27.3-0.4,54.5-3.4,81.3-8.8l10.5-2.4l10.4-2.5c6.9-1.7,13.6-3.3,20.3-4.9s13.2-3.1,19.7-4.6l9.5-2.1l9.4-2
		c6.1-1.4,12.2-2.5,18-3.7c2.9-0.6,5.8-1,8.7-1.6l4.2-0.8c1.4-0.2,2.8-0.4,4.2-0.6c10.3-1.7,20.6-2.7,31-3.2
		c4.8-0.3,9.3-0.2,13.6-0.1c4.3,0.2,8.3,0.3,12.1,0.6l5.5,0.4l5,0.5c3.2,0.3,6.2,0.6,8.8,1c5.3,0.6,9.4,1.1,12.2,1.5l3.2,0.4
		C461,198.1,461.4,198.2,461.4,198.2z"/>
	<path class="st1" d="M461.4,206.3c0,0-0.4,0-1.1-0.1l-3.2-0.4l-12.1-1.4c-2.6-0.3-5.6-0.6-8.8-0.9l-5-0.5l-5.5-0.4
		c-3.8-0.3-7.8-0.4-12.1-0.6c-4.3,0-8.8-0.1-13.6,0.2c-10.4,0.5-20.7,1.6-30.9,3.2c-1.4,0.2-2.8,0.4-4.2,0.6l-4.2,0.8
		c-2.8,0.5-5.7,1-8.7,1.6c-5.8,1.2-11.9,2.3-18,3.7l-9.3,2l-9.5,2.2c-6.4,1.5-13,3-19.6,4.6c-6.7,1.6-13.4,3.2-20.3,4.9l-10.4,2.5
		l-10.6,2.4c-26.8,5.5-54,8.4-81.4,8.8c-22.3,0.4-44.7-0.6-66.9-2.9c-19-2-34.2-4.5-44.6-6.4c-5.2-1-9.3-1.9-12-2.5l-3.1-0.7
		c-0.7-0.2-1-0.3-1-0.3l1.1,0.2l3.1,0.7c2.7,0.6,6.8,1.4,12,2.4c10.5,1.9,25.7,4.4,44.6,6.3c22.2,2.3,44.5,3.2,66.8,2.8
		c27.3-0.4,54.5-3.3,81.3-8.8l10.5-2.4l10.4-2.5c6.9-1.7,13.6-3.3,20.3-4.9s13.2-3.1,19.6-4.6l9.5-2.1l9.4-2
		c6.1-1.4,12.2-2.5,18-3.7c2.9-0.6,5.8-1.1,8.7-1.6l4.2-0.8c1.4-0.2,2.8-0.4,4.2-0.6c10.3-1.7,20.6-2.8,31-3.2
		c4.8-0.3,9.3-0.2,13.6-0.1c4.3,0.2,8.3,0.3,12.1,0.6l5.5,0.4l5,0.5c3.2,0.3,6.2,0.6,8.8,1c5.3,0.6,9.4,1.2,12.2,1.5l3.2,0.4
		L461.4,206.3z"/>
	<path class="st1" d="M461.4,214.4l-1.1-0.1l-3.2-0.4l-12.1-1.4c-2.6-0.3-5.6-0.6-8.8-0.9l-5-0.5l-5.5-0.4
		c-3.8-0.3-7.8-0.4-12.1-0.6c-4.3,0-8.8-0.1-13.6,0.2c-10.4,0.5-20.7,1.6-30.9,3.3c-1.4,0.2-2.8,0.4-4.2,0.6l-4.2,0.8
		c-2.8,0.5-5.7,1-8.7,1.6c-5.8,1.2-11.9,2.3-18,3.7l-9.3,2l-9.5,2.2c-6.4,1.4-13,3-19.6,4.6s-13.4,3.2-20.3,4.9l-10.4,2.5l-10.6,2.4
		c-26.8,5.5-54,8.4-81.4,8.8c-22.3,0.4-44.7-0.6-66.9-2.9c-19-2-34.2-4.5-44.6-6.4c-5.2-1-9.3-1.8-12-2.5l-3.1-0.7l-1-0.3l1.1,0.2
		l3.1,0.7c2.7,0.6,6.8,1.4,12,2.4c10.5,1.9,25.7,4.4,44.6,6.3c22.2,2.3,44.5,3.2,66.7,2.8c27.3-0.4,54.5-3.3,81.3-8.8l10.5-2.4
		l10.4-2.5c6.9-1.7,13.6-3.3,20.3-4.9c6.7-1.6,13.2-3.1,19.6-4.6l9.5-2.2l9.4-2c6.1-1.4,12.2-2.5,18-3.7c2.9-0.6,5.8-1,8.7-1.6
		l4.2-0.8c1.4-0.2,2.8-0.4,4.2-0.6c10.3-1.7,20.6-2.7,31-3.2c4.8-0.3,9.3-0.1,13.6-0.1c4.3,0.2,8.3,0.3,12.1,0.6l5.5,0.4l5,0.5
		c3.2,0.3,6.2,0.6,8.8,1c5.3,0.6,9.4,1.1,12.2,1.5l3.2,0.4L461.4,214.4z"/>
	<path class="st1" d="M467.7,220.9l-1.1-0.1l-3.2-0.4l-12.2-1.4c-2.6-0.3-5.6-0.6-8.8-0.9l-5-0.5l-5.5-0.4
		c-3.8-0.3-7.8-0.4-12.1-0.6c-4.3,0-8.8-0.1-13.6,0.2c-10.4,0.5-20.7,1.5-31,3.2c-1.4,0.2-2.8,0.4-4.2,0.6l-4.2,0.8
		c-2.8,0.5-5.7,1-8.7,1.6c-5.8,1.2-11.9,2.3-18,3.7l-9.3,2l-9.5,2.2c-6.4,1.4-13,3-19.6,4.6s-13.4,3.2-20.3,4.9l-10.4,2.5l-10.6,2.4
		c-26.8,5.5-54,8.4-81.3,8.8c-22.3,0.3-44.6-0.7-66.8-3c-18.9-2-34.2-4.5-44.6-6.4c-5.2-1-9.3-1.8-12-2.5l-3.1-0.7l-1.1-0.3l1.1,0.2
		l3.1,0.7c2.7,0.6,6.8,1.4,12,2.4c10.5,1.9,25.7,4.4,44.6,6.3c22.2,2.3,44.5,3.2,66.8,2.8c27.3-0.4,54.5-3.3,81.3-8.8
		c3.5-0.8,7-1.6,10.5-2.4l10.4-2.5c6.9-1.7,13.6-3.3,20.3-4.9s13.2-3.1,19.6-4.6l9.5-2.2l9.3-2c6.1-1.4,12.2-2.5,18-3.7
		c2.9-0.6,5.8-1,8.7-1.6l4.2-0.8c1.4-0.2,2.8-0.4,4.2-0.6c10.3-1.7,20.6-2.7,31-3.2c4.8-0.3,9.3-0.1,13.6-0.1
		c4.3,0.2,8.3,0.3,12.1,0.6l5.5,0.4l5,0.5c3.2,0.3,6.2,0.6,8.8,1c5.3,0.6,9.4,1.1,12.2,1.5l3.2,0.4L467.7,220.9z"/>
	<path class="st1" d="M63.8,230.6c-0.1,0.1-0.2,0.2-0.4,0.3c-0.4,0.2-0.8,0.4-1.2,0.5c-0.7,0.1-1.5,0.1-2.2-0.1
		c-1-0.3-1.8-0.9-2.5-1.7c-0.7-1.1-0.9-2.4-0.6-3.7c0.4-1.5,1.4-2.8,2.7-3.5c1.6-0.7,3.4-0.7,5,0.1c0.9,0.4,1.6,1,2.2,1.8
		c0.6,0.8,1,1.8,1.2,2.8c0.3,2.1-0.2,4.3-1.6,6c-1.5,1.8-3.7,2.9-6,3.2c-2.5,0.3-5-0.3-7.1-1.7c-2.2-1.5-3.8-3.8-4.3-6.4
		c-0.3-1.3-0.3-2.7-0.1-4.1c0.3-1.4,0.8-2.7,1.5-3.9c1.6-2.4,3.7-4.4,6.1-5.9c4.8-3.2,9.9-6.3,15.1-9.5c1.3-0.7,2.5-1.6,3.4-2.8
		c0.9-1.1,1.3-2.6,0.9-4c-0.5-1.3-1.7-2.2-3.1-2.3c-0.7-0.1-1.4,0-2,0.3c-0.6,0.3-1.2,0.6-1.8,1.1c-1,1-1.8,2.1-2.4,3.4
		c-0.6,1.3-1.1,2.6-1.4,3.9c-0.7,2.6-1,5.3-1.2,8c-0.4,10.6-0.8,20.1-1.2,28.1c0,1.9-0.3,3.8-0.9,5.7c-0.5,1.7-1.6,3.1-3,4.1
		c-1.2,0.9-2.8,1.2-4.3,0.9c-1.2-0.3-2.3-1.1-2.9-2.3c-0.5-0.9-0.7-1.9-0.6-2.9c0.1-0.7,0.4-1.4,0.8-2c0.3-0.4,0.6-0.7,0.9-1
		c0.1-0.1,0.2-0.2,0.4-0.2c-0.5,0.4-0.9,0.8-1.2,1.3c-0.4,0.6-0.6,1.3-0.7,2c-0.1,1,0.1,2,0.6,2.8c0.6,1.1,1.7,1.8,2.8,2.1
		c1.4,0.3,2.9,0,4.1-0.9c1.4-1,2.4-2.4,2.8-4c0.5-1.8,0.8-3.7,0.8-5.6c0.3-8,0.6-17.5,1-28.1c0.1-2.7,0.5-5.4,1.2-8.1
		c0.4-1.4,0.8-2.7,1.4-4c0.6-1.3,1.5-2.5,2.5-3.6c0.6-0.5,1.2-0.9,1.9-1.2c0.7-0.3,1.5-0.4,2.3-0.3c0.8,0.1,1.5,0.3,2.2,0.8
		c0.7,0.5,1.2,1.1,1.4,1.9c0.4,1.6,0,3.2-1,4.4c-1,1.2-2.2,2.2-3.6,2.9c-5.2,3.3-10.2,6.4-15,9.5c-2.4,1.5-4.4,3.5-6,5.8
		c-0.7,1.1-1.2,2.4-1.5,3.7c-0.2,1.3-0.2,2.6,0.1,3.9c0.5,2.5,2,4.7,4.1,6.1c2,1.3,4.4,1.9,6.8,1.7c2.2-0.2,4.3-1.3,5.7-3
		c1.3-1.6,1.9-3.7,1.6-5.7c-0.2-0.9-0.5-1.8-1.1-2.6c-0.5-0.7-1.3-1.3-2.1-1.7c-1.5-0.8-3.2-0.9-4.8-0.2c-1.3,0.7-2.3,1.9-2.7,3.3
		c-0.3,1.2-0.1,2.4,0.5,3.5c1,1.4,2.7,2.1,4.4,1.8C62.8,231.2,63.3,230.9,63.8,230.6z"/>
	<path class="st1" d="M52.8,249.8c-1-0.9-0.7-1.7-0.2-2.1c0.5-0.3,1-0.6,1.6-0.7c1.4-0.7,2.2-2.3,1.7-3.8c-0.5-1.5-2.2-2.3-3.7-1.8
		c-1.1,0.5-2,1.4-2.3,2.6c-0.4,1.4-0.2,2.8,0.5,4c0.8,1.2,1.4,1.3,3.1,2.6"/>
	<path class="st1" d="M49.7,229c-0.5-3.5,1.3-6,4-8.3s6-3.8,9.1-5.4c3.2-1.6,6.2-3.6,8.8-6.1c2.6-2.5,4.3-5.8,5-9.3
		c-0.8,1.9-2.2,3.6-4,4.7c-1.8,1.1-3.6,2.1-5.5,3c-3.4,1.9-6.7,4-9.9,6.3c-2.3,1.5-4.3,3.4-6.1,5.5c-3,3.9-2.5,6.8-1.6,10
		c0.2-0.2,0.2,0.9,0.4,0.7"/>
	<path class="st1" d="M281.3,225.1c-1.4-0.9-3.1-1.3-4.8-1c-1.7,0.2-3.3,1.1-4.5,2.4c-0.8,0.7-1.2,1.8-1,2.9
		c0.4,1.1,1.4,1.9,2.5,2.1c1.7,0.5,3.6,0.4,5.3-0.1c1.3-0.4,2.5-1.3,3.2-2.5C282.7,227.6,282.4,226,281.3,225.1"/>
	<path class="st1" d="M287.1,197.2c0,0.4,0,0.8,0,1.2c0,0.8-0.1,1.9-0.3,3.3c-0.3,2.8-0.7,6.7-1.5,10.9s-1.6,8.1-2.3,10.8
		c-0.4,1.4-0.6,2.5-0.9,3.2c-0.1,0.4-0.2,0.8-0.4,1.2c0-0.4,0.1-0.8,0.2-1.2c0.2-0.9,0.4-2,0.7-3.3c0.6-2.8,1.4-6.6,2.1-10.8
		s1.3-8.1,1.6-10.9c0.2-1.3,0.3-2.4,0.4-3.3C286.9,198,286.9,197.6,287.1,197.2z"/>
	<path class="st1" d="M286.3,204.8c2.4,1,4.6,2.7,6.2,4.8c1.6,2.2,2.1,4.9,1.5,7.5c-0.7,2.6-2.9,4.6-5.6,4.9c2.1-1,4.4-1.5,6.5-2.6
		s3.9-3.1,4-5.4c0.1-2-0.9-4.1-1.7-5.9c-2-4.1-5.7-7.1-9.9-9.2"/>
	<path class="st1" d="M95.6,237c-3.4-0.6-6.8,0.9-8.6,3.9c-0.5,0.7-0.6,1.6-0.3,2.4c0.5,0.6,1.3,1,2.1,1c1.5,0.2,3,0.1,4.3-0.4
		c1.4-0.5,2.5-1.6,3.1-3c0.5-1.4,0.2-3-0.9-4.1"/>
	<path class="st1" d="M115.6,231.6c-3.4-0.6-6.8,1-8.6,3.9c-0.5,0.7-0.6,1.6-0.3,2.4c0.5,0.6,1.3,1,2.1,1c1.5,0.2,3,0.1,4.4-0.4
		c1.4-0.5,2.5-1.6,3.1-3c0.5-1.4,0.2-3-0.9-4.1"/>
	<path class="st1" d="M96,239c-0.1,0-1-5.4-1.8-12.2s-1.5-12.2-1.3-12.3s1,5.4,1.8,12.2S96.1,239,96,239z"/>
	<path class="st1" d="M116.1,233.1c-0.1,0-1-5.4-1.8-12.2s-1.5-12.2-1.3-12.3s1,5.4,1.8,12.2S116.2,233,116.1,233.1z"/>
	<polygon class="st1" points="92.8,214.8 112.8,208.1 113.4,212.5 93.4,219.3 	"/>
	<path class="st1" d="M226.1,230.5c-3.2-1.3-6.9-0.3-9.1,2.2c-0.6,0.6-0.9,1.5-0.7,2.3c0.4,0.7,1.1,1.3,1.9,1.4
		c1.4,0.5,2.9,0.6,4.4,0.4c1.5-0.2,2.8-1.1,3.6-2.3c0.8-1.3,0.8-2.9-0.1-4.2"/>
	<path class="st1" d="M246.8,229c-3.2-1.3-6.9-0.3-9.1,2.2c-0.6,0.6-0.9,1.5-0.7,2.3c0.4,0.7,1.1,1.2,1.9,1.4
		c1.4,0.5,2.9,0.6,4.4,0.4c1.5-0.2,2.8-1.1,3.6-2.3c0.8-1.3,0.8-2.9-0.1-4.2"/>
	<path class="st1" d="M226.1,232.6c-0.1,0,0.1-5.5,0.5-12.3s0.9-12.3,1-12.3s-0.1,5.5-0.5,12.3S226.3,232.6,226.1,232.6z"/>
	<path class="st1" d="M247,230.5c-0.1,0,0.1-5.5,0.5-12.3s0.9-12.3,1-12.3s-0.1,5.5-0.5,12.3S247.2,230.6,247,230.5z"/>
	<polygon class="st1" points="227.6,208.2 248.6,205.4 248.3,209.8 227.3,212.7 	"/>
	<path class="st1" d="M137.1,251.2c-3-1.7-6.7-1.4-9.4,0.9c-0.7,0.5-1.1,1.3-1.1,2.2c0.3,0.8,0.9,1.4,1.6,1.7
		c1.3,0.7,2.8,1.1,4.2,1.1c1.5,0,2.9-0.6,3.9-1.8c1-1.2,1.2-2.8,0.5-4.1"/>
	<path class="st1" d="M143.5,225.1c0.1,0-1.2,6.4-2.9,14.3s-3.3,14.2-3.4,14.2s1.2-6.4,2.9-14.3S143.3,225.1,143.5,225.1z"/>
	<path class="st1" d="M189,235.2c-3.4-0.5-6.8,1.2-8.4,4.3c-0.5,0.7-0.5,1.7-0.2,2.4c0.5,0.6,1.3,1,2.1,0.9c1.5,0.2,3,0,4.3-0.6
		c1.4-0.6,2.5-1.7,3-3.1c0.5-1.4,0.1-3-1.1-4"/>
	<path class="st1" d="M185.2,208.6c0.1,0,1.3,6.4,2.7,14.4s2.3,14.4,2.1,14.4s-1.3-6.4-2.7-14.4S185.1,208.6,185.2,208.6z"/>
	<path class="st1" d="M420.1,189.4c-3.4-0.5-6.7,1.2-8.4,4.3c-0.5,0.7-0.5,1.6-0.2,2.4c0.5,0.6,1.3,1,2.1,0.9c1.5,0.2,3,0,4.3-0.6
		c1.4-0.6,2.5-1.7,3-3.1c0.5-1.4,0.1-3-1.1-4"/>
	<path class="st1" d="M416.3,162.9c0.1,0,1.3,6.4,2.6,14.3s2.3,14.4,2.1,14.4s-1.3-6.4-2.7-14.3S416.1,163,416.3,162.9z"/>
	<path class="st1" d="M394.2,197.5c-3.4-0.5-6.7,1.2-8.4,4.3c-0.5,0.7-0.5,1.6-0.2,2.4c0.5,0.6,1.3,1,2.1,0.9c1.5,0.2,3,0,4.3-0.6
		c1.4-0.6,2.5-1.7,3-3.1c0.5-1.4,0.1-3-1.1-4"/>
	<path class="st1" d="M390.4,171c0.1,0,1.3,6.4,2.6,14.3s2.3,14.4,2.1,14.4s-1.3-6.4-2.6-14.3S390.3,171,390.4,171z"/>
	<path class="st1" d="M365.8,211.2c-3.4-0.5-6.7,1.2-8.4,4.3c-0.5,0.7-0.5,1.6-0.2,2.4c0.5,0.6,1.3,1,2.1,0.9c1.5,0.2,3,0,4.3-0.6
		c1.4-0.6,2.5-1.7,3-3.1c0.5-1.4,0.1-3-1.1-4"/>
	<path class="st1" d="M362,184.7c0.1,0,1.3,6.4,2.6,14.3s2.3,14.4,2.1,14.4s-1.3-6.4-2.7-14.3S361.9,184.7,362,184.7z"/>
	<path class="st1" d="M159.8,262.8c-0.1-0.4-0.1-0.9-0.1-1.3c0-0.9,0-2.1,0-3.5c0-3,0-7.1,0-11.7s-0.2-8.7-0.2-11.7
		c0-1.4-0.1-2.6-0.1-3.6c0-0.4,0-0.9,0-1.3c0.1,0.4,0.2,0.9,0.2,1.3c0.1,0.8,0.2,2,0.2,3.5c0.2,3,0.4,7.1,0.4,11.7s0,8.7-0.1,11.7
		c-0.1,1.5-0.1,2.7-0.2,3.5C159.9,261.9,159.9,262.4,159.8,262.8z"/>
	<path class="st1" d="M165.1,261c0-0.4,0-0.8,0-1.3c0-0.9,0-2.1,0.1-3.4c0.1-2.9,0.1-6.9,0.1-11.4s-0.3-8.4-0.4-11.3
		c-0.1-1.4-0.1-2.5-0.2-3.4c0-0.4,0-0.8,0-1.3c0.1,0.4,0.2,0.8,0.2,1.2c0.1,0.8,0.2,2,0.4,3.4c0.2,2.9,0.5,6.9,0.6,11.4
		s-0.1,8.5-0.2,11.4c-0.1,1.5-0.2,2.6-0.2,3.4C165.3,260.2,165.2,260.6,165.1,261z"/>
	<path class="st1" d="M168.4,249.7c-1.8,0.8-3.6,1.4-5.5,1.8c-1.8,0.6-3.7,1-5.7,1.3c1.8-0.8,3.6-1.4,5.5-1.8
		C164.6,250.4,166.5,249.9,168.4,249.7z"/>
	<path class="st1" d="M169.9,235.8c-0.7,0.4-1.5,0.8-2.3,1c-1.9,0.7-3.8,1.2-5.8,1.7c-2,0.5-3.9,0.8-5.9,1.1
		c-0.8,0.1-1.7,0.2-2.5,0.2c0.8-0.3,1.6-0.4,2.4-0.5c1.5-0.3,3.6-0.7,5.9-1.2s4.3-1.1,5.8-1.5C168.3,236.1,169.1,235.9,169.9,235.8z
		"/>
	<path class="st1" d="M336,234c-0.2-0.4-0.4-0.8-0.5-1.2l-1.2-3.3c-1-2.8-2.4-6.7-4-11s-3.1-8.1-4.2-10.9c-0.5-1.3-1-2.4-1.3-3.3
		c-0.2-0.4-0.3-0.8-0.4-1.2c0.2,0.4,0.5,0.8,0.6,1.2c0.4,0.8,0.9,1.9,1.5,3.2c1.2,2.8,2.8,6.6,4.4,10.9s3,8.2,3.9,11.1
		c0.5,1.4,0.8,2.6,1.1,3.4C335.9,233.1,336,233.6,336,234z"/>
	<path class="st1" d="M340.4,230.5c-0.2-0.4-0.3-0.8-0.5-1.2c-0.3-0.9-0.7-2-1.1-3.3c-0.9-2.8-2.2-6.5-3.8-10.7s-3.1-7.8-4.3-10.5
		l-1.4-3.2c-0.2-0.4-0.3-0.8-0.5-1.2c0.3,0.3,0.5,0.7,0.6,1.1c0.4,0.7,0.9,1.8,1.5,3.1c1.2,2.6,2.8,6.3,4.4,10.5s2.9,8,3.7,10.8
		c0.4,1.4,0.8,2.5,1,3.3C340.2,229.7,340.3,230.1,340.4,230.5z"/>
	<path class="st1" d="M339.6,218.7c-1.4,1.3-3,2.5-4.6,3.6c-1.5,1.2-3.2,2.3-4.9,3.2c1.4-1.3,2.9-2.5,4.6-3.6
		C336.2,220.7,337.9,219.6,339.6,218.7z"/>
	<path class="st1" d="M336.2,205.2c-0.5,0.6-1.2,1.2-1.8,1.7c-3.1,2.5-6.5,4.7-10,6.6c-0.7,0.4-1.5,0.8-2.3,1c0.7-0.5,1.4-1,2.1-1.3
		c1.3-0.8,3.1-1.9,5.1-3.1s3.7-2.5,4.9-3.4C334.9,206,335.5,205.6,336.2,205.2z"/>
	<path class="st1" d="M464.6,57.7l-1.1-0.1l-3.2-0.4l-12.2-1.4c-2.6-0.3-5.6-0.6-8.8-0.9l-5-0.5l-5.5-0.4c-3.8-0.3-7.8-0.4-12.1-0.6
		c-4.3,0-8.8-0.1-13.6,0.2c-10.4,0.5-20.7,1.6-30.9,3.2c-1.4,0.2-2.8,0.4-4.2,0.7l-4.2,0.8c-2.8,0.5-5.7,1-8.7,1.6
		c-5.8,1.2-11.9,2.3-18,3.7l-9.3,2l-9.5,2.2c-6.4,1.4-13,3-19.6,4.6c-6.7,1.6-13.4,3.2-20.3,4.9L268,79.6L257.4,82
		c-26.8,5.5-54,8.4-81.4,8.8c-22.3,0.4-44.6-0.6-66.8-2.9c-18.9-2-34.2-4.5-44.6-6.4c-5.2-1-9.3-1.8-12-2.5l-3.1-0.7
		c-0.7-0.2-1.1-0.3-1.1-0.3l1.1,0.2l3.1,0.7c2.7,0.6,6.8,1.4,12,2.4c10.5,1.9,25.7,4.4,44.6,6.3c22.2,2.3,44.5,3.2,66.7,2.8
		c27.3-0.4,54.5-3.3,81.3-8.8l10.5-2.4l10.4-2.5c6.9-1.7,13.6-3.3,20.3-4.8s13.2-3.1,19.6-4.6l9.6-2.2l9.3-2
		c6.1-1.4,12.2-2.5,18-3.7c2.9-0.6,5.8-1,8.7-1.6L368,57c1.4-0.2,2.8-0.4,4.2-0.6c10.3-1.7,20.6-2.8,31-3.2
		c4.8-0.3,9.3-0.2,13.6-0.2c4.3,0.2,8.3,0.3,12.1,0.6l5.5,0.4l5,0.5c3.2,0.3,6.2,0.7,8.8,1c5.3,0.6,9.4,1.2,12.2,1.5l3.2,0.4
		L464.6,57.7z"/>
	<path class="st1" d="M462.4,65.4l-1.1-0.1l-3.2-0.4L446,63.5c-2.6-0.3-5.6-0.6-8.8-0.9l-5-0.5l-5.5-0.4c-3.8-0.3-7.8-0.4-12.1-0.6
		c-4.3,0-8.8-0.1-13.6,0.2c-10.4,0.5-20.7,1.6-30.9,3.3c-1.4,0.2-2.8,0.4-4.2,0.7l-4.3,0.8c-2.8,0.5-5.7,1-8.7,1.6
		c-5.9,1.2-11.9,2.3-18,3.7l-9.3,2l-9.5,2.2c-6.4,1.4-13,3-19.6,4.6c-6.7,1.6-13.4,3.2-20.3,4.9l-10.4,2.5l-10.6,2.4
		c-26.8,5.5-54,8.4-81.4,8.8c-22.3,0.3-44.6-0.7-66.8-3c-18.9-2-34.2-4.5-44.6-6.4c-5.2-1-9.3-1.8-12-2.5l-3.1-0.7
		c-0.7-0.2-1-0.3-1-0.3l1.1,0.2l3.1,0.7c2.7,0.6,6.8,1.4,12,2.4c10.5,1.9,25.7,4.4,44.6,6.3c22.2,2.3,44.5,3.2,66.8,2.8
		c27.3-0.4,54.5-3.3,81.3-8.8l10.6-2.4l10.4-2.5c6.9-1.7,13.6-3.3,20.3-4.8s13.2-3.1,19.6-4.6l9.5-2.2l9.3-2
		c6.1-1.4,12.2-2.5,18-3.7c2.9-0.6,5.8-1,8.7-1.6l4.2-0.8c1.4-0.2,2.8-0.4,4.2-0.6c10.3-1.7,20.6-2.8,31-3.2
		c4.8-0.3,9.3-0.2,13.6-0.2c4.3,0.2,8.3,0.3,12.1,0.6l5.5,0.4l5,0.5c3.2,0.3,6.2,0.7,8.8,1c5.3,0.6,9.4,1.1,12.2,1.5l3.2,0.4
		L462.4,65.4z"/>
	<path class="st1" d="M462.4,73.5l-1.1-0.1l-3.2-0.4L446,71.6c-2.6-0.3-5.6-0.6-8.8-0.9l-5-0.5l-5.5-0.4c-3.8-0.3-7.8-0.4-12.1-0.6
		c-4.3,0-8.8-0.1-13.6,0.2c-10.4,0.5-20.7,1.6-30.9,3.3c-1.4,0.2-2.8,0.4-4.2,0.7l-4.2,0.8c-2.8,0.5-5.7,1-8.7,1.6
		c-5.9,1.2-11.9,2.3-18,3.7l-9.3,2l-9.5,2.2c-6.4,1.4-13,3-19.6,4.6s-13.4,3.2-20.3,4.9l-10.4,2.5l-10.6,2.4
		c-26.8,5.5-54,8.4-81.4,8.8c-22.3,0.3-44.6-0.7-66.8-3c-18.9-2-34.2-4.5-44.6-6.4c-5.2-1-9.3-1.8-12-2.5L47.3,94l-1-0.3l1.1,0.2
		l3.1,0.7c2.7,0.6,6.8,1.4,12,2.4c10.5,1.9,25.7,4.4,44.6,6.3c22.2,2.3,44.5,3.2,66.8,2.8c27.3-0.4,54.5-3.3,81.3-8.8l10.6-2.4
		l10.4-2.5c6.9-1.7,13.7-3.3,20.3-4.9C303,86,309.6,84.5,316,83l9.5-2.2l9.3-2c6.1-1.4,12.2-2.5,18-3.7c2.9-0.6,5.8-1,8.7-1.6
		l4.2-0.8c1.4-0.2,2.8-0.4,4.2-0.6c10.3-1.7,20.6-2.8,31-3.2c4.8-0.3,9.3-0.2,13.6-0.2c4.3,0.2,8.3,0.3,12.1,0.6l5.5,0.4l5,0.5
		c3.2,0.3,6.2,0.7,8.8,1c5.3,0.6,9.4,1.2,12.2,1.5l3.2,0.4C462.1,73.4,462.4,73.5,462.4,73.5z"/>
	<path class="st1" d="M462.4,81.6c0,0-0.4,0-1.1-0.1l-3.2-0.4L446,79.8c-2.6-0.3-5.6-0.6-8.8-0.9l-5-0.5l-5.5-0.4
		c-3.8-0.3-7.8-0.4-12.1-0.6c-4.3,0-8.8-0.1-13.6,0.2c-10.4,0.5-20.7,1.6-30.9,3.2c-1.4,0.2-2.8,0.4-4.2,0.7l-4.2,0.8
		c-2.8,0.5-5.7,1-8.7,1.6c-5.9,1.2-11.9,2.3-18,3.7l-9.3,2l-9.5,2.2c-6.4,1.4-13,3-19.6,4.6c-6.7,1.6-13.5,3.2-20.4,4.8l-10.4,2.5
		l-10.6,2.4c-26.8,5.5-54,8.4-81.4,8.8c-22.3,0.3-44.6-0.7-66.8-3c-18.9-2-34.2-4.5-44.6-6.4c-5.2-1-9.3-1.8-12-2.5l-3.1-0.7
		c-0.7-0.2-1-0.3-1-0.3l1.1,0.2l3.1,0.7c2.7,0.6,6.8,1.4,12,2.4c10.5,1.9,25.7,4.4,44.6,6.3c22.2,2.3,44.5,3.2,66.8,2.8
		c27.3-0.4,54.5-3.3,81.3-8.8l10.6-2.3l10.4-2.5c6.9-1.7,13.7-3.3,20.3-4.9c6.7-1.6,13.2-3.1,19.6-4.5l9.6-2.1l9.3-2
		c6.1-1.4,12.2-2.5,18-3.7c2.9-0.6,5.8-1,8.7-1.6l4.2-0.8c1.4-0.2,2.8-0.4,4.2-0.6c10.3-1.7,20.6-2.7,31-3.2
		c4.8-0.3,9.3-0.2,13.6-0.2c4.3,0.2,8.3,0.3,12.1,0.6l5.5,0.4l5,0.5c3.2,0.3,6.2,0.7,8.8,1c5.3,0.6,9.4,1.2,12.2,1.5l3.2,0.4
		L462.4,81.6z"/>
	<path class="st1" d="M468.7,88.1c0,0-0.4,0-1.1-0.1l-3.2-0.4l-12.2-1.4c-2.6-0.3-5.6-0.6-8.8-0.9l-5-0.5l-5.5-0.4
		c-3.8-0.3-7.8-0.4-12.1-0.6c-4.3,0-8.8-0.1-13.6,0.2c-10.4,0.5-20.7,1.6-30.9,3.3c-1.4,0.2-2.8,0.4-4.2,0.6l-4.2,0.8
		c-2.9,0.5-5.7,1-8.7,1.6c-5.8,1.2-11.9,2.3-18,3.7l-9.3,2l-9.5,2.2c-6.4,1.4-13,3-19.6,4.6c-6.7,1.6-13.4,3.2-20.3,4.9l-10.4,2.5
		l-10.6,2.4c-26.8,5.5-54,8.4-81.4,8.8c-22.3,0.3-44.6-0.7-66.8-3c-18.9-2-34.2-4.5-44.6-6.4c-5.2-1-9.3-1.8-12-2.5l-3.1-0.7
		c-0.7-0.2-1-0.3-1-0.3l1.1,0.2l3.1,0.7c2.7,0.6,6.8,1.4,12,2.4c10.5,1.9,25.7,4.4,44.6,6.3c22.2,2.3,44.5,3.2,66.8,2.8
		c27.3-0.4,54.5-3.3,81.3-8.8l10.6-2.4l10.4-2.5c6.9-1.7,13.6-3.3,20.3-4.9c6.7-1.6,13.2-3.1,19.6-4.6l9.5-2.2l9.4-2
		c6.1-1.4,12.2-2.5,18-3.7c2.9-0.6,5.8-1,8.7-1.6l4.2-0.8c1.4-0.2,2.8-0.4,4.2-0.6c10.3-1.7,20.6-2.8,31-3.2
		c4.8-0.3,9.3-0.2,13.6-0.2c4.3,0.2,8.3,0.3,12.1,0.6l5.5,0.4l5,0.5c3.2,0.3,6.2,0.7,8.8,1c5.3,0.6,9.4,1.2,12.2,1.5l3.2,0.4
		L468.7,88.1z"/>
	<path class="st1" d="M64.9,97.8l-0.4,0.3c-0.4,0.2-0.8,0.4-1.3,0.5c-0.7,0.1-1.5,0.1-2.2-0.1c-1-0.3-1.8-0.9-2.4-1.7
		c-0.7-1.1-1-2.4-0.6-3.7c0.4-1.5,1.4-2.8,2.7-3.5c1.6-0.8,3.5-0.7,5.1,0.1c0.9,0.4,1.6,1,2.2,1.8c0.6,0.8,1,1.7,1.2,2.7
		c0.3,2.1-0.2,4.3-1.6,6c-1.5,1.8-3.7,2.9-6,3.2c-2.5,0.3-5-0.3-7.1-1.7c-2.2-1.5-3.8-3.8-4.3-6.4c-0.3-1.3-0.3-2.7-0.1-4.1
		c0.3-1.4,0.8-2.7,1.5-3.9c1.6-2.4,3.7-4.4,6.1-5.9c4.8-3.2,9.9-6.3,15.1-9.5c1.3-0.7,2.5-1.7,3.4-2.8c0.9-1.1,1.3-2.6,0.9-4
		c-0.5-1.3-1.7-2.2-3.2-2.2c-0.7-0.1-1.4,0-2,0.3c-0.6,0.3-1.2,0.6-1.8,1.1c-1,1-1.8,2.1-2.4,3.4c-0.6,1.3-1.1,2.6-1.4,3.9
		c-0.7,2.6-1,5.3-1.2,8c-0.4,10.6-0.8,20.1-1.2,28.1c0,1.9-0.3,3.8-0.9,5.7c-0.5,1.7-1.6,3.1-3,4.1c-1.2,0.9-2.8,1.3-4.3,0.9
		c-1.2-0.4-2.3-1.2-2.9-2.3c-0.5-0.9-0.7-1.9-0.6-2.9c0.1-0.7,0.4-1.4,0.8-2c0.2-0.4,0.6-0.7,0.9-1c0.1-0.1,0.2-0.2,0.4-0.2
		c-0.5,0.4-0.9,0.8-1.2,1.3c-0.4,0.6-0.6,1.3-0.7,2c-0.1,1,0.1,2,0.6,2.8c0.6,1.1,1.6,1.8,2.8,2.1c1.4,0.3,2.9,0,4.1-0.9
		c1.4-1,2.4-2.4,2.8-4c0.5-1.8,0.8-3.7,0.8-5.6c0.3-8,0.6-17.5,1-28.1c0.1-2.7,0.5-5.4,1.2-8.1c0.4-1.4,0.8-2.7,1.4-4
		c0.6-1.3,1.5-2.5,2.5-3.5c0.6-0.5,1.2-0.9,1.9-1.2c0.7-0.3,1.5-0.4,2.3-0.3c0.8,0.1,1.5,0.3,2.2,0.8c0.7,0.5,1.2,1.1,1.4,1.9
		c0.4,1.6,0,3.2-1,4.4c-1,1.2-2.2,2.2-3.6,2.9C67.9,75.7,62.8,78.8,58,82c-2.4,1.5-4.4,3.4-6,5.8c-0.7,1.1-1.2,2.4-1.5,3.7
		c-0.2,1.3-0.2,2.6,0.1,3.9c0.5,2.5,2,4.7,4.1,6.1c2,1.3,4.4,1.9,6.8,1.7c2.2-0.2,4.3-1.3,5.7-3c1.3-1.6,1.9-3.7,1.6-5.7
		c-0.2-0.9-0.5-1.8-1.1-2.6c-0.5-0.8-1.2-1.4-2-1.8c-1.5-0.8-3.2-0.9-4.8-0.2c-1.3,0.7-2.2,1.9-2.6,3.3c-0.3,1.2-0.1,2.5,0.5,3.5
		c1,1.4,2.7,2.1,4.5,1.8C63.8,98.3,64.4,98.1,64.9,97.8z"/>
	<path class="st1" d="M53.9,117c-1-0.9-0.7-1.7-0.2-2.1c0.5-0.3,1-0.6,1.6-0.7c1.4-0.7,2.2-2.3,1.7-3.8c-0.6-1.5-2.2-2.3-3.7-1.8
		c-1.1,0.5-2,1.4-2.2,2.6c-0.4,1.3-0.2,2.8,0.5,4c0.8,1.2,1.4,1.3,3.1,2.6"/>
	<path class="st1" d="M50.7,96.2c-0.5-3.5,1.3-6,4-8.3s6-3.8,9.2-5.4c3.2-1.6,6.2-3.7,8.8-6.1c2.6-2.5,4.4-5.7,5.1-9.3
		c-0.8,1.9-2.2,3.6-4,4.7c-1.8,1.1-3.6,2.1-5.5,3c-3.4,1.9-6.7,4-9.9,6.3c-2.3,1.5-4.3,3.4-6.1,5.5c-3,3.9-2.5,6.8-1.6,10
		c0.2-0.2,0.2,0.9,0.4,0.7"/>
	<path class="st1" d="M282.4,92.3c-1.4-0.9-3.1-1.3-4.8-1c-1.7,0.3-3.3,1.1-4.5,2.4c-0.8,0.7-1.2,1.8-1,2.9c0.4,1.1,1.4,1.9,2.5,2.1
		c1.7,0.5,3.6,0.4,5.3-0.1c1.3-0.4,2.5-1.3,3.2-2.5C283.7,94.8,283.4,93.2,282.4,92.3"/>
	<path class="st1" d="M288.1,64.4c0,0.4,0,0.8,0,1.2c0,0.8-0.1,1.9-0.3,3.3c-0.3,2.8-0.7,6.7-1.5,10.9s-1.6,8.1-2.3,10.8
		c-0.4,1.4-0.6,2.5-0.9,3.2c-0.1,0.4-0.2,0.8-0.4,1.2c0-0.4,0.1-0.8,0.2-1.2c0.2-0.9,0.4-2,0.7-3.3c0.6-2.8,1.4-6.6,2.1-10.8
		s1.3-8.1,1.6-10.9c0.2-1.3,0.3-2.4,0.4-3.3C287.9,65.2,288,64.8,288.1,64.4z"/>
	<path class="st1" d="M287.3,72c2.4,1,4.6,2.7,6.2,4.8c1.6,2.2,2.1,4.9,1.5,7.5c-0.7,2.6-2.9,4.6-5.6,4.9c2.1-1,4.4-1.5,6.5-2.6
		s3.9-3.1,4-5.4c-0.1-2.1-0.7-4.1-1.7-5.9c-2-4.2-5.7-7.1-9.9-9.2"/>
	<path class="st1" d="M96.6,104.2c-3.4-0.6-6.8,0.9-8.5,3.9c-0.5,0.7-0.6,1.6-0.3,2.4c0.5,0.6,1.3,1,2.1,1c1.5,0.2,3,0.1,4.3-0.4
		c1.4-0.5,2.5-1.6,3.1-3c0.5-1.4,0.2-3-0.9-4.1"/>
	<path class="st1" d="M116.6,98.8c-3.4-0.6-6.8,1-8.5,3.9c-0.5,0.7-0.6,1.6-0.3,2.4c0.5,0.6,1.3,1,2.1,1c1.5,0.2,3,0.1,4.3-0.4
		c1.4-0.5,2.5-1.6,3.1-3c0.5-1.4,0.2-3-0.9-4.1"/>
	<path class="st1" d="M97,106.2c-0.1,0-1-5.4-1.8-12.2s-1.5-12.3-1.3-12.3s1,5.4,1.8,12.2S97.2,106.2,97,106.2z"/>
	<path class="st1" d="M117.2,100.3c-0.1,0-1-5.4-1.8-12.2s-1.5-12.3-1.3-12.3s1,5.4,1.8,12.2S117.3,100.2,117.2,100.3z"/>
	<polygon class="st1" points="93.9,82 113.9,75.3 114.5,79.7 94.4,86.5 	"/>
	<path class="st1" d="M227.2,97.7c-3.2-1.2-6.9-0.3-9.1,2.3c-0.6,0.6-0.9,1.5-0.7,2.3c0.4,0.7,1.1,1.3,1.9,1.4
		c1.4,0.5,2.9,0.6,4.4,0.4c1.5-0.2,2.8-1.1,3.6-2.3c0.8-1.3,0.8-2.9-0.1-4.2"/>
	<path class="st1" d="M247.9,96.2c-3.2-1.2-6.9-0.3-9.1,2.2c-0.6,0.6-0.9,1.5-0.7,2.3c0.4,0.7,1.1,1.2,1.9,1.4
		c1.4,0.5,2.9,0.6,4.4,0.4c1.5-0.2,2.8-1.1,3.6-2.3c0.8-1.3,0.8-2.9-0.1-4.2"/>
	<path class="st1" d="M227.2,99.8c-0.1,0,0.1-5.5,0.5-12.3s0.9-12.3,1-12.3s-0.1,5.5-0.5,12.3S227.4,99.8,227.2,99.8z"/>
	<path class="st1" d="M248.1,97.7c-0.1,0,0.1-5.5,0.5-12.3s0.9-12.3,1-12.3s-0.1,5.5-0.5,12.3S248.2,97.7,248.1,97.7z"/>
	<polygon class="st1" points="228.7,75.4 249.6,72.6 249.4,77 228.4,79.9 	"/>
	<path class="st1" d="M138.1,118.4c-3-1.7-6.7-1.4-9.4,0.8c-0.7,0.5-1.1,1.3-1.1,2.2c0.3,0.8,0.9,1.4,1.6,1.7
		c1.3,0.7,2.8,1.1,4.2,1.1c1.5,0,2.9-0.7,3.9-1.8c1-1.2,1.2-2.8,0.5-4.1"/>
	<path class="st1" d="M144.5,92.3c0.1,0-1.2,6.4-2.9,14.3s-3.3,14.2-3.4,14.2s1.2-6.4,2.9-14.3S144.4,92.3,144.5,92.3z"/>
	<path class="st1" d="M190.1,102.4c-3.4-0.5-6.8,1.2-8.4,4.3c-0.5,0.7-0.5,1.6-0.2,2.4c0.5,0.6,1.3,1,2.1,0.9c1.5,0.2,3,0,4.3-0.6
		c1.4-0.6,2.5-1.7,3-3.1c0.5-1.4,0.1-3-1.1-4"/>
	<path class="st1" d="M186.3,75.8c0.1,0,1.3,6.4,2.7,14.3s2.3,14.4,2.1,14.4s-1.3-6.4-2.6-14.4S186.1,75.8,186.3,75.8z"/>
	<path class="st1" d="M421.1,56.6c-3.4-0.5-6.7,1.2-8.4,4.3c-0.5,0.7-0.5,1.6-0.2,2.4c0.5,0.6,1.3,1,2.1,0.9c1.5,0.2,3,0,4.3-0.6
		c1.4-0.6,2.5-1.7,3-3.1c0.5-1.4,0.1-3-1.1-4"/>
	<path class="st1" d="M417.4,30.1c0.1,0,1.3,6.4,2.6,14.3s2.3,14.4,2.1,14.4s-1.3-6.4-2.6-14.3S417.2,30.1,417.4,30.1z"/>
	<path class="st1" d="M395.3,64.7c-3.4-0.5-6.8,1.3-8.3,4.3c-0.5,0.7-0.5,1.6-0.2,2.4c0.5,0.6,1.3,1,2.1,0.9c1.5,0.2,3,0,4.3-0.6
		c1.4-0.6,2.5-1.7,3-3.1C396.7,67.3,396.3,65.7,395.3,64.7"/>
	<path class="st1" d="M391.5,38.2c0.1,0,1.3,6.4,2.7,14.3s2.3,14.4,2.1,14.4s-1.3-6.4-2.6-14.3S391.3,38.2,391.5,38.2z"/>
	<path class="st1" d="M366.9,78.4c-3.4-0.5-6.7,1.2-8.4,4.3c-0.5,0.7-0.5,1.6-0.2,2.4c0.5,0.6,1.3,1,2.1,0.9c1.5,0.2,3,0,4.3-0.6
		c1.4-0.6,2.5-1.7,3-3.1c0.5-1.4,0.1-3-1.1-4"/>
	<path class="st1" d="M363.1,51.9c0.1,0,1.3,6.4,2.6,14.3s2.3,14.4,2.1,14.4s-1.3-6.4-2.6-14.3S363,51.9,363.1,51.9z"/>
	<path class="st1" d="M160.8,130c-0.1-0.4-0.1-0.9-0.1-1.3v-3.6c0-3,0-7.1,0-11.7s-0.2-8.7-0.2-11.7c0-1.4-0.1-2.6-0.1-3.6
		c0-0.4,0-0.9,0-1.3c0.1,0.4,0.2,0.9,0.2,1.3c0.1,0.8,0.2,2,0.2,3.5c0.2,3,0.3,7.1,0.4,11.7s0,8.7-0.1,11.7
		c-0.1,1.5-0.1,2.7-0.2,3.5C161,129.1,160.9,129.6,160.8,130z"/>
	<path class="st1" d="M166.2,128.2c0-0.4,0-0.8,0-1.3c0-0.9,0.1-2.1,0.1-3.4c0.1-2.9,0.1-6.9,0.1-11.3s-0.2-8.4-0.4-11.3
		c-0.1-1.4-0.1-2.5-0.2-3.4c0-0.4,0-0.8,0-1.3c0.1,0.4,0.2,0.8,0.2,1.2c0.1,0.8,0.2,2,0.4,3.4c0.3,2.9,0.5,6.9,0.6,11.3
		s0,8.5-0.2,11.4c-0.1,1.4-0.2,2.6-0.2,3.4C166.4,127.4,166.3,127.8,166.2,128.2z"/>
	<path class="st1" d="M169.5,116.9c-1.8,0.8-3.6,1.4-5.5,1.8c-1.8,0.6-3.7,1-5.7,1.3c1.8-0.8,3.6-1.4,5.5-1.8
		C165.7,117.6,167.6,117.1,169.5,116.9z"/>
	<path class="st1" d="M171,103c-0.7,0.4-1.5,0.8-2.3,1c-3.8,1.3-7.7,2.2-11.7,2.7c-0.8,0.2-1.6,0.2-2.5,0.2c0.8-0.2,1.6-0.4,2.4-0.5
		c1.5-0.3,3.6-0.7,5.9-1.2s4.3-1.1,5.8-1.5C169.4,103.3,170.2,103.1,171,103z"/>
	<path class="st1" d="M337,101.2c-0.2-0.4-0.4-0.8-0.5-1.2c-0.3-0.9-0.7-2-1.2-3.3c-1-2.8-2.4-6.7-4-11s-3.1-8.1-4.2-10.9
		c-0.5-1.3-1-2.4-1.3-3.3c-0.2-0.4-0.3-0.8-0.4-1.2c0.2,0.4,0.4,0.8,0.6,1.2c0.4,0.8,0.9,1.9,1.5,3.2c1.2,2.8,2.8,6.6,4.4,10.9
		s3,8.2,3.9,11.1c0.5,1.4,0.8,2.6,1,3.4C336.9,100.3,337,100.8,337,101.2z"/>
	<path class="st1" d="M341.4,97.7c-0.2-0.4-0.4-0.8-0.5-1.2c-0.3-0.9-0.7-2-1.1-3.3c-0.9-2.8-2.2-6.6-3.8-10.7s-3.1-7.8-4.3-10.5
		l-1.4-3.2c-0.2-0.4-0.3-0.8-0.4-1.2c0.2,0.3,0.4,0.7,0.6,1.1c0.4,0.7,0.9,1.8,1.5,3.1c1.2,2.6,2.8,6.3,4.4,10.5s2.9,8,3.7,10.8
		c0.4,1.4,0.7,2.5,0.9,3.3C341.3,96.9,341.4,97.3,341.4,97.7z"/>
	<path class="st1" d="M340.7,85.9c-1.4,1.3-2.9,2.5-4.6,3.6c-1.5,1.2-3.2,2.3-4.9,3.2c1.4-1.3,2.9-2.5,4.6-3.6
		C337.3,87.9,339,86.8,340.7,85.9z"/>
	<path class="st1" d="M337.3,72.4c-0.5,0.6-1.2,1.2-1.8,1.7c-1.6,1.3-3.2,2.5-4.9,3.6c-1.7,1.1-3.4,2.1-5.2,3
		c-0.7,0.4-1.5,0.8-2.3,1c0.7-0.5,1.4-1,2.1-1.3c1.3-0.8,3.1-1.9,5.1-3.2s3.7-2.5,4.9-3.4C335.9,73.2,336.6,72.8,337.3,72.4z"/>
</g>
<g id="freepik--Plant--inject-80">
	<path class="st3" d="M50.3,341.5c-5.2-3.3-11.2-5.3-17.3-6c-2.8-0.3-5.9-0.2-8.2,1.5c-0.5,0.3-0.9,0.9-0.8,1.5
		c0.1,0.4,0.4,0.8,0.8,1C31.7,344.9,42.4,345.6,50.3,341.5"/>
	<path class="st3" d="M49.8,341.1c-4-2.9-7.8-6.2-11.2-9.8c-3.4-3.6-5.9-8.1-7-13c-0.3-1.5-0.4-3.2,0.6-4.3
		C41.1,320.9,48.1,329.9,49.8,341.1"/>
	<path class="st3" d="M50.2,341.5c-0.8-4.9-0.8-9.8,0.2-14.7c1.1-4.8,3.7-9.4,7.8-12.1c1.5,3.6,0.9,7.7-0.2,11.5
		c-1.7,5.8-4.3,11.3-7.8,16.3"/>
	<path class="st3" d="M58.9,357.1c-5.3,0.6-9.9,3.4-13.9,7c-4,3.6-6.8,8.4-7.9,13.6c5.2-0.3,9.6-4,12.8-8.1S55.3,361,58.9,357.1"/>
	<path class="st3" d="M60.8,359.6c-4.2-10.8-2.7-22.9,4-32.4C67.8,338,66.7,350.1,60.8,359.6"/>
	<path class="st3" d="M72.3,373.4c-9.9-0.6-19.2,4.8-23.7,13.6c-0.3,0.6-0.5,1.3-0.2,1.9c0.4,0.4,1,0.6,1.6,0.5
		c4.7-0.3,8.8-3.1,12.2-6.3S68.7,376.1,72.3,373.4"/>
	<path class="st3" d="M72,372.6c-2.5-8-2.7-16.5-0.5-24.6c0.9-3.2,2.3-6.5,5.2-8c0.2-0.1,0.5-0.2,0.8-0.1c0.2,0.1,0.4,0.3,0.5,0.6
		c1,2.2,1.4,4.6,1.2,7.1c-0.2,2.4-0.5,4.8-1.1,7.1c-0.9,4.4-1.4,9.1-3.8,12.8c-0.6,0.9-1.1,1.9-1.5,2.8c-0.4,1-0.4,1.3-0.9,2.1"/>
	<path class="st3" d="M102.5,377.2c-2.3-8.6,0.1-19,5.6-26.1c0.4-0.5,0.9-1.1,1.6-1c1,0.1,1.3,1.4,1.2,2.4
		C110.5,361.4,107.6,369.9,102.5,377.2"/>
	<path class="st3" d="M105.3,379.1c10.5,2.7,22.5,0.1,31.1-6.3c-5.2-2.6-11.2-3.3-16.9-2.1C113.9,371.9,108.8,374.5,105.3,379.1"/>
	<path class="st3" d="M107.6,373.3c5.9-9.5,17.1-15.8,28.3-16.4c-1.3,4.5-5,8.1-9.2,10.2s-8.9,3.1-13.6,4
		C111.3,371.5,108.8,371.9,107.6,373.3"/>
	<path class="st3" d="M103.1,345.5c1.6-5.4,3.2-10.9,3.6-16.6s-0.4-11.5-3.3-16.4c-5.5,10.6-6,23-0.5,33.5"/>
	<path class="st3" d="M121.5,336.2c6.4-11.6,19.4-20.9,32.7-22.2C149.1,326.7,135.2,336.5,121.5,336.2"/>
	<path class="st3" d="M117.5,338.5c9.5,1.5,17.7,7.5,26.6,11.2c1.9,0.9,3.9,1.3,6,1.1c2.6,0,4.7-2.1,4.7-4.7c0-1.4-0.6-2.7-1.7-3.6
		c-1.3-1.2-2.8-2.1-4.4-2.6c-9.7-4-20.1-4.1-30.4-1.7"/>
	<path class="st3" d="M112,345.2c2.2,0.6,2.9,1.7,4.6,3.2c5.8,5,12.7,8.5,20.2,10.4c0.8,0.2,1.8,0.3,2.2-0.4s-0.1-1.3-0.5-1.9
		c-3.2-3.8-7.4-6.7-12.2-8.3c-4.7-1.7-8.7-3.8-14.2-3.4"/>
	<path class="st3" d="M105.8,304.8c7.9,7.3,18.5,10.9,29.2,9.9c0.5,0,1-0.2,1.3-0.5c0.7-0.8-0.1-2-1-2.7
		C126.7,304.8,116.3,302,105.8,304.8"/>
	<path class="st3" d="M113.1,302c10.5-7.7,24.1-10,36.5-6c-4.6,4.5-11,7-17.4,7.6C125.8,304.3,119.4,303.7,113.1,302"/>
	<path class="st3" d="M110.2,283.5c-0.8-8.6-0.3-15.4-0.9-24c0-0.7-0.2-1.5-0.8-1.8c-0.9-0.4-1.7,0.8-1.9,1.7
		c-2.5,8.1-1.2,16.9,3.7,23.9"/>
	<path class="st3" d="M109.6,284.4c5.8-3.6,10.2-8.3,14.2-13.8c2.8-3.9,5.2-8.5,4.5-13.2c-3.9-0.1-7.7,2.1-10.2,5.1
		c-2.5,3.1-4.2,6.7-5.2,10.5C111.7,276.8,110.9,280.7,109.6,284.4"/>
	<path class="st3" d="M123.6,280.5c12.8-4.7,24.7-11.7,35-20.6c-4.2-1.7-9-0.7-13.1,1c-9.6,3.9-17.4,10.4-22,19.5"/>
	<path class="st3" d="M113.5,289.1c6.5,0.7,13,1.2,19.4,0.1c6.4-1.1,12.2-3.5,18.1-6c0.5-0.1,1-0.5,1.2-0.9c0.2-0.6,0-1.2-0.4-1.5
		c-0.5-0.4-1-0.6-1.6-0.7c-6.4-1.8-13.3-1-19.6,1.2C124.7,283.2,119,285.9,113.5,289.1"/>
	<path class="st3" d="M76.6,305c-4.4-8.9-4.1-19.3-0.3-28.5c2.7,4.1,3,9.3,2.5,14.1s-2,9.9-2.1,14.7"/>
	<path class="st3" d="M59,296.2c-11.2-0.1-21.9,4.4-29.5,12.6c5.5,0.9,11.1-0.5,16.1-3s9.4-5.9,13.8-9.3"/>
	<path class="st3" d="M47.2,292.2c-5.4-0.4-10.6-1.1-15.7,0.5s-9.9,5.2-12,10.2c5.1,0.4,10.2-0.6,14.8-2.8
		C38.8,297.9,43.1,295.2,47.2,292.2"/>
	<path class="st3" d="M64.7,292.4c-4.8-3.2-9.8-6.4-15.5-7.7s-12.2-0.3-16.1,3.9c4.6,2.7,10.1,3,15.4,3s11.8-0.1,16.8,1.7"/>
	<path class="st3" d="M64.7,292.6c-8.3-8.1-11.4-22.7-8.1-33.9C63.2,268.8,66,280.8,64.7,292.6"/>
	<path class="st3" d="M87.5,269.6c1.6-3.6,2.7-7.4,4.1-11.1c1.3-3.7,3.2-7.2,5.8-10.3c2.6-3,6.3-5,10.2-5.3
		c-2.6,11.3-9.8,21-19.9,26.8"/>
	<path class="st3" d="M83.4,274.4c-2.6-3.6-5.6-8.4-9.1-11s-8.1-4.3-12.3-3.2C66.5,268,74.4,273.3,83.4,274.4"/>
	<path class="st3" d="M84.2,269.9c-1.7-4.3-3.4-8.7-4.1-13.2s-0.3-9.5,2.1-13.4c4.6,8.6,6,17.8,2.2,26.8"/>
	<path class="st3" d="M87.5,243.2c2.6-8.5,10.4-14.8,18.8-17.7c1-0.4,2.2-0.6,3.3-0.5c1.1,0.1,2.1,0.9,2.4,2c0.3,1.4-0.9,2.7-2,3.7
		C103.5,236.4,95.8,240.6,87.5,243.2"/>
	<path class="st3" d="M87.6,236.3c0.3-5.5,0.7-11.1,2.5-16.3s5.2-10.1,10.2-12.4c0.8,5.5-1.6,11.1-4.6,15.8s-6.5,9.3-8.3,14.6"/>
	<path class="st3" d="M87.5,240c-2.1-6.2-2.3-14.1-6.1-19.5c-2.6-3.8-6.8-6.4-9-10.4c-1.3,3.9-1.1,8.1,0.6,11.8c1.7,3.7,4,7,6.9,9.9
		C82.6,234.7,85,236.9,87.5,240"/>
	<path class="st4" d="M87.5,422.8c-0.2,0-0.3-41.4-0.3-92.5s0.1-92.5,0.3-92.5s0.3,41.4,0.3,92.5S87.7,422.8,87.5,422.8z"/>
	<path class="st4" d="M123.7,298.8c-0.5,0.2-1,0.4-1.6,0.6l-4.3,1.4c-3.6,1.2-8.6,3-14,5.2s-10.4,4.1-13.2,6.6
		c-1.2,1-2.1,2.2-2.7,3.5c-0.4,1-0.5,1.6-0.5,1.5c0-0.1,0-0.3,0-0.4c0.1-0.4,0.2-0.8,0.3-1.2c0.5-1.4,1.4-2.7,2.6-3.8
		c1.7-1.5,3.7-2.7,5.7-3.6c2.3-1.1,4.8-2.2,7.6-3.3c5.4-2.2,10.4-3.9,14-5.1c1.8-0.6,3.3-1,4.3-1.3
		C122.6,299,123.1,298.9,123.7,298.8z"/>
	<path class="st4" d="M135.6,269.7c-0.1,0.2-0.3,0.3-0.4,0.5l-1.3,1.2l-5,4.5l-16.5,14.7c-6.4,5.7-12,11.2-15.9,15.3
		c-1.9,2.1-3.5,3.8-4.5,5l-1.2,1.4c-0.1,0.2-0.3,0.3-0.4,0.5c0,0,0.1-0.2,0.3-0.5s0.6-0.8,1.1-1.5c1-1.2,2.5-3,4.4-5.1
		c5-5.5,10.3-10.7,15.9-15.5c6.5-5.7,12.4-10.9,16.6-14.6l5.1-4.4l1.4-1.2C135.4,269.8,135.6,269.6,135.6,269.7z"/>
	<path class="st4" d="M105.4,296.4c-0.2-0.1,1.2-3.2,2.5-7.1s2-7.2,2.2-7.2c-0.1,2.5-0.7,5-1.6,7.4c-0.6,1.7-1.2,3.4-2,5
		C106.2,295.2,105.8,295.8,105.4,296.4z"/>
	<path class="st4" d="M87.6,321.5c-0.4-0.3-0.7-0.7-1-1.1l-2.6-3.3c-2.1-2.8-5.1-6.6-8.4-10.8s-6.4-7.9-8.6-10.6l-2.6-3.2
		c-0.3-0.4-0.6-0.8-0.9-1.2c0.4,0.3,0.8,0.7,1.1,1.1c0.7,0.7,1.6,1.8,2.8,3.1c2.3,2.6,5.4,6.4,8.7,10.5s6.2,8,8.3,10.9
		c1,1.4,1.8,2.6,2.4,3.4C87.1,320.6,87.3,321,87.6,321.5z"/>
	<path class="st4" d="M79.7,311.3c-1.6-1.8-2.7-3.9-3.3-6.2c-0.6-2-0.9-4.2-0.8-6.3h0.3c-0.1,0.5-0.2,0.7-0.2,0.7s0-0.3,0-0.8h0.3
		c0.1,2.1,0.5,4.1,1.1,6.1C78,308.6,79.8,311.2,79.7,311.3z"/>
	<path class="st4" d="M69.4,298.4c-0.7-0.5-1.5-1-2.3-1.3c-2.1-0.6-4.3-0.8-6.4-0.5c-2.2,0.2-4.4,0.5-6.5,1
		c-0.9,0.3-1.8,0.5-2.7,0.6c0.8-0.5,1.6-0.8,2.5-1.1c2.1-0.6,4.4-1,6.6-1.2c2.2-0.3,4.5-0.1,6.6,0.7C68.1,297,68.9,297.6,69.4,298.4
		z"/>
	<path class="st4" d="M67,295.3c0,0.1-1.3-0.5-3.5-1.3c-2.9-1-5.8-1.6-8.9-1.8c-3-0.2-6-0.1-9,0.5c-2.3,0.4-3.7,0.8-3.7,0.7
		c0.3-0.2,0.6-0.3,0.9-0.4c0.9-0.3,1.8-0.6,2.7-0.8c3-0.7,6.1-0.9,9.2-0.6c3.1,0.2,6.1,0.9,9,2c0.9,0.3,1.7,0.7,2.5,1.1
		C66.7,295.1,67,295.2,67,295.3z"/>
	<path class="st4" d="M87.5,282.1c-1.1-2.9-1.9-5.9-2.6-9c-1.3-5-2.2-9.1-2-9.1s1.3,4,2.6,9S87.7,282,87.5,282.1z"/>
	<path class="st4" d="M87.7,282.1c-0.8-1.9-1.8-3.7-2.9-5.4c-1.2-1.6-2.6-3.1-4.2-4.4c0.6,0.1,1.2,0.4,1.6,0.8
		c1.2,0.9,2.2,2,3.1,3.2C87.3,279.2,87.8,282.1,87.7,282.1z"/>
	<path class="st4" d="M87.5,400.8c-0.1,0-0.2-1-0.7-2.8c-0.7-2.5-1.6-4.9-2.8-7.2c-2.9-5.9-8.1-13.3-14.7-20.7
		c-3.3-3.8-6.5-7.3-9.2-10.7c-2.4-3-4.6-6.1-6.5-9.5c-1.3-2.2-2.4-4.6-3.3-7c-0.3-0.9-0.5-1.5-0.7-2c-0.1-0.2-0.1-0.5-0.2-0.7
		c0.1,0,0.4,0.9,1,2.6c1,2.4,2.1,4.7,3.5,6.9c2,3.3,4.2,6.4,6.6,9.3c2.7,3.4,5.9,6.9,9.2,10.6c6.6,7.5,11.8,15,14.6,20.9
		c1.2,2.3,2,4.8,2.6,7.3c0.2,0.7,0.3,1.4,0.4,2.1C87.5,400.3,87.5,400.5,87.5,400.8z"/>
	<path class="st4" d="M120.2,363.8c-0.5,0.4-1.1,0.7-1.7,1c-1.6,0.9-3,1.9-4.4,2.9c-2.1,1.6-4,3.4-5.8,5.3c-2,2.2-4.2,4.7-6.3,7.4
		c-4.3,5.4-8.3,10.2-10.8,14c-1.2,1.9-2.1,3.5-2.7,4.6c-0.3,0.6-0.6,1.2-0.9,1.7c0-0.2,0.1-0.3,0.2-0.5c0.1-0.3,0.3-0.8,0.6-1.4
		c0.8-1.6,1.6-3.2,2.6-4.7c2.3-3.9,6.3-8.8,10.6-14.1c2.2-2.7,4.3-5.2,6.4-7.4c1.8-1.9,3.9-3.7,6-5.3c1.4-1.1,3-2,4.6-2.8
		c0.6-0.3,1-0.5,1.3-0.6C119.9,363.9,120.1,363.9,120.2,363.8z"/>
	<path class="st4" d="M120.9,375.8c-1.2,0.3-2.4,0.4-3.6,0.5c-2.9,0.3-5.8,0.9-8.6,1.7c-2.8,0.9-5.4,2.2-7.7,4
		c-1.8,1.4-2.6,2.5-2.7,2.4c0.1-0.3,0.3-0.6,0.5-0.8c0.6-0.7,1.2-1.4,1.9-1.9c2.3-1.9,4.9-3.4,7.8-4.3c2.8-0.8,5.8-1.4,8.7-1.5
		C118.4,375.7,119.7,375.7,120.9,375.8z"/>
	<path class="st4" d="M99.3,383.2c-0.2-0.1,1.4-2.6,2.7-6s1.5-6.4,1.7-6.3c0.1,0.6,0.1,1.3-0.1,1.9c-0.2,1.6-0.5,3.1-1.1,4.6
		c-0.5,1.5-1.3,2.9-2.1,4.2C100.2,382.2,99.8,382.7,99.3,383.2z"/>
	<path class="st4" d="M130.8,331.7c-0.2,0.1-0.4,0.2-0.6,0.3l-1.7,0.8c-0.8,0.3-1.7,0.7-2.7,1.3s-2.2,1.1-3.5,1.8l-2,1.1
		c-0.7,0.4-1.4,0.9-2.1,1.3c-1.5,0.9-2.9,2-4.5,3.1c-6.7,5-12.5,11-17.2,17.8c-1.1,1.6-2.1,3.1-2.9,4.6c-0.4,0.7-0.9,1.4-1.2,2.1
		s-0.7,1.4-1,2c-0.7,1.3-1.2,2.5-1.7,3.5s-0.9,2-1.2,2.7l-0.7,1.7c-0.1,0.2-0.2,0.4-0.3,0.6c0-0.2,0.1-0.4,0.2-0.6l0.6-1.8
		c0.3-0.8,0.6-1.7,1.1-2.8s1-2.3,1.6-3.6l1-2c0.4-0.7,0.8-1.4,1.2-2.2c0.8-1.5,1.8-3,2.9-4.6c2.4-3.4,5-6.7,7.9-9.7
		c2.9-3,6.1-5.7,9.4-8.2c1.6-1.1,3.1-2.2,4.5-3.1c0.7-0.4,1.4-0.9,2.1-1.3l2-1.1c1.3-0.7,2.5-1.2,3.5-1.8s2-0.9,2.7-1.2l1.8-0.7
		C130.4,331.8,130.6,331.7,130.8,331.7z"/>
	<path class="st4" d="M105,349c0.2-0.8,0.7-1.6,1.4-2.1c1.6-1.4,3.6-2.2,5.7-2.2c2.1,0,4.1,0.4,6,1.2c0.8,0.3,1.6,0.6,2.3,1.1
		c-0.8-0.2-1.6-0.4-2.4-0.7c-1.9-0.7-3.9-1-5.9-1c-2,0-3.9,0.7-5.5,1.9C106.1,347.7,105.5,348.4,105,349z"/>
	<path class="st4" d="M101.1,353c-0.2-0.1,1.3-2.2,1.6-5.3s-0.5-5.5-0.4-5.5c0.3,0.5,0.6,1,0.7,1.5c0.3,1.3,0.4,2.7,0.3,4.1
		c-0.2,1.4-0.6,2.7-1.2,3.9C101.6,352.6,101.1,353,101.1,353z"/>
	<path class="st4" d="M58.9,406.7c0.9,15.8,5.7,31.9,13,48.2h31.9c7-16.1,11.4-32.2,12.2-48.2H58.9z"/>
	<path class="st5" d="M110.9,432.3c0,0.2-10.5,0.3-23.5,0.3S64,432.5,64,432.3s10.5-0.3,23.4-0.3S110.9,432.1,110.9,432.3z"/>
	<path class="st5" d="M110.2,438c0,0.2-9.8,0.3-22,0.3s-22-0.1-22-0.3s9.8-0.3,22-0.3S110.2,437.9,110.2,438z"/>
</g>
<g id="freepik--Floor--inject-80">
	<path class="st4" d="M474.7,454.9c0,0.1-101.1,0.3-225.7,0.3S23.3,455,23.3,454.9s101-0.3,225.7-0.3S474.7,454.7,474.7,454.9z"/>
</g>
<g id="freepik--Chair--inject-80">
	<rect x="388.3" y="342.3" class="st6" width="5.5" height="113.1"/>
	<rect x="298.3" y="342.3" class="st6" width="5.5" height="113.1"/>
	<rect x="299.8" y="369.2" class="st6" width="92.7" height="5.1"/>
	<path class="st6" d="M393.1,350.2H287.1c0-7.8,6.3-14.1,14.1-14.1h101.5v4.6C402.6,345.9,398.4,350.2,393.1,350.2z"/>
	<path class="st6" d="M345.5,198.1h44.4c7.1,0,12.8,5.7,12.8,12.8v128.6l0,0h-69.9l0,0V210.9C332.7,203.8,338.4,198.1,345.5,198.1z"
		/>
	<path class="st4" d="M393.9,198.1c0,0,0,0.2,0,0.5s0,0.9,0,1.6c0,1.4,0,3.4,0,6c0,5.3,0,12.8,0.1,22.2c0,18.7,0,44.5,0.1,73.1
		c0,12.5,0,24.5,0,35.5v0.2h-0.2L345,337l-14,0h-3.7h-1c-0.1,0-0.2,0-0.3,0h0.3h1h3.7l14-0.1l48.9-0.1l-0.2,0.2
		c0-10.9,0-22.9,0-35.5c0-28.5,0.1-54.4,0.1-73.1c0-9.3,0.1-16.9,0.1-22.2c0-2.6,0-4.6,0-6c0-0.7,0-1.2,0-1.6
		S393.9,198.1,393.9,198.1z"/>
	<path class="st4" d="M398.6,348.4c0-0.7,0.2-1.5,0.4-2.1c0.2-0.7,0.4-1.5,0.5-2.3c0.1-0.9-0.1-1.8-0.6-2.6c-1-1.4-2.2-2.6-3.7-3.5
		c-1.1-0.7-1.9-1-1.9-1c0.7,0.1,1.4,0.3,2.1,0.7c1.6,0.8,3,2,4,3.5c0.3,0.4,0.5,0.9,0.6,1.5c0.1,0.5,0.1,1,0,1.5
		c-0.1,0.8-0.3,1.6-0.6,2.3C399.2,347.1,399,347.8,398.6,348.4z"/>
</g>
<g id="freepik--Character--inject-80">
	<path class="st3" d="M205.8,404.5l7.5,30c0,0-27.9,17.7-27.1,23.3l58.6-12.4l-9.7-47.2L205.8,404.5z"/>
	<g class="st7">
		<path class="st8" d="M230.9,428c1.2,0.1,2.2,1.1,2.2,2.4c-0.1,1.2-1.1,2.2-2.3,2.2c-1.3-0.1-2.3-1.2-2.4-2.5
			c0.2-1.3,1.4-2.2,2.7-2.1"/>
	</g>
	<g class="st7">
		<path class="st8" d="M244.8,445.3l-1.2-4.7l-55.8,13.7c0,0-2.4,1.7-1.7,3.5L244.8,445.3z"/>
	</g>
	<path class="st4" d="M212.3,434.3c0.1,0.3,1.5,0.1,3.1,0.7s2.6,1.7,2.8,1.5s-0.5-1.7-2.5-2.5S212.2,434.1,212.3,434.3z"/>
	<path class="st4" d="M206.7,438.2c0,0.3,1.3,0.5,2.6,1.5s1.8,2.2,2.1,2.1s0.1-1.7-1.4-3S206.6,437.9,206.7,438.2z"/>
	<path class="st4" d="M204.7,446.2c0.3,0,0.4-1.5-0.7-2.9s-2.5-1.8-2.6-1.5s0.9,0.9,1.8,2.1S204.4,446.3,204.7,446.2z"/>
	<path class="st4" d="M211.3,427.3c0.2,0.2,1.4-0.4,3-0.7s3,0,3.1-0.3s-1.3-1-3.3-0.7S211.1,427.1,211.3,427.3z"/>
	<g class="st9">
		<polygon points="207.2,409.8 208.6,415.7 237.4,409.4 236.1,403.1 		"/>
	</g>
	<path class="st4" d="M209.9,421.2c0,0.1,1.2,0.1,2.9-0.6c1-0.4,2-1,2.9-1.6c0.5-0.4,1-0.8,1.5-1.2c0.3-0.3,0.5-0.5,0.7-0.9
		c0.3-0.5,0.2-1.1-0.2-1.5c-0.4-0.3-0.9-0.5-1.4-0.4c-0.4,0.1-0.7,0.2-1.1,0.4c-0.6,0.3-1.2,0.6-1.7,1c-0.9,0.7-1.7,1.4-2.3,2.4
		c-1.1,1.5-1.3,2.7-1.2,2.8s0.6-1,1.8-2.3c0.7-0.8,1.5-1.4,2.3-2c0.5-0.3,1-0.6,1.6-0.9c0.6-0.3,1.1-0.4,1.3-0.2
		c0.1,0.1,0.1,0.1,0,0.3c-0.2,0.2-0.3,0.5-0.6,0.6c-0.4,0.4-0.9,0.8-1.4,1.2c-0.8,0.6-1.7,1.2-2.6,1.7
		C211.6,420.3,210.8,420.7,209.9,421.2z"/>
	<path class="st4" d="M210.4,421.6c0.1,0,0.5-1.1,0.2-3c-0.2-1.1-0.5-2.2-1.1-3.1c-0.3-0.6-0.7-1.1-1.1-1.6
		c-0.5-0.7-1.3-1.1-2.2-1.1c-0.5,0.1-0.9,0.6-1,1.1c-0.1,0.4-0.1,0.8-0.1,1.1c0,0.7,0.2,1.4,0.4,2c0.4,1.1,1,2,1.9,2.8
		c1.5,1.3,2.7,1.4,2.7,1.3s-1-0.5-2.2-1.8c-0.7-0.7-1.2-1.6-1.5-2.6c-0.2-0.6-0.3-1.1-0.3-1.7c0-0.6,0.1-1.2,0.3-1.2
		s0.9,0.3,1.2,0.8c0.4,0.4,0.8,0.9,1.1,1.4c0.5,0.9,0.9,1.8,1.2,2.8C210.3,420.4,210.2,421.5,210.4,421.6z"/>
	<path class="st3" d="M277.6,407.5l1.4,41.6l-8.4,33.2c-0.6,2.3,0.8,4.6,3.1,5.2c0.1,0,0.2,0,0.3,0.1l0,0c1.4,0.2,2.7-0.2,3.7-1.1
		c6.3-6.1,29.3-28.9,29-32c-0.3-3.5,1.5-44,1.5-44L277.6,407.5z"/>
	<g class="st7">
		<path class="st8" d="M274,487.5l32.7-35.9v1.8c0,1.5-0.5,3-1.5,4.2c-2.6,3.1-10,11.6-27.4,28.8C276.8,487.4,275.4,487.8,274,487.5
			L274,487.5z"/>
	</g>
	<g class="st7">
		<path class="st8" d="M298,438.3c-1.1,0.8-1.3,2.2-0.7,3.4c0.8,1.1,2.2,1.4,3.3,0.7c1.1-0.8,1.4-2.4,0.7-3.6
			c-0.8-1-2.7-1.3-3.6-0.3"/>
	</g>
	<path class="st4" d="M283.3,469.2c-0.2,0.1-1.2-2-3.7-3.2s-4.7-0.6-4.8-0.9s0.5-0.4,1.5-0.6c2.6-0.3,5.2,0.9,6.6,3.1
		C283.3,468.6,283.4,469.2,283.3,469.2z"/>
	<path class="st4" d="M280.4,474.8c-0.2,0.2-1.5-1.1-3.7-1.8s-4-0.2-4.1-0.5s1.9-1.1,4.3-0.4S280.6,474.7,280.4,474.8z"/>
	<path class="st4" d="M288.7,462c-0.2,0.2-2.3-1.9-5.5-3.1s-6.2-1.1-6.2-1.4s3-0.8,6.5,0.5S288.9,461.9,288.7,462z"/>
	<path class="st4" d="M289.4,449.4c-0.1,0.2-2.4-0.7-5.4-0.8s-5.4,0.7-5.4,0.4s2.3-1.4,5.5-1.3S289.5,449.2,289.4,449.4z"/>
	<path class="st4" d="M289.3,437.1c-0.1,0.2-2.5-1.1-5.6-0.9s-5.4,1.7-5.5,1.4s0.4-0.6,1.3-1.2c1.3-0.7,2.7-1.1,4.1-1.2
		c1.4-0.1,2.9,0.2,4.2,0.8C288.8,436.6,289.3,437.1,289.3,437.1z"/>
	<path class="st4" d="M283.7,433.9c-0.1-0.5-0.2-1-0.1-1.6c0.1-1.4,0.5-2.9,1.2-4.1c0.4-1,1.1-1.8,2.1-2.3c0.7-0.3,1.4-0.2,1.9,0.4
		c0.5,0.5,0.7,1.2,0.7,1.9c-0.2,2.9-2.3,5.3-5.2,5.6c-2.8,0.3-5.5-1.1-6.9-3.6c-0.3-0.6-0.4-1.3-0.1-2c0.3-0.6,1-1,1.8-0.9
		c1,0.2,2,0.7,2.8,1.4c1.1,0.9,2.1,2,2.9,3.2c0.3,0.4,0.5,0.9,0.6,1.4c-1.1-1.6-2.4-2.9-3.9-4.1c-0.7-0.6-1.5-1-2.4-1.1
		c-0.4-0.1-0.8,0.1-1,0.5c-0.1,0.4-0.1,0.9,0.2,1.3c1.2,2.1,3.6,3.3,6,3c2.4-0.3,4.3-2.3,4.5-4.7c0-0.5-0.1-1-0.4-1.3
		c-0.3-0.3-0.7-0.4-1.1-0.2c-0.8,0.4-1.4,1.1-1.8,2C284.5,430.2,284,432,283.7,433.9z"/>
	<path class="st4" d="M281.8,284.4c-2.5,0.4-71.8-7.5-85.8-5.7c-14.4,1.9-21.3,18.3-20.7,27.4c1,14.6,24.7,105.2,24.7,105.2l38-7
		l-12.9-81c0,0,38.3,12.8,48,12.4s20.4-22.2,20.4-22.2L281.8,284.4z"/>
	<path class="st4" d="M294,286.7c0,0-12.3-4.9-22.3,10.8c-5.5,8.5-3.8,23.2-3.8,23.2l5.7,101.8l38.4,1.8l1.8-88.7
		c0,0,1.3,2.5,7.7,2.5s27.2,2.4,33.3-8.3s5.5-27,5.5-27l4-16.2l-52-9.8L294,286.7z"/>
	<path class="st6" d="M295.6,287.7c-1.2-0.5-2.5-0.9-3.8-1.1c-3.5-0.5-7.1,0.1-10.3,1.7c-4.1,1.9-7.9,6-10.3,11.5
		c-1.2,2.9-2.1,5.9-2.5,9c-0.5,3.3-0.7,6.7-0.6,10c0,3.4,0.2,6.8,0.4,10.1s0.3,6.4,0.4,9.4c0.2,6,0.5,11.4,0.7,15.9
		s0.3,8.1,0.4,10.7c0,1.2,0.1,2.2,0.1,2.9v0.8c0,0.1,0,0.2,0,0.3c0-0.1,0-0.2,0-0.2c0-0.2,0-0.5-0.1-0.8c0-0.7-0.1-1.7-0.2-2.9
		c-0.1-2.6-0.3-6.2-0.6-10.7s-0.5-9.9-0.8-15.9c-0.1-3-0.3-6.1-0.4-9.4s-0.3-6.6-0.4-10.1c-0.1-3.4,0.1-6.7,0.6-10.1
		c0.4-3.1,1.3-6.2,2.6-9.1c2.4-5.5,6.4-9.7,10.5-11.6c3.2-1.6,6.9-2.2,10.5-1.6c1,0.2,1.9,0.5,2.8,0.8l0.7,0.3
		C295.5,287.6,295.6,287.7,295.6,287.7z"/>
	<path class="st6" d="M313.7,319c0.1,0.5,0.1,1,0.1,1.6c0,1,0.1,2.4,0.1,4.2c0,3.6,0,8.5-0.1,14s-0.2,10.3-0.3,14
		c0,1.7,0,3.1-0.1,4.2c0,0.5,0,1-0.1,1.5c-0.1-0.5-0.1-1-0.1-1.5c0-1-0.1-2.5-0.1-4.2c0-3.6,0-8.5,0.1-14s0.2-10.3,0.3-14
		c0-1.7,0.1-3.1,0.1-4.2C313.6,320,313.6,319.5,313.7,319z"/>
	<path class="st6" d="M318.5,318.5c0.1,0.8,0.2,1.7,0.1,2.5c-0.1,2-0.5,4-1,6c-0.5,2-1.3,3.9-2.3,5.7c-0.4,0.8-0.8,1.5-1.4,2.1
		c0.3-0.8,0.6-1.6,1-2.3c0.8-1.8,1.5-3.7,2.1-5.6c0.5-1.9,0.9-3.9,1.1-5.9C318.2,320.2,318.3,319.4,318.5,318.5z"/>
	<path class="st6" d="M211.4,306.9c0.3,0,0.6,0.1,0.8,0.2c0.7,0.3,1.4,0.6,2.1,1c2.3,1.2,4.3,2.8,6,4.8c1.7,1.9,3.1,4.2,4,6.6
		c0.3,0.7,0.5,1.5,0.7,2.2c0.1,0.3,0.1,0.6,0.1,0.9c-0.1,0-0.4-1.2-1.2-2.9c-2-4.7-5.5-8.6-9.9-11.2
		C212.5,307.5,211.3,307,211.4,306.9z"/>
	<path class="st6" d="M217.3,300.1c0,0,0.3,0.2,0.7,0.7c0.6,0.7,1.1,1.4,1.6,2.1c3.3,4.8,5.4,10.3,6.1,16.1c0.1,0.9,0.2,1.7,0.2,2.6
		c0,0.3,0,0.7-0.1,1c-0.1,0-0.2-1.4-0.5-3.5c-0.9-5.7-2.9-11.1-6-15.9C218.1,301.2,217.2,300.1,217.3,300.1z"/>
	<path class="st4" d="M283.1,169.6l-10.3,122.1c5.1-2.3,10.7-5,13.3-5.3c2.6-0.5,5.3-0.3,7.8,0.4l12.5-3.1l55.2,3.6l-33.2-128.5
		l-12.5-6.1L283.1,169.6z"/>
	<path class="st3" d="M318.3,152.6l6.9,4.4c0,0,31.1,11.4,34.3,16s11.2,82.7,11.2,82.7s-0.2,47.1,0.4,49.2c0.3,1.1,4.1,1.5,3.6,5.1
		c-0.2,1.8-1.5,3.4-3.2,4.1l-13.1,5.4c0,0,1.6-21.5-9.8-28.8s-19.2-6.8-19.2-6.8l-0.5-33.5l-11.5-53.2c0,0,9.6-8.8,4.1-32.1
		C320.5,160.8,318.3,152.6,318.3,152.6z"/>
	<path class="st4" d="M362.8,298.4c-0.3-0.1-0.6-0.3-0.9-0.5c-0.8-0.4-1.6-1-2.4-1.5c-1.1-0.8-2.2-1.7-3.1-2.7
		c-1.2-1.2-2.3-2.6-3.2-4c-0.9-1.4-1.8-2.9-2.4-4.5c-0.6-1.3-1-2.6-1.3-4c-0.2-0.9-0.4-1.8-0.5-2.8c-0.1-0.3-0.1-0.7,0-1
		c0.1,0,0.3,1.4,0.9,3.7c0.4,1.3,0.9,2.6,1.4,3.9c0.7,1.5,1.5,3,2.4,4.4c0.9,1.4,2,2.7,3.1,3.9c0.9,1,1.9,1.9,3,2.8
		C361.6,297.6,362.9,298.3,362.8,298.4z"/>
	<g class="st9">
		<path d="M340.4,286.6l-0.1-4.9c3.2,0.4,6.4-0.3,9.2-1.8c0.8,4.1,2.4,8,4.8,11.4c0.5,0.9,1.3,1.6,2.2,2.1c0.9,0.5,2.1,0.2,2.7-0.7
			c0.5-0.9,0.1-2.1-0.4-3c-1-1.6-1.8-3.4-2.4-5.2c-0.6-1.9-0.2-3.9,1-5.4c1.4-1.3,3.1-2,5-2c1.8,0,3.6-0.2,5.4-0.7
			c1.7-0.6,3.3-2.2,3.2-4l-34.9,6.5v5.9L340.4,286.6z"/>
	</g>
	<polygon class="st3" points="286.5,167.8 286,166.2 283.9,165.8 259.2,177.9 237.4,224.1 266.9,229.3 272.7,212.9 293.2,218.2 
		287.7,197.7 	"/>
	<path class="st3" d="M356.8,171.4c0,0-10.3,16.7-9.7,29.6s1.1,31.1,1.1,31.1l35.6-12.6C383.7,219.5,365.3,172.3,356.8,171.4z"/>
	<path class="st10" d="M308.2,269.5l50.7-19.8l-6.4-19.3l25.1-8.8c0,0,10.1,25.8,10,34.6c-0.1,10.2-11.4,15.7-11.4,15.7l-63.7,11.8
		L308.2,269.5z"/>
	<path class="st1" d="M302.6,290.7c0.4,0.9,0.3,2-0.3,2.9c-0.5,0.6-1.2,1.1-1.3,1.8c-0.2,0.9,0.6,1.8,1.4,2.3
		c0.7,0.6,1.6,0.8,2.4,0.5c0.7-0.4,1.1-1.1,1.2-1.9c0-0.8,0.1-1.6,0.3-2.4c0.2-0.8,0.9-1.3,1.7-1.3"/>
	<path class="st1" d="M309.4,294.5c0.4,0.9,0.3,2-0.3,2.9c-0.5,0.6-1.2,1.1-1.3,1.8c-0.2,0.9,0.6,1.8,1.4,2.3
		c0.7,0.6,1.6,0.8,2.4,0.5c0.7-0.4,1.1-1.1,1.2-1.9c0-0.8,0.1-1.6,0.3-2.4c0.2-0.8,0.9-1.3,1.7-1.3"/>
	<path class="st1" d="M316.4,298.2c0.2,1-0.2,2.1-1,2.7c-0.6,0.5-1.4,0.8-1.7,1.5c-0.2,0.9,0.1,1.9,0.8,2.5c0.5,0.7,1.4,1.1,2.3,1
		c0.8-0.2,1.4-0.9,1.6-1.6c0.2-0.8,0.5-1.5,0.8-2.2c0.4-0.7,1.2-1.1,2-0.9"/>
	<path class="st4" d="M383.7,219.5c-0.2,0.1-0.4,0.2-0.6,0.3l-1.9,0.7c-1.7,0.6-4,1.5-7,2.6l-24.4,8.8l-0.2,0.1l-0.1-0.2l-1.5-4.3
		l-0.8-2.2c-0.3-0.7-0.6-1.5-0.9-2.2c-1.2-3-2.4-6-3.6-9.2c-1.3-3.6-2.5-7.1-3.7-10.5c-1.2-3.3-2.1-6.7-2.5-10.1
		c-0.1-3.2,0.5-6.3,1.9-9.2c1-2.5,2.3-5,3.9-7.2c1.2-1.9,3-3.4,5.1-4.4c1.6-0.6,3.3-0.9,5-1c1.4-0.1,2.5,0,3.2,0h0.8
		c0.1,0,0.2,0,0.3,0c-0.1,0-0.2,0-0.3,0h-0.8c-0.7,0-1.8,0-3.2,0.1c-1.7,0.1-3.3,0.4-4.9,1c-2,0.9-3.8,2.4-4.9,4.3
		c-1.5,2.3-2.8,4.7-3.8,7.2c-1.3,2.8-1.9,5.9-1.8,9c0.4,3.4,1.2,6.8,2.5,10c1.1,3.4,2.4,6.9,3.7,10.5c1.2,3.2,2.4,6.3,3.6,9.2
		c0.3,0.7,0.6,1.5,0.9,2.2s0.5,1.5,0.8,2.2l1.5,4.3l-0.3-0.1l24.5-8.6l7-2.4l1.9-0.6C383.2,219.5,383.4,219.5,383.7,219.5z"/>
	<path class="st4" d="M326,157.4c0.1,0.2,0.2,0.4,0.3,0.6c0.2,0.4,0.4,1,0.7,1.6c0.8,2,1.4,4.1,2,6.3c0.8,3.2,1.3,6.4,1.6,9.6
		c0.4,4,0.4,7.9,0,11.9c-0.3,3.4-0.9,6.7-1.7,10c-0.7,2.8-1.6,5.5-2.7,8.2l-0.1,0.3l-0.2-0.2l-6-6.1l-1.6-1.7
		c-0.2-0.2-0.4-0.4-0.5-0.6c0.2,0.2,0.4,0.3,0.6,0.5l1.7,1.6l6.1,6l-0.3,0.1c3.7-9.5,5.1-19.7,4.2-29.9c-0.3-3.2-0.8-6.4-1.5-9.5
		c-0.6-2.7-1.3-4.8-1.8-6.3c-0.2-0.7-0.4-1.2-0.6-1.7C326.1,157.8,326,157.6,326,157.4z"/>
	<path class="st4" d="M283.9,165.8c0,0.2,0,0.3,0,0.5l-0.1,1.4c-0.1,1.2-0.3,3-0.4,5.2c-0.3,4.4-0.5,10.6-0.3,17.4
		c0.1,5.8,0.5,11.2,0.8,15.3l-0.4-0.1l2.7-6.2c0.3-0.7,0.6-1.2,0.8-1.7c0.1-0.2,0.2-0.4,0.3-0.6c0,0.2-0.1,0.4-0.2,0.6
		c-0.2,0.5-0.4,1-0.7,1.7l-2.5,6.2l-0.3,0.8l-0.1-0.8c-0.4-4.1-0.8-9.5-0.9-15.4c-0.2-5.8,0-11.6,0.5-17.4c0.2-2.2,0.4-4,0.6-5.2
		c0.1-0.6,0.2-1,0.2-1.4C283.8,166.1,283.8,165.9,283.9,165.8z"/>
	<path class="st4" d="M337.7,231.6c0.1,0.3,0.2,0.7,0.3,1c0.2,0.7,0.4,1.6,0.5,2.9c0.5,3.2,0.6,6.4,0.5,9.7
		c-0.2,3.2-0.7,6.4-1.5,9.6c-0.3,1.2-0.6,2.2-0.8,2.8c-0.1,0.3-0.2,0.7-0.4,1c-0.1,0,0.3-1.5,0.9-3.9c0.7-3.1,1.1-6.3,1.3-9.5
		c0.2-3.2,0.1-6.4-0.3-9.6C337.9,233.2,337.7,231.7,337.7,231.6z"/>
	<path class="st4" d="M345.2,244.3c-0.3,1.7-0.8,3.4-1.4,5c-0.5,1.7-1.1,3.3-1.9,4.8c0.3-1.7,0.8-3.4,1.4-5
		C343.8,247.5,344.5,245.8,345.2,244.3z"/>
	<g class="st9">
		<path d="M275.3,215.1c1.3-3.9,1.3-8.1,0.1-12c-0.3-0.9-0.5-2.1,0.3-2.6c0.6-0.3,1.3-0.1,1.6,0.4c0.4,0.5,0.6,1.1,0.6,1.7
			c0.5,2.5,0.6,5.1,0.3,7.7c-0.2-0.7,0.8-1.3,1.5-1.1c0.7,0.3,1.2,0.9,1.4,1.6c0.2,0.7,0.4,1.4,0.6,2.1c0.8,1.8,3,2.4,4.9,2.7
			s4,0.6,5.2,2.1l-14.1-3.8c-0.5-0.2-1.1-0.2-1.7-0.1c-0.6,0.1-1,0.7-0.9,1.3"/>
	</g>
	<g class="st9">
		<path d="M283.7,205.3c0,1,0.3,2,0.9,2.8c1.1-1.8,2.1-3.6,2.9-5.5c0.5,1.7,1.3,3.3,2.5,4.6c-0.3-3.2-1-6.3-2-9.4
			c-0.1-0.2-0.2-0.4-0.3-0.3s-0.2,0.1-0.2,0.2l-3.7,7.4"/>
	</g>
	<g class="st9">
		<path d="M317.2,198.2c2.1,5.3,5.5,10,9.8,13.8c2.6-4.7,4-9.9,4.4-15.3c0.3-5.3,0.2-10.7-0.2-16c-0.6,8.4-2.4,16.7-5.3,24.6
			l-8.5-8.1"/>
	</g>
	<g class="st9">
		<path d="M336.3,258.6c2.3-5.8,3.5-12,3.6-18.3c0-1.1,0.1-2.5,1.2-3c0.9-0.3,1.9,0,2.5,0.8c1.2,1.5,1.2,3.6,1,5.5
			c-0.6,4.7-2.1,9.2-4.4,13.3C340.2,257,336,258.6,336.3,258.6"/>
	</g>
	<g class="st9">
		<path d="M338.8,202.2c3,9.6,5.5,19.4,7.4,29.2c0.4,2.2,0.9,4.5,2.4,6.1s4.8,1.7,6.1-0.1l-2.3-6.9c-0.7,0.2-2.2,0.7-2.9,0.9
			l-10.6-30"/>
	</g>
	<path class="st5" d="M344.7,196.9c0-1.5,0.3-3,0.6-4.4c0.2-1.5,0.6-2.9,1.1-4.3c0,1.5-0.2,3-0.6,4.4
		C345.6,194.1,345.2,195.5,344.7,196.9z"/>
	<path class="st5" d="M355,210.2c-1.4-0.7-2.7-1.5-3.9-2.5c-1.3-0.8-2.5-1.8-3.6-2.9c1.4,0.7,2.7,1.5,3.9,2.5
		C352.7,208.1,353.9,209.1,355,210.2z"/>
	<path class="st5" d="M360.2,197.2c-0.2-1.7-0.1-3.4,0.3-5c0.2-1.7,0.7-3.3,1.5-4.8c0.1,0.1-0.5,2.2-1,4.9S360.4,197.2,360.2,197.2z
		"/>
	<path class="st5" d="M367.5,213.1c0.3-1.4,0.7-2.8,1.4-4.1c0.5-1.3,1.1-2.6,1.9-3.8C370,208,368.9,210.7,367.5,213.1z"/>
	<path class="st5" d="M358.6,222.6c-2.6-0.9-5-2.2-7.2-3.7c1.3,0.4,2.6,0.9,3.8,1.6C356.4,221.1,357.5,221.8,358.6,222.6z"/>
	<path class="st5" d="M357.8,179c-1.2,0-2.3-0.3-3.4-0.7c-1.1-0.3-2.2-0.8-3.2-1.5c1.1,0.2,2.3,0.6,3.3,1
		C355.7,178,356.8,178.5,357.8,179z"/>
	<path class="st5" d="M335.3,174.2c0.9-2,2.1-3.9,3.5-5.6C337.9,170.6,336.8,172.5,335.3,174.2z"/>
	<path class="st5" d="M325.8,171.3c-0.1,0.1-0.8-0.9-1.4-2.1c-0.5-0.7-0.8-1.5-1-2.4c0.1-0.1,0.8,0.9,1.4,2.1
		C325.3,169.6,325.6,170.4,325.8,171.3z"/>
	<path class="st5" d="M326.9,190.1c-0.6,0.9-1.3,1.6-2.1,2.3c-0.7,0.8-1.5,1.4-2.4,1.9C323.7,192.7,325.2,191.2,326.9,190.1
		L326.9,190.1z"/>
	<path class="st5" d="M328.2,217.6c-2.4-1.3-4.4-3.2-5.8-5.6c1,0.9,2,1.9,2.9,2.9C326.9,216.4,328.3,217.5,328.2,217.6z"/>
	<path class="st5" d="M335.1,216.2c0.5-2.8,1.3-5.5,2.4-8.1C337,210.9,336.2,213.6,335.1,216.2z"/>
	<path class="st5" d="M331.9,235c-0.8-1-1.4-2.1-2-3.2c-0.7-1-1.3-2.1-1.9-3.3C329.8,230.4,331.1,232.6,331.9,235z"/>
	<path class="st5" d="M342.5,230.5c-0.5-1.3-0.9-2.7-1.2-4.1c-0.5-1.3-0.8-2.7-1.1-4.1c0.8,1.2,1.3,2.6,1.6,4
		C342.3,227.7,342.6,229.1,342.5,230.5z"/>
	<path class="st5" d="M337.4,251c-1.9-0.3-3.7-1-5.3-2c1,0.1,1.9,0.4,2.7,0.8C335.7,250,336.6,250.4,337.4,251z"/>
	<path class="st5" d="M354.4,249.5c-2.2,0.4-4.4,0.5-6.6,0.3c1.1-0.3,2.2-0.5,3.3-0.4C352.2,249.3,353.3,249.3,354.4,249.5z"/>
	<path class="st5" d="M361.2,287.2c0.2-1.1,0.6-2.2,1.1-3.2c0.4-1.1,0.9-2.1,1.6-3c-0.2,1.1-0.6,2.2-1.1,3.2
		C362.4,285.3,361.9,286.3,361.2,287.2z"/>
	<path class="st5" d="M348.8,287.5c-2.3-0.9-4.3-2.6-5.5-4.8c0.1-0.1,1.1,1.2,2.6,2.5S348.9,287.4,348.8,287.5z"/>
	<path class="st5" d="M364.9,300.5c-0.4,1.5-1.2,2.9-2.3,4.1c-0.9,1.3-2.1,2.3-3.5,3.1c-0.1-0.1,1.5-1.5,3.1-3.5
		S364.8,300.5,364.9,300.5z"/>
	<path class="st5" d="M369.4,313.5c-0.9-0.5-1.6-1.1-2.3-1.9c-0.8-0.6-1.4-1.4-1.9-2.3c0.9,0.5,1.6,1.1,2.3,1.9
		C368.2,311.9,368.8,312.6,369.4,313.5z"/>
	<path class="st5" d="M269.4,185.3c-1.5,0.7-3.2,1-4.8,1.1c-1.7,0.2-3.4,0.1-5-0.2c0-0.1,2.2,0,4.9-0.3S269.4,185.1,269.4,185.3z"/>
	<path class="st5" d="M275,184.6c0-1.6,0.1-3.2,0.4-4.8c0.1-1.6,0.5-3.2,0.9-4.7c0,1.6-0.1,3.2-0.4,4.8
		C275.8,181.5,275.5,183.1,275,184.6z"/>
	<path class="st5" d="M281.1,200.9c-2.1-1.7-3.6-4.1-4.2-6.7c0.1-0.1,0.8,1.6,2,3.4S281.2,200.8,281.1,200.9z"/>
	<path class="st5" d="M289.1,212.2c0.1,0.1-0.8,0.8-2,1.2c-0.7,0.3-1.5,0.4-2.3,0.3c0.7-0.4,1.4-0.6,2.2-0.8
		C287.6,212.5,288.3,212.3,289.1,212.2z"/>
	<path class="st5" d="M285.4,192.2c-0.2-0.9-0.3-1.8-0.1-2.7c0-0.9,0.1-1.8,0.4-2.6C285.9,188.7,285.8,190.5,285.4,192.2
		L285.4,192.2z"/>
	<path class="st6" d="M228.4,237.1c0,0,8.7-25.5,23.7-23.1c7.2,1.2,14.6,0.7,21.6-1.3l19.7,5c0,0,6.6,8.3,5.1,16.5
		c-1.3,7.1-4.3,19.7-7.9,24c-1.4,1.7-13.5,12.9-14.5,22.5c-1.3,13-4,17.1-9.6,17.1l-22.1-5.6c0,0-14.6-4.9-19.2-17.3
		C220,261,227.4,238.9,228.4,237.1z"/>
	<path class="st4" d="M294.2,218.2c-0.1,0-0.2,0-0.3-0.1l-0.9-0.2l-3.4-0.9l-12.3-3.3l0.2-0.2c1.3,5.3,1.7,10.9,1.1,16.3
		c-0.8,6.6-2.9,13-6.1,18.8c-1.8,3.2-3.9,6.1-6.2,8.9c-2.2,2.5-4.3,5.1-6.1,7.9c-0.8,1.3-1.4,2.7-1.9,4.2c-0.4,1.4-0.7,2.8-0.9,4.3
		c-0.3,2.8-0.4,5.5-0.7,7.9c-0.2,2.2-0.9,4.3-1.9,6.3c-0.8,1.5-1.9,2.8-3.3,3.7c-0.9,0.6-1.8,1.1-2.9,1.3c-0.4,0.1-0.7,0.1-1.1,0.1
		c0,0,0.4,0,1.1-0.2c1-0.3,1.9-0.7,2.8-1.3c1.3-1,2.4-2.2,3.1-3.7c1-1.9,1.6-4,1.8-6.2c0.3-2.4,0.4-5,0.6-7.9
		c0.1-1.5,0.4-2.9,0.8-4.4c0.5-1.5,1.1-3,1.9-4.3c1.8-2.8,3.9-5.5,6.1-8c2.3-2.7,4.4-5.7,6.1-8.8c3.2-5.7,5.3-12.1,6.1-18.6
		c0.6-5.4,0.3-10.9-1-16.2l-0.1-0.3l0.3,0.1l12.2,3.4l3.3,1l0.9,0.3C294,218.1,294.1,218.2,294.2,218.2z"/>
	<path class="st10" d="M300,267.2c0,0,2.2-3.6,4.9-2.9s2.3,3,1.4,4.5s-2.8,4.3-2.8,4.3l-1.5-0.6l-2-4.6"/>
	<path class="st6" d="M252.1,258.9c0.4,0.1,48.8,24.3,48.8,24.3l4-14.9l-46-25.4l-6.9,15.4"/>
	<path class="st4" d="M252.1,258.1c0-0.1,0-0.2,0.1-0.3c0.1-0.2,0.2-0.5,0.3-0.8l1.3-3c1.2-2.7,2.9-6.5,5-11.3l0.1-0.2l0.2,0.1
		l46,25.4l0.2,0.1l0,0.2l-0.1,0.3l-3.9,14.6l-0.1,0.3l-0.3-0.1L266,265.9l-10.2-5.1l-2.7-1.4l-0.7-0.4l-0.2-0.1c0.1,0,0.2,0,0.2,0.1
		l0.7,0.3l2.8,1.3l10.3,5l34.9,17.3l-0.4,0.2c1.3-4.7,2.6-9.6,3.9-14.6l0.1-0.3l0.1,0.3l-45.9-25.5l0.2-0.1l-5.1,11.3l-1.4,3
		c-0.2,0.3-0.3,0.6-0.4,0.8L252.1,258.1z"/>
	<path class="st4" d="M250.1,258.4l0.5-0.8c-0.4,1.8-0.7,4,0.8,5.2s3.6,0.3,4.9-0.9c1.9-1.8,3-4.3,4-6.7c2-4.7,4-9.6,3.7-14.7
		c-0.1-1.6-0.6-3.4-2.2-3.9c-1.7-0.6-3.4,1-4.5,2.5"/>
	<path class="st1" d="M332.4,277.1c-0.6-0.9-0.6-2-0.1-2.9c0.4-0.7,1-1.2,1.1-2c0.1-0.9-0.8-1.7-1.7-2.1c-0.7-0.5-1.7-0.5-2.5-0.2
		c-0.6,0.5-1,1.3-0.9,2.1c0.1,0.8,0.1,1.6,0,2.4c-0.1,0.8-0.7,1.5-1.5,1.6"/>
	<path class="st1" d="M325.1,274.4c-0.5-0.9-0.6-2-0.1-2.9c0.4-0.7,1-1.2,1.1-2c0.1-0.9-0.8-1.7-1.7-2.1c-0.7-0.5-1.7-0.5-2.5-0.2
		c-0.6,0.5-0.9,1.3-0.9,2.1c0.1,0.8,0.1,1.6,0,2.4c-0.1,0.8-0.7,1.5-1.5,1.6"/>
	<path class="st1" d="M317.6,271.8c-0.3-1-0.1-2.1,0.5-2.9c0.5-0.6,1.2-1,1.5-1.7c0.3-0.9-0.5-1.8-1.2-2.4c-0.6-0.6-1.5-0.9-2.4-0.7
		c-0.7,0.4-1.2,1.1-1.3,1.9c-0.1,0.8-0.2,1.6-0.5,2.3c-0.3,0.8-1,1.3-1.8,1.2"/>
	<path class="st6" d="M303.1,267.2c0,0,6.1,1.2,7.5-0.8c0,0,7.2,7.6,21.4,7.2l4,1.2c0,0,1.5,15,0,18.4s-11.4,12.8-11.4,12.8
		l-3.6-1.7c0,0-3.5-5.8-8.8-8.5s-11.2-5.3-11.2-5.3l-2.2-8.9L303.1,267.2"/>
	<path class="st4" d="M332,273.7c0.1,0.4,0.1,0.9,0.1,1.4c0,0.9,0.1,2.2,0.1,3.7c0,3.1,0.1,7.5-0.2,12.3c0,0.6-0.2,1.2-0.5,1.8
		c-0.3,0.5-0.6,1-0.9,1.5c-0.7,0.9-1.4,1.8-2,2.6c-1.4,1.6-2.7,2.9-3.8,4s-2.1,2-2.7,2.6c-0.3,0.3-0.7,0.6-1.1,0.9
		c0.3-0.4,0.6-0.7,0.9-1l2.6-2.7c1.1-1.1,2.4-2.5,3.7-4.1c0.7-0.8,1.4-1.6,2-2.5c0.3-0.5,0.6-0.9,0.9-1.5c0.3-0.5,0.4-1.1,0.4-1.6
		c0.3-4.8,0.2-9.1,0.3-12.3c0-1.5,0.1-2.8,0.1-3.7C331.9,274.6,331.9,274.1,332,273.7z"/>
	<path class="st0" d="M327,282.2c-0.1,0.1-14.4-7.4-32-16.9s-31.8-17.2-31.7-17.3s14.4,7.4,32,16.9
		C312.9,274.4,327.1,282.1,327,282.2z"/>
	<path class="st0" d="M325.8,284.1c-0.1,0.1-14.4-7.2-32-16.3S262,251.1,262,250.9s14.4,7.2,32,16.3S325.9,284,325.8,284.1z"/>
	<path class="st0" d="M324.7,286.6c-0.1,0.1-14.4-7.2-32-16.3s-31.8-16.7-31.7-16.8s14.4,7.2,32,16.3S324.7,286.5,324.7,286.6z"/>
	<path class="st0" d="M323.5,289.2c-0.1,0.1-14.4-7.2-32-16.3s-31.8-16.7-31.7-16.8s14.4,7.2,32,16.3S323.6,289.1,323.5,289.2z"/>
	<path class="st0" d="M322.4,291.8c-0.1,0.1-14.4-7.2-32-16.3s-31.8-16.7-31.7-16.8s14.4,7.2,32,16.3S322.5,291.7,322.4,291.8z"/>
	<path class="st10" d="M291.6,259.9c-0.5-0.1-8.3,4.1-8.3,4.1l-4.8,7.7l5.6,10.4l15.9,5.3c0,0-0.8-6.4-2.9-6.9c-1.3-0.3-2.4-1-3.4-2
		l-0.2-5.8c0,0,3-2,3.5-4.2s-1-1.6-1-1.6l-7,2.4c0,0,5.8-3.7,5.9-4.8s-1.4-2-1.4-2l-1.5-0.1C292,262.5,294.4,260.8,291.6,259.9z"/>
	<path class="st11" d="M283,274.8c-0.2-0.8-0.3-1.6-0.1-2.5c0.1-0.9,0.3-1.8,0.7-2.6c0.4-0.9,0.8-2,1.3-3c0.3-0.5,0.6-1,1-1.4
		c0.4-0.4,0.8-0.7,1.3-1c0.8-0.5,1.5-0.9,2.4-1.2c0.7-0.4,1.6-0.6,2.4-0.6c0,0.1-0.9,0.3-2.2,0.9c-0.8,0.4-1.5,0.8-2.2,1.3
		c-0.4,0.3-0.8,0.6-1.2,0.9c-0.4,0.4-0.7,0.9-0.9,1.3c-0.5,1-0.9,2-1.3,2.9c-0.4,0.8-0.7,1.6-0.8,2.5C283,273.9,283,274.8,283,274.8
		z"/>
	<path class="st11" d="M286.8,278.4c-0.2,0,0.1-2.1,0.7-4.5c0.3-1.2,0.6-2.4,0.8-3.1c0.1-0.4,0.2-0.9,0.4-1.3c0.2,0-0.1,2.1-0.7,4.6
		c-0.3,1.2-0.6,2.3-0.8,3.1C287.2,277.6,287,278,286.8,278.4z"/>
	<path class="st4" d="M290.7,235.3c0.3,0,0.5,0,0.8,0c0.7,0,1.5,0.3,2.1,0.6l0,0l0,0c-3.2,2.5-7,4.2-11,4.7c-0.7,0.1-1.3,0.1-2,0
		c-0.4-0.1-0.7-0.2-1-0.4c-0.3-0.2-0.5-0.6-0.5-1c0-0.8,0.4-1.5,1.1-1.9c0.6-0.5,1.3-0.8,1.9-1.3c2.6-1.6,5.6-3.3,9-3.6
		c1.2-0.1,2.3,0,3.4,0.3c1.1,0.3,2.1,0.9,2.8,1.8c0.7,0.9,0.7,2.2,0.1,3.1c-0.6,0.8-1.5,1.5-2.4,2c-5.1,3.1-11,4.8-16.9,4.9
		c-1.7,0-2.6-0.1-2.6-0.1s0.2,0,0.7,0s1.1,0,1.9,0c2.4-0.1,4.8-0.4,7.1-0.9c3.4-0.8,6.7-2.2,9.8-4c0.9-0.5,1.7-1.1,2.3-1.9
		c0.6-0.9,0.6-2-0.1-2.9c-0.6-0.9-1.6-1.5-2.7-1.8c-1.1-0.3-2.2-0.4-3.4-0.3c-3.4,0.3-6.4,1.9-8.9,3.6c-0.6,0.4-1.3,0.8-1.9,1.2
		c-0.6,0.4-1,1-1,1.7c0.1,0.7,0.7,1.2,1.4,1.2c0.7,0.1,1.3,0.1,2,0c4-0.5,7.8-2.1,11-4.6v0.1c-0.6-0.4-1.3-0.6-2.1-0.7
		c-0.2,0-0.4,0-0.6,0L290.7,235.3z"/>
	<path class="st4" d="M298,226.3c0,0-0.1,0-0.2,0l-0.6-0.1c-0.5,0-1.2-0.1-2.1-0.2c-2.3-0.1-4.6-0.1-6.9,0.2
		c-2.3,0.3-4.5,0.8-6.7,1.4c-0.8,0.3-1.5,0.5-2,0.7l-0.5,0.2c-0.1,0-0.2,0.1-0.2,0l0.2-0.1l0.5-0.2c0.5-0.2,1.1-0.5,2-0.7
		c4.4-1.5,9-2,13.6-1.7c0.9,0.1,1.6,0.1,2.1,0.2l0.6,0.1L298,226.3z"/>
	<path class="st4" d="M295.2,221.8c-0.2,0.1-0.4,0.1-0.6,0.1c-0.4,0.1-1,0.2-1.7,0.3c-1.9,0.3-3.8,0.3-5.7,0.3
		c-1.9-0.1-3.8-0.3-5.7-0.7c-0.7-0.2-1.3-0.3-1.7-0.4c-0.2,0-0.4-0.1-0.6-0.2c0.2,0,0.4,0.1,0.6,0.1c0.4,0.1,1,0.2,1.7,0.4
		c1.9,0.4,3.8,0.6,5.7,0.7c1.9,0.1,3.8,0,5.7-0.2c0.7-0.1,1.3-0.2,1.7-0.2C294.7,221.8,295,221.8,295.2,221.8z"/>
	<path class="st4" d="M295.8,247.2c-0.1,0.1-0.1,0.1-0.2,0.1l-0.6,0.3c-0.8,0.3-1.6,0.6-2.4,0.9c-2.7,0.9-5.4,1.4-8.2,1.6
		c-2.8,0.2-5.6,0-8.4-0.5c-0.8-0.2-1.7-0.4-2.5-0.6l-0.7-0.2l-0.2-0.1h0.2l0.7,0.2c0.6,0.1,1.4,0.3,2.5,0.5c2.8,0.5,5.6,0.6,8.3,0.4
		c2.8-0.2,5.5-0.7,8.2-1.6c1-0.3,1.8-0.6,2.4-0.8l0.6-0.2C295.6,247.2,295.7,247.2,295.8,247.2z"/>
	<path class="st4" d="M264.8,273.5c0,0,0.1,0.1,0.2,0.4c0.2,0.4,0.4,0.8,0.5,1.2c0.3,0.7,0.2,1.5-0.1,2.1c-0.2,0.4-0.6,0.7-1,0.9
		c-0.5,0.2-1.1,0.1-1.5-0.2c-0.4-0.4-0.8-0.8-1-1.4c-0.8-1.7-1.2-3.7-1.2-5.6c0-0.7,0.1-1.5,0.3-2.1c0.1-0.4,0.4-0.7,0.8-0.9
		c0.4-0.2,0.8-0.2,1.2,0c0.7,0.4,1.3,0.9,1.7,1.6c0.5,0.7,0.8,1.4,1.2,2.1c1.2,2.8,1.2,6.1,0,8.9c-0.2,0.7-0.6,1.2-1.1,1.7
		c-0.5,0.5-1.2,0.6-1.9,0.5c-1.1-0.5-2-1.3-2.6-2.3c-0.9-1.4-1.5-3-1.8-4.7c-0.1-0.6-0.1-1.2,0-1.8c0,0,0,0.2,0,0.5
		c0,0.5,0.1,0.9,0.1,1.4c0.2,1.6,0.9,3.2,1.8,4.6c0.6,1,1.4,1.8,2.5,2.2c0.6,0.2,1.3,0,1.7-0.4c0.5-0.5,0.8-1,1.1-1.7
		c1.2-2.8,1.2-6,0-8.8c-0.3-0.7-0.7-1.4-1.1-2.1c-0.4-0.6-0.9-1.2-1.6-1.5c-0.3-0.2-0.7-0.2-1,0c-0.3,0.2-0.5,0.4-0.7,0.8
		c-0.2,0.7-0.3,1.4-0.3,2.1c0,1.3,0.2,2.6,0.5,3.9c0.2,0.6,0.4,1.1,0.6,1.7c0.2,0.5,0.5,0.9,0.9,1.3c0.4,0.3,0.9,0.4,1.3,0.2
		c0.4-0.2,0.7-0.5,0.9-0.9c0.3-0.6,0.4-1.3,0.1-2C265.3,274.6,265.1,274,264.8,273.5z"/>
	<path class="st4" d="M271.7,296c-0.2-1-0.6-1.9-1.1-2.8c-0.6-0.9-1.3-1.8-2.2-2.4c-1.1-0.8-2.3-1.3-3.6-1.5
		c-1.3-0.2-2.7-0.5-3.9-0.9c-1-0.5-1.9-1.2-2.6-2.1c-0.4-0.6-0.8-1.3-1-2c-0.1-0.3-0.1-0.5-0.2-0.8c0.3,1,0.7,1.9,1.3,2.7
		c0.7,0.9,1.5,1.6,2.5,2c1.3,0.4,2.6,0.7,3.9,0.9c1.3,0.2,2.6,0.8,3.7,1.6c0.9,0.7,1.6,1.5,2.2,2.5c0.4,0.6,0.7,1.3,0.8,2.1
		C271.7,295.5,271.7,295.8,271.7,296z"/>
	<path class="st4" d="M271,269.1c0,0,0,0.3,0,0.9c0,0.8,0.1,1.7,0.2,2.5c0.5,2.7,1.3,5.4,2.2,8c1,2.6,1.5,5.4,1.5,8.2
		c0,0.9-0.2,1.7-0.4,2.5c-0.1,0.3-0.2,0.6-0.3,0.9c0,0,0.1-0.3,0.2-0.9c0.2-0.8,0.3-1.7,0.3-2.5c-0.1-2.8-0.6-5.5-1.5-8.1
		c-1-2.6-1.7-5.3-2.2-8.1C270.9,271.4,270.8,270.3,271,269.1z"/>
	<path class="st4" d="M276.2,278.2c0,0-0.1-0.1-0.2-0.3s-0.3-0.5-0.4-0.8c-0.4-0.9-0.8-1.9-1-2.9c-0.2-1-0.3-2-0.3-3
		c0-0.4,0-0.7,0.1-0.9s0-0.3,0.1-0.3s0,0.5,0,1.2c0,2,0.4,4,1.2,5.9C276,277.7,276.3,278.1,276.2,278.2z"/>
	<path class="st4" d="M261.7,296.5c-0.1,0-0.3-0.1-0.4-0.1c-0.4-0.2-0.8-0.3-1.1-0.5c-1.2-0.7-2.2-1.6-3.1-2.6
		c-0.9-1.1-1.6-2.3-2-3.5c-0.1-0.4-0.2-0.8-0.3-1.2c0-0.1-0.1-0.3-0.1-0.4c0,0,0.1,0.6,0.5,1.6c0.5,1.3,1.1,2.4,2,3.5
		c0.8,1,1.9,1.9,3,2.6C261.1,296.2,261.7,296.5,261.7,296.5z"/>
	<path class="st10" d="M241.6,216.7c0,0-20.9,43.9-21.7,46.3S209,319.5,209,319.5l15.3,8c0,0,22.5-56.2,22.2-57.7
		s23.6-46.5,23.6-46.5L241.6,216.7z"/>
	<path class="st3" d="M245.9,206.1l-9,17.6l31.2,8.2c0,0,8-18.8,8.6-19.2s-2.1-13.7-2.1-13.7L245.9,206.1z"/>
	<path class="st4" d="M270.7,194.3c0.4,0.3,0.7,0.7,0.9,1.1c0.8,1.1,1.5,2.2,2.1,3.4c1,1.7,1.7,3.6,2.2,5.5c0.3,1.1,0.5,2.3,0.7,3.5
		c0.1,0.6,0.1,1.3,0,1.9c-0.1,0.6-0.2,1.3-0.3,1.9c-0.6,2.4-1.3,4.7-2.3,6.9c-0.8,2.1-1.7,3.9-2.4,5.4s-1.4,2.8-1.8,3.6
		c-0.2,0.4-0.5,0.9-0.7,1.3c0.1-0.5,0.3-0.9,0.6-1.4c0.4-0.9,1-2.2,1.6-3.6s1.5-3.4,2.3-5.5c0.9-2.2,1.7-4.5,2.2-6.9
		c0.7-2.5,0.2-4.9-0.4-7c-0.5-1.9-1.2-3.7-2.1-5.5c-0.6-1.2-1.3-2.3-2-3.4C271.2,195.2,271,194.7,270.7,194.3z"/>
	<path class="st4" d="M277.3,198.8c0.4,0.6,0.7,1.3,0.8,2.1c0.5,1.7,0.7,3.5,0.6,5.3c-0.1,1.8-0.5,3.6-1.1,5.2c-0.2,0.7-0.5,1.4-1,2
		c0.9-2.3,1.4-4.8,1.6-7.2C278.3,203.7,278,201.2,277.3,198.8z"/>
	<path class="st10" d="M203,324.1c0,0-2.5,1.1-3.2,2.4c-1.3,2.4,1.2,6.1,1.2,6.1s-1.4,1.1-1.2,2.4s4.2,7.4,5.2,7.9
		c4.8,2.2,18.2,0.1,18.2,0.1l4.5-0.5c0,0,2-8.9,1.5-10.4s-6.3-10-6.3-10l-15.5-3.1C207.5,319,202.9,318.2,203,324.1z"/>
	<path class="st11" d="M212.8,321.7c0.1,0.3,0.2,0.6,0.2,0.9c0.1,0.7,0.2,1.5,0.4,2.6l-0.1-0.1c2.1,1.9,4.3,3.5,6.7,4.9
		c1.4,1.2,2.6,2.7,3.4,4.4c0.5,0.9,0.9,1.8,1.1,2.8c0.2,0.5,0.2,1.1,0,1.7c-0.3,0.6-0.8,0.9-1.4,1c-0.4,0.1-0.8,0.2-1.2,0.3
		c-0.2,0.1-0.5,0.1-0.7,0c-0.2-0.1-0.4-0.2-0.6-0.4c-0.6-0.6-1.1-1.2-1.5-1.8c-0.8-1.2-1.9-2.3-3-3.2c-1.1-0.7-2.3-1.2-3.6-1.5
		c-0.6-0.1-1.2-0.2-1.8-0.5c-0.4-0.4-0.8-0.8-1.2-1.2c-2.8-3.2-4.4-5.3-4.3-5.4s0.1,0.1,0.3,0.4l0.9,1c0.8,0.9,1.9,2.2,3.4,3.8
		c0.4,0.4,0.7,0.8,1.1,1.2c0.6,0.2,1.1,0.3,1.7,0.4c1.4,0.2,2.6,0.7,3.8,1.5c1.2,0.9,2.2,2,3.1,3.3c0.5,0.6,1,1.2,1.5,1.8
		c0.2,0.3,0.5,0.4,0.9,0.3c0.4-0.1,0.8-0.2,1.2-0.3c0.4-0.1,0.8-0.3,1-0.7c0.1-0.4,0.1-0.9,0-1.4c-0.3-0.9-0.7-1.9-1.1-2.7
		c-0.8-1.6-1.9-3.1-3.2-4.3c-2.4-1.4-4.6-3.1-6.6-5.1l0,0l0,0c-0.1-1.1-0.2-2-0.2-2.6C212.8,322.4,212.8,322,212.8,321.7z"/>
	<path class="st11" d="M227.9,342.4c0,0-0.2,0.2-0.7,0.2c-0.7,0-1.3-0.4-1.7-1.1c-0.2-0.4-0.5-0.8-0.6-1.2c-0.1-0.2-0.2-0.5-0.3-0.7
		c-0.1-0.3-0.1-0.5-0.1-0.8c-0.3-1.1-0.6-2.2-1-3.3c-0.8-2.4-1.4-4.5-1.8-6.1c-0.2-0.9-0.4-1.7-0.4-2.6c0.3,0.8,0.6,1.7,0.8,2.5
		c0.4,1.6,1.1,3.7,1.9,6.1c0.4,1.1,0.7,2.3,0.9,3.4c0,0.3,0,0.5,0.1,0.8c0.1,0.2,0.1,0.5,0.2,0.7c0.1,0.4,0.3,0.8,0.5,1.2
		c0.3,0.5,0.8,0.9,1.4,1C227.6,342.5,227.8,342.4,227.9,342.4z"/>
	<path class="st11" d="M218.3,343c-0.9,0-1.8-0.1-2.6-0.3c-2.1-0.5-4.1-1.2-6-2.3c-1.9-1-3.6-2.3-5.1-3.9c-0.7-0.6-1.2-1.3-1.7-2.1
		c2.1,2.1,4.5,3.9,7.1,5.5C212.6,341.3,215.4,342.3,218.3,343z"/>
	<path class="st3" d="M210,308.7l8,20.3l3.8,3.2l-9.2-24.6c-0.3-0.7-1.1-1.1-1.8-0.8c-0.1,0-0.1,0-0.2,0.1l0,0
		C210,307.3,209.7,308.1,210,308.7z"/>
	<polygon class="st3" points="222.3,340.1 223.8,343.5 226.1,345.1 226.3,342.7 224.7,339.1 	"/>
	<path class="st5" d="M248.6,222.6c-0.5-1.6-0.9-3.2-1.1-4.8c-0.4-1.6-0.7-3.2-0.9-4.9c0.7,1.5,1.1,3.1,1.4,4.7
		C248.3,219.3,248.6,221,248.6,222.6z"/>
	<path class="st5" d="M265.7,215.2c-1.6,0.7-3.3,1.2-5,1.4c-1.7,0.4-3.4,0.4-5.2,0.2c0-0.1,2.3-0.3,5.1-0.7S265.7,215.1,265.7,215.2
		z"/>
	<path class="st5" d="M264.2,207c-0.1,0.1-0.8-1.6-1.8-3.6s-2.1-3.4-2-3.5C262.3,201.8,263.6,204.3,264.2,207L264.2,207z"/>
	<path class="st10" d="M315.5,117.9l4.7,53.7c0.8,8.6-5.3,16.3-13.8,17.6l0,0c-8.8,1.4-17.1-4.6-18.5-13.4l-1.7-10
		c0,0-13.2,0.1-15.5-12.7c-1.1-6.2-2.4-19.1-3.3-30.9c-1.1-13.1,8.4-24.8,21.5-26.3l0,0c13.3-1.4,25.2,8.2,26.6,21.5
		C315.5,117.5,315.5,117.7,315.5,117.9z"/>
	<path class="st11" d="M286.2,165.7c6-0.9,11.5-3.5,16-7.6c0,0-2.4,9.9-15.5,10.9L286.2,165.7z"/>
	<path class="st4" d="M273,131.2c0.2,1,1.1,1.7,2.1,1.6c1-0.1,1.7-1,1.6-2c0,0,0,0,0,0c-0.2-1-1.1-1.7-2.1-1.6
		C273.6,129.3,272.9,130.1,273,131.2C273,131.1,273,131.2,273,131.2z"/>
	<path class="st4" d="M271.2,128.1c0.3,0.2,1.5-1.1,3.5-1.4s3.6,0.4,3.8,0.2c0.1-0.1-0.2-0.5-0.9-0.9c-1-0.5-2-0.6-3.1-0.4
		c-1,0.2-2,0.7-2.7,1.4C271.2,127.5,271.1,128,271.2,128.1z"/>
	<path class="st4" d="M292.5,128.8c0.1,1,1.1,1.7,2.1,1.6c1-0.1,1.7-0.9,1.6-1.9c0,0,0-0.1,0-0.1c-0.2-1-1.1-1.7-2.1-1.6
		c-1,0.1-1.7,0.9-1.6,1.9C292.5,128.7,292.5,128.7,292.5,128.8z"/>
	<path class="st4" d="M290.7,125.2c0.3,0.2,1.5-1.1,3.5-1.4s3.6,0.4,3.8,0.2c0.1-0.1-0.2-0.5-0.9-0.9c-1-0.5-2-0.6-3.1-0.4
		c-1,0.2-2,0.7-2.7,1.4C290.8,124.7,290.6,125.1,290.7,125.2z"/>
	<path class="st4" d="M286,141.1c-1.1-0.2-2.2-0.2-3.3-0.1c-0.5,0-1,0-1.1-0.3c-0.1-0.5-0.1-1.1,0.1-1.6c0.3-1.3,0.6-2.7,0.9-4.1
		c1.2-5.8,1.9-10.6,1.7-10.6s-1.4,4.6-2.5,10.5c-0.3,1.4-0.5,2.8-0.8,4.1c-0.2,0.7-0.2,1.4,0.1,2c0.2,0.3,0.6,0.6,1,0.6
		c0.3,0,0.6,0,0.9,0C283.9,141.6,285,141.4,286,141.1z"/>
	<path class="st4" d="M292,141.5c-0.3,0,0,2.2-1.6,4s-3.9,2-3.9,2.3c0,0.1,0.6,0.3,1.5,0.2c1.3-0.2,2.4-0.8,3.3-1.8
		c0.8-0.9,1.2-2.1,1.2-3.3C292.5,142,292.2,141.4,292,141.5z"/>
	<path class="st4" d="M289.3,119.7c0.3,0.5,2.2-0.1,4.6-0.2s4.4,0.2,4.6-0.3c0.1-0.2-0.3-0.7-1.2-1.1c-2.3-1-4.8-0.8-7,0.4
		C289.6,119,289.2,119.5,289.3,119.7z"/>
	<path class="st4" d="M272,119.7c0.4,0.4,1.7-0.3,3.4-0.5s3.1-0.1,3.3-0.6c0.1-0.2-0.2-0.7-0.9-1c-0.9-0.4-1.9-0.5-2.8-0.3
		c-1,0.2-1.9,0.6-2.6,1.3C271.9,119,271.8,119.5,272,119.7z"/>
	<path class="st4" d="M299.2,106.3L299.2,106.3c2.4,1.3,4.1,3.4,4.9,5.9c0,0.1,0.1,0.2,0.1,0.2c1.1,3.6,1.6,7.3,2.8,10.9
		s3,7.1,6.2,9.2c1.3,0.9,3.4,1.2,4.1-0.1c0.2-0.6,0.3-1.2,0.2-1.8c-0.8-9,0.3-17.3-1.2-26.5c-0.4-2.5-2-4.7-4.3-5.8
		c-2.2-1.1-4.8-2.1-6.8-0.7s-4.1,5.9-5.5,7.9"/>
	<path class="st10" d="M312.2,124.7c0.2-0.1,8.4-4.1,9.6,4.8s-8,8.2-8,8S312.2,124.7,312.2,124.7z"/>
	<path class="st11" d="M316,133.7c0,0,0.2,0.1,0.5,0.2c0.4,0.1,0.8,0.1,1.1-0.1c0.9-0.5,1.5-2.1,1.3-3.7c-0.1-0.8-0.3-1.5-0.7-2.2
		c-0.3-0.5-0.7-0.9-1.3-1c-0.4,0-0.7,0.2-0.9,0.5c-0.1,0.3,0,0.4,0,0.5s-0.2-0.1-0.2-0.5c0-0.2,0.1-0.4,0.3-0.6
		c0.2-0.2,0.5-0.3,0.8-0.3c0.8,0,1.4,0.5,1.8,1.2c0.5,0.7,0.8,1.5,0.9,2.4c0.2,1.8-0.5,3.6-1.7,4.1c-0.5,0.2-1,0.2-1.4-0.1
		C316.1,133.9,316,133.7,316,133.7z"/>
	<path class="st6" d="M293.1,92.2c0.2-0.1,0.4-0.1,0.6-0.1c0.5,0,1.1,0,1.6,0.1c3.6,0.6,6.4,3.3,7.2,6.8c0.1,0.5,0.2,1,0.2,1.6
		c0,0.2,0,0.4,0,0.6c-0.1,0,0-0.8-0.4-2.1c-0.9-3.4-3.6-5.9-7-6.6C294,92.2,293.1,92.2,293.1,92.2z"/>
	<path class="st6" d="M317,112.4c-0.2,0.1-0.4,0.2-0.7,0.3c-0.7,0.1-1.4,0.1-2-0.2c-1-0.4-1.8-1.1-2.4-1.9c-0.7-1-1.2-2.2-1.6-3.3
		c-0.4-1.2-0.9-2.3-1.6-3.3c-0.5-0.8-1.3-1.5-2.2-1.8c-0.6-0.3-1.3-0.3-1.9-0.2c-0.5,0.1-0.7,0.2-0.7,0.2c0.2-0.2,0.4-0.3,0.7-0.3
		c0.7-0.2,1.4-0.1,2.1,0.1c1,0.4,1.8,1,2.4,1.9c0.7,1,1.2,2.2,1.6,3.3c0.4,1.2,0.9,2.3,1.6,3.3c0.5,0.8,1.3,1.5,2.2,1.9
		c0.6,0.3,1.3,0.4,1.9,0.3C316.8,112.5,317,112.4,317,112.4z"/>
	<path class="st6" d="M317.3,118.3c0,0-0.1,0-0.2,0.1c-0.2,0.1-0.4,0.1-0.6,0.2c-0.8,0.2-1.6,0.2-2.4,0.1c-2.7-0.3-5.1-1.6-6.8-3.7
		c-1.7-2-2.9-4.4-3.5-7c-0.1-0.4-0.2-0.9-0.4-1.3c-0.1-0.3-0.3-0.6-0.6-0.7c-0.2-0.1-0.5-0.2-0.8-0.2c0.3-0.1,0.6-0.1,0.9,0.1
		c0.3,0.2,0.6,0.4,0.7,0.8c0.2,0.4,0.4,0.9,0.4,1.4c0.6,2.5,1.8,4.9,3.5,6.8c1.7,1.9,4,3.2,6.6,3.6
		C315.2,118.5,316.2,118.5,317.3,118.3z"/>
	<path class="st4" d="M294.6,102.8c-1.8,3.1-5.5,4.7-8.9,5.9l-10.8,4.2c-1.3,0.6-2.6,0.9-4,0.9c-1.4,0-2.7-0.9-3.2-2.2
		c-0.5-1.9,1.1-3.6,2.7-4.7c4-2.9,8.5-5,13.2-6.3c2-0.7,4.1-0.9,6.2-0.6c2.1,0.4,3.8,1.9,4.4,3.9"/>
	<path class="st3" d="M267.3,118.1l0.1-0.4c1.7-10.4,11.8-11.7,19.8-12.1s16.4,5.2,22.7,10.4c1.2,0.9,2.3,2.1,3,3.5
		c0.8,1.4,0.8,3.1,0,4.5c3.1-0.4,3.8,0.6,6.4-1.3s1-8.2,1-8.2c2.1,0,4.1,0.3,6.1,0.7c5,1,6.4-1.8,6.5-4.7c0-2.2-1.5-4.8-5.9-8.4
		c-5.4-4.4-9.2-8.7-16.4-11.8c-6.1-2.6-12.6-3.2-19.3-3.1s-13.5,2.3-18,7.3c-3.9,4.3-5.5,10.1-7,15.7c-0.7,2-1,4.2-0.9,6.3
		c0.2,2.1-0.2,5.4,1.8,6"/>
	<path class="st4" d="M299.8,96.7c0.4,0,0.8,0,1.1,0.1c0.4,0,0.9,0.1,1.3,0.2c0.6,0.1,1.2,0.3,1.7,0.4c1.5,0.4,2.9,1,4.3,1.8
		c1.7,0.9,3.2,2,4.7,3.3c1.4,1.3,2.7,2.7,3.8,4.2c0.9,1.3,1.7,2.6,2.3,4.1c0.2,0.5,0.5,1.1,0.6,1.7c0.2,0.4,0.3,0.9,0.4,1.3
		c0.1,0.4,0.2,0.7,0.2,1.1c-0.1,0-0.5-1.6-1.6-3.9c-0.7-1.4-1.4-2.7-2.3-3.9c-1.1-1.5-2.4-2.9-3.8-4.1c-1.4-1.2-2.9-2.3-4.6-3.2
		c-1.3-0.7-2.7-1.4-4.2-1.8C301.4,97,299.8,96.8,299.8,96.7z"/>
	<path class="st4" d="M280.1,89.8c0,0.1-1,0.6-2.5,1.9c-3.8,3.4-5.5,8.5-4.5,13.4c0.4,1.9,0.9,2.9,0.8,3c-0.2-0.2-0.3-0.5-0.4-0.7
		c-0.3-0.7-0.6-1.4-0.8-2.2c-1.2-5.1,0.6-10.5,4.6-13.8c0.6-0.5,1.2-0.9,1.9-1.3C279.6,90,279.9,89.9,280.1,89.8z"/>
	<path class="st4" d="M317.2,93.7c-0.5-0.1-1-0.3-1.5-0.4c-0.9-0.3-2.3-0.8-3.9-1.3c-2-0.6-4-1.1-6-1.4c-2.5-0.4-5-0.3-7.4,0.2
		c-2.4,0.5-4.7,1.6-6.5,3.3c-1.5,1.4-2.6,3.1-3.2,5.1c-0.4,1.3-0.6,2.6-0.6,4c0,1,0.1,1.5,0.1,1.5s-0.1-0.1-0.1-0.4
		c-0.1-0.4-0.1-0.8-0.2-1.1c-0.3-3.5,1.1-7,3.6-9.5c1.9-1.8,4.2-3,6.8-3.5c2.5-0.5,5.1-0.6,7.6-0.2c2,0.3,4,0.8,6,1.5
		c1.7,0.6,3,1.1,3.9,1.5C316.3,93.2,316.8,93.4,317.2,93.7z"/>
	<path class="st4" d="M312.1,102.6c0-0.1,0.5,0.7,0,1.9c-0.3,0.7-0.7,1.3-1.3,1.7c-0.6,0.6-1.3,1.1-2,1.6c-1.8,1.3-3.7,2.3-5.9,2.9
		c-0.1-0.1,2.6-1.2,5.6-3.3c1.5-1,2.8-2,3.2-3C312.1,103.9,312.2,103.3,312.1,102.6z"/>
	<path class="st4" d="M319.3,113.3c0.1,0.5,0,1-0.2,1.4c-0.4,1.1-1.1,2-2,2.7c-0.9,0.7-2,1.2-3.1,1.3c-0.5,0.1-1,0.1-1.4-0.1
		c0-0.1,0.5-0.1,1.3-0.2c1-0.2,2-0.7,2.9-1.3c0.8-0.7,1.5-1.5,2-2.4C318.9,114.2,319.1,113.7,319.3,113.3z"/>
	<path class="st4" d="M331.2,110.6c-0.1,0.1-0.7-0.6-1.8-1.5c-3-2.3-6.8-3.4-10.6-3.2c-1.5,0.1-2.4,0.3-2.4,0.2
		c0.7-0.3,1.5-0.6,2.3-0.6c3.9-0.5,7.9,0.7,10.9,3.3C330.2,109.3,330.7,109.9,331.2,110.6z"/>
	<path class="st4" d="M267.8,116.2c0,0.1-0.3,0.1-0.7-0.2c-0.5-0.4-0.9-0.9-1-1.5c-0.3-0.8-0.3-1.6,0-2.4c0.2,0,0.2,1.1,0.5,2.2
		c0.1,0.5,0.4,1,0.7,1.3C267.6,116,267.8,116.2,267.8,116.2z"/>
	<g class="st9">
		<path d="M301.8,97c5.5,0.2,10.6,3,15.3,5.7c1.6,0.8,3.1,1.9,4.4,3.1c1.3,1.3,2,3,1.9,4.9c-0.1,1.8-1.5,3.4-3.4,3.6
			c-2-7.9-8-14.3-15.9-16.7"/>
	</g>
	<path class="st4" d="M318.8,134.7c0,0,0.4-0.4,1.2-0.2c0.5,0.1,0.9,0.4,1.1,0.8c0.3,0.5,0.4,1.1,0.2,1.7c-0.2,0.6-0.7,1-1.3,1.2
		c-0.5,0.1-1,0.1-1.4-0.2c-0.3-0.2-0.5-0.5-0.5-0.8c0-0.2,0-0.3,0-0.3s0.1,0.5,0.7,0.8c0.3,0.2,0.7,0.2,1.1,0.1
		c0.8-0.3,1.2-1.1,0.9-1.9c0-0.1-0.1-0.2-0.1-0.3c-0.2-0.3-0.5-0.6-0.8-0.7C319.2,134.6,318.8,134.8,318.8,134.7z"/>
	<path class="st4" d="M321.3,134.2c0-0.1,0.2,0,0.5-0.1c0.3-0.2,0.4-0.6,0.3-0.9c-0.1-0.3-0.4-0.6-0.8-0.6c-0.3,0-0.5,0.1-0.5,0
		s0.1-0.3,0.5-0.4c0.2,0,0.5,0,0.7,0.1c0.3,0.1,0.5,0.4,0.6,0.7c0.2,0.6-0.1,1.2-0.7,1.4C321.5,134.6,321.2,134.3,321.3,134.2z"/>
</g>
<g id="freepik--Table--inject-80">
	<rect x="105.7" y="342.2" class="st6" width="158.4" height="10.2"/>
	<rect x="116.1" y="346" class="st6" width="10.2" height="108.9"/>
	<rect x="247.2" y="346" class="st6" width="10.2" height="108.9"/>
	<rect x="105.7" y="342.2" class="st4" width="65.4" height="10.2"/>
	<path class="st6" d="M143.5,342.9c-1.9-0.1-3.8-0.1-5.7,0.2c-2.1,0.4-4.1,0.9-6,1.7c-2.2,0.8-4.5,1.9-7,3.1
		c-2.3,1.1-4.7,2.1-7.2,2.9c-2,0.7-4.1,1.1-6.2,1.2c-1.4,0.1-2.9,0-4.2-0.3c-0.4-0.1-0.7-0.2-1.1-0.3c-0.3-0.1-0.4-0.1-0.4-0.1
		c1.9,0.4,3.8,0.5,5.7,0.4c2.1-0.2,4.1-0.6,6.1-1.3c2.4-0.8,4.8-1.8,7.1-2.9c2.5-1.1,4.8-2.2,7.1-3.1c2-0.8,4-1.3,6.1-1.6
		c1.4-0.2,2.8-0.3,4.3-0.1c0.4,0,0.8,0.1,1.1,0.2C143.4,342.9,143.5,342.9,143.5,342.9z"/>
	<path class="st6" d="M149.9,347c0,0-0.6,0.2-1.7,0.6c-1.5,0.5-2.9,1.2-4.3,2c-0.4,0.2-0.8,0.6-1,1c-0.1,0.2,0,0.4,0.2,0.6
		c0.2,0.2,0.4,0.2,0.7,0.3c0.6,0,1.2,0,1.8-0.1c0.6-0.1,1.2-0.2,1.9-0.4c1.3-0.3,2.6-0.8,3.6-1.7c0.5-0.5,0.8-1.1,0.9-1.8
		c0.1-0.7-0.2-1.4-0.7-1.8c-1.1-1-2.7-1-4.1-0.9c-1.4,0.1-2.7,0.4-4,0.9c-2.2,0.8-4.3,1.8-6.3,3.1c-1.7,1.1-3,2-4,2.6
		c-0.5,0.4-0.9,0.7-1.5,1c0.1-0.1,0.2-0.2,0.3-0.3c0.2-0.2,0.6-0.5,1-0.8c0.9-0.7,2.2-1.7,3.9-2.8c2-1.3,4.1-2.4,6.3-3.2
		c1.3-0.5,2.7-0.8,4.1-0.9c0.8-0.1,1.5-0.1,2.3,0c0.8,0.1,1.6,0.5,2.2,1c0.6,0.6,1,1.4,0.9,2.3c-0.1,0.8-0.5,1.5-1.1,2.1
		c-1.1,0.9-2.5,1.5-3.9,1.8c-0.7,0.2-1.3,0.3-1.9,0.4c-0.6,0.1-1.3,0.1-1.9,0.1c-0.3,0-0.7-0.2-0.9-0.4c-0.3-0.3-0.4-0.6-0.2-1
		c0.2-0.5,0.6-1,1.2-1.2c1.4-0.8,2.9-1.5,4.4-1.9c0.6-0.1,1-0.2,1.3-0.3C149.5,347,149.7,347,149.9,347z"/>
	<path class="st6" d="M164.7,342c0.3,0.7,0.5,1.4,0.4,2.2c-0.2,1.8-1,3.5-2.3,4.8c-1.3,1.2-2.8,2.2-4.4,2.9
		c-0.6,0.3-1.3,0.6-2.1,0.7c0.6-0.4,1.2-0.7,1.9-1c1.5-0.7,3-1.7,4.2-2.9c1.2-1.2,2-2.8,2.3-4.4C164.7,343.4,164.7,342.7,164.7,342z
		"/>
</g>
</svg>
