<svg xmlns="http://www.w3.org/2000/svg" xmlns:xlink="http://www.w3.org/1999/xlink" viewBox="0 0 104.9 104.87"><defs><style>.a{fill:url(#a);}.b{fill:url(#b);}.c{fill:#f5b929;}</style><radialGradient id="a" cx="65.27" cy="41.81" r="52.44" gradientUnits="userSpaceOnUse"><stop offset="0.31" stop-color="#ac4ba4"/><stop offset="1" stop-color="#560276"/></radialGradient><radialGradient id="b" cx="52.5" cy="52.5" r="48.8" gradientTransform="translate(-21.98 54.88) rotate(-47.03) scale(1 1.01)" gradientUnits="userSpaceOnUse"><stop offset="0.28" stop-color="#f3cc6a"/><stop offset="1" stop-color="#f9af03"/></radialGradient></defs><path class="a" d="M101.22,43.37a13.43,13.43,0,0,1,3.36,6.26,12.73,12.73,0,0,1-2.65,11,13.06,13.06,0,0,0-.79,1.24,4.71,4.71,0,0,0-.93.45,12.26,12.26,0,0,1-8.3,2.83c-1.15,0-2.3-.19-3.53-.29C82,74.35,74.44,82.67,65,89.05c.53,5.84-.13,8.14-3.45,12.12a14.25,14.25,0,0,1-6,3.32,12.75,12.75,0,0,1-10.92-2.26l-1.28-1-.23-.15,0,0c-.8-1.14-1.59-2.29-2.41-3.47-1.87,0-3.78.06-5.67,0-1.36-.06-2.71-.33-4.06-.5-.95-.3-1.89-.61-2.84-.88a13.58,13.58,0,0,0-4.51-.5A16.68,16.68,0,0,1,13.25,92.9a8.1,8.1,0,0,1-3.53-6.68,32.42,32.42,0,0,1,.71-7.42,25,25,0,0,1,2.84-.34,12.11,12.11,0,0,1,11.59,8.75c.28,1,.47,2.09.72,3.23a57.77,57.77,0,0,0,14,1.06c.65-5.63,3.36-9.64,8.63-11.48s10-.42,13.86,3.45c6-3.41,18.08-16,21-21.91a14.24,14.24,0,0,1-3.45-6H65c-1.84,5.55-5.4,9.14-11.27,9.6-7.06.56-11.51-3.08-13.78-9.58H25.28c-.15.43-.27.82-.4,1.21A12.8,12.8,0,0,1,13.1,65.25a13.08,13.08,0,0,1-9.38-3.66,13.59,13.59,0,0,1-3.6-7.35,12.73,12.73,0,0,1,2.51-9.57c.35-.47.72-.9,1.09-1.36a13.17,13.17,0,0,1,13.53-3C23.93,31.43,31.07,23,39.85,16.19a1.5,1.5,0,0,0,0-.34c0-.25,0-.5-.08-.75A12.62,12.62,0,0,1,42.64,4.52a7.74,7.74,0,0,0,.52-.83,11.44,11.44,0,0,0,1-.68,12.79,12.79,0,0,1,16.75.23l.55.49,2.78,3.68a40.68,40.68,0,0,1,10,.49c.77.14,1.55.26,2.32.44A26.57,26.57,0,0,0,82.78,9a14.63,14.63,0,0,1,9,2.73,8,8,0,0,1,3.27,6.15,23.34,23.34,0,0,1-.82,7.76c-.28.07-.56.15-.84.21a10.77,10.77,0,0,1-6,.14c-4.06-1.43-7-4-7.56-8.56-.13-1.06-.33-2.11-.49-3.18a53.27,53.27,0,0,0-14.06-.76c-.68,5.53-3.36,9.48-8.51,11.3s-9.81.57-13.8-3.26C34.87,28,28.46,35.77,22.54,43.68l3,5.66H40c2.23-6,6.28-9.41,11.42-9.61,7-.27,11.33,3.22,13.6,9.66H79.59c.1-.26.18-.44.25-.64a12.8,12.8,0,0,1,20.78-5.82C100.8,43.09,101,43.22,101.22,43.37ZM86.6,92.62a8.1,8.1,0,0,0,6.15-6.54c.46-2.1.75-4.24,1.12-6.37a2.12,2.12,0,0,0-.68-.26,55.53,55.53,0,0,0-6.58,0c-4.25.47-7,3-7.49,7-.33,2.61-.2,5.29-.28,7.94C81.43,93.79,84,93.29,86.6,92.62ZM17.33,13a9.12,9.12,0,0,0-5.12,5.48,30.92,30.92,0,0,0-1.58,7.29,7.57,7.57,0,0,0,1.68.24A15,15,0,0,0,22,21.92a11.89,11.89,0,0,0,3.4-11.07A32.55,32.55,0,0,0,17.33,13Z"/><path class="b" d="M3.85,61.73a13.11,13.11,0,0,0,9.38,3.66A12.79,12.79,0,0,0,25,56.9c.14-.39.26-.78.41-1.21H40.07c2.27,6.5,6.72,10.14,13.78,9.58,5.87-.47,9.43-4.06,11.27-9.6H79.74a14.44,14.44,0,0,0,3.44,6c-2.94,6-15,18.5-21,21.91-3.9-3.87-8.58-5.29-13.86-3.45s-8,5.85-8.63,11.48a58.28,58.28,0,0,1-14-1.06c-.25-1.14-.44-2.2-.73-3.23A12.08,12.08,0,0,0,13.41,78.6a25,25,0,0,0-2.84.34,38.46,38.46,0,0,1-4.72-9.55c-.78-2.22-1.31-4.53-1.93-6.8A4.11,4.11,0,0,1,3.85,61.73ZM94.23,25.67c-.28.07-.56.15-.84.21a10.77,10.77,0,0,1-6,.14c-4.06-1.43-7-4-7.56-8.56-.13-1.06-.33-2.11-.49-3.18a53.27,53.27,0,0,0-14.06-.76c-.68,5.53-3.36,9.48-8.51,11.3s-9.81.57-13.8-3.26C34.87,28,28.46,35.77,22.54,43.68l3,5.66H40c2.23-6,6.28-9.41,11.42-9.61,7-.27,11.33,3.22,13.6,9.66H79.59c.1-.26.18-.44.25-.64a12.8,12.8,0,0,1,20.78-5.82c.18.16.4.29.6.44A49.45,49.45,0,0,0,94.23,25.67ZM25.37,10.85A11.89,11.89,0,0,1,22,21.92,15,15,0,0,1,12.31,26a7.57,7.57,0,0,1-1.68-.24,8.31,8.31,0,0,0-.52.69A46.51,46.51,0,0,0,4.93,38c-.5,1.74-.81,3.53-1.21,5.3a13.17,13.17,0,0,1,13.53-3C23.93,31.43,31.07,23,39.85,16.19a1.5,1.5,0,0,0,0-.34c0-.25,0-.5-.08-.75A12.62,12.62,0,0,1,42.64,4.52a7.74,7.74,0,0,0,.52-.83A48.18,48.18,0,0,0,25.37,10.85Zm37.3,90.35a45.86,45.86,0,0,0,10.59-3.5c2-1,3.82-2.12,5.72-3.19.08-2.65,0-5.33.28-7.94.52-4,3.24-6.48,7.48-6.95a55.71,55.71,0,0,1,6.59,0,2.12,2.12,0,0,1,.68.26,48,48,0,0,0,7.27-17.79,4.21,4.21,0,0,0-.93.45,12.26,12.26,0,0,1-8.3,2.83c-1.15,0-2.3-.19-3.53-.29-6.37,9.44-14,17.76-23.39,24.14.53,5.84-.13,8.14-3.45,12.12A8.1,8.1,0,0,0,62.67,101.2ZM69.77,6a35.18,35.18,0,0,0-8.14-2.16l2.78,3.68a40.68,40.68,0,0,1,10,.49C72.88,7.36,71.36,6.61,69.77,6ZM36.57,99.55c2.19.72,4.46,1.16,6.7,1.72L40.86,97.8c-1.87,0-3.78.06-5.67,0-1.36-.06-2.71-.33-4.06-.51C32.94,98,34.7,99,36.57,99.55Z"/><path class="c" d="M43.1,101.11l.23.15Z"/></svg>
