<svg width="56" height="56" viewBox="0 0 56 56" fill="none" xmlns="http://www.w3.org/2000/svg">
<mask id="mask0_48_374" style="mask-type:alpha" maskUnits="userSpaceOnUse" x="0" y="0" width="56" height="56">
<circle cx="27.88" cy="28" r="27.88" fill="black"/>
</mask>
<g mask="url(#mask0_48_374)">
<circle cx="27.88" cy="28" r="27.88" fill="black"/>
<g style="mix-blend-mode:overlay" filter="url(#filter0_f_48_374)">
<path d="M27.88 -3.8689C27.88 -3.8689 28.9625 12.2549 33.3513 20.002C35.745 24.2272 41.5976 28 41.5976 28C41.5976 28 35.745 31.7729 33.3513 35.9981C28.9625 43.7452 27.88 59.869 27.88 59.869C27.88 59.869 26.7976 43.7452 22.4087 35.9981C20.0151 31.7729 14.1625 28 14.1625 28C14.1625 28 20.0151 24.2272 22.4087 20.002C26.7976 12.2549 27.88 -3.8689 27.88 -3.8689Z" fill="url(#paint0_linear_48_374)"/>
</g>
<g filter="url(#filter1_f_48_374)">
<path d="M27.88 1.44257C27.88 1.44257 28.782 14.879 32.4394 21.3349C34.4342 24.8559 39.3113 28 39.3113 28C39.3113 28 34.4342 31.144 32.4394 34.6651C28.782 41.121 27.88 54.5575 27.88 54.5575C27.88 54.5575 26.978 41.121 23.3206 34.6651C21.3259 31.144 16.4487 28 16.4487 28C16.4487 28 21.3259 24.8559 23.3206 21.3349C26.978 14.879 27.88 1.44257 27.88 1.44257Z" fill="url(#paint1_linear_48_374)" fill-opacity="0.3"/>
</g>
<path d="M27.88 6.09009C27.88 6.09009 28.6242 17.1752 31.6416 22.5013C33.2872 25.4061 37.3109 28 37.3109 28C37.3109 28 33.2872 30.5938 31.6416 33.4987C28.6242 38.8248 27.88 49.9099 27.88 49.9099C27.88 49.9099 27.1359 38.8248 24.1185 33.4987C22.4729 30.5938 18.4492 28 18.4492 28C18.4492 28 22.4729 25.4061 24.1185 22.5013C27.1359 17.1752 27.88 6.09009 27.88 6.09009Z" fill="url(#paint2_linear_48_374)"/>
<path d="M27.88 27.8033C27.88 27.8033 27.8867 27.9028 27.9138 27.9507C27.9286 27.9768 27.9647 28 27.9647 28C27.9647 28 27.9286 28.0233 27.9138 28.0494C27.8867 28.0972 27.88 28.1968 27.88 28.1968C27.88 28.1968 27.8733 28.0972 27.8463 28.0494C27.8315 28.0233 27.7953 28 27.7953 28C27.7953 28 27.8315 27.9768 27.8463 27.9507C27.8733 27.9028 27.88 27.8033 27.88 27.8033Z" fill="#E39AA6"/>
<path d="M30.0699 27.705C30.0699 27.705 30.0799 27.8543 30.1205 27.926C30.1427 27.9651 30.1969 28.0001 30.1969 28.0001C30.1969 28.0001 30.1427 28.035 30.1205 28.0741C30.0799 28.1459 30.0699 28.2952 30.0699 28.2952C30.0699 28.2952 30.0599 28.1459 30.0192 28.0741C29.9971 28.035 29.9429 28.0001 29.9429 28.0001C29.9429 28.0001 29.9971 27.9651 30.0192 27.926C30.0599 27.8543 30.0699 27.705 30.0699 27.705Z" fill="#E39AA6"/>
<path d="M25.5512 27.941C25.5512 27.941 25.5532 27.9709 25.5613 27.9852C25.5657 27.993 25.5766 28 25.5766 28C25.5766 28 25.5657 28.007 25.5613 28.0148C25.5532 28.0292 25.5512 28.0591 25.5512 28.0591C25.5512 28.0591 25.5492 28.0292 25.541 28.0148C25.5366 28.007 25.5258 28 25.5258 28C25.5258 28 25.5366 27.993 25.541 27.9852C25.5492 27.9709 25.5512 27.941 25.5512 27.941Z" fill="#E39AA6"/>
<path d="M25.9293 27.9607C25.9293 27.9607 25.9307 27.9806 25.9361 27.9902C25.9391 27.9954 25.9463 28.0001 25.9463 28.0001C25.9463 28.0001 25.9391 28.0047 25.9361 28.0099C25.9307 28.0195 25.9293 28.0394 25.9293 28.0394C25.9293 28.0394 25.928 28.0195 25.9226 28.0099C25.9196 28.0047 25.9124 28.0001 25.9124 28.0001C25.9124 28.0001 25.9196 27.9954 25.9226 27.9902C25.928 27.9806 25.9293 27.9607 25.9293 27.9607Z" fill="#E39AA6"/>
<path d="M28.2582 27.941C28.2582 27.941 28.2602 27.9709 28.2683 27.9852C28.2728 27.9931 28.2836 28.0001 28.2836 28.0001C28.2836 28.0001 28.2728 28.007 28.2683 28.0149C28.2602 28.0292 28.2582 28.0591 28.2582 28.0591C28.2582 28.0591 28.2562 28.0292 28.2481 28.0149C28.2436 28.007 28.2328 28.0001 28.2328 28.0001C28.2328 28.0001 28.2436 27.9931 28.2481 27.9852C28.2562 27.9709 28.2582 27.941 28.2582 27.941Z" fill="#E39AA6"/>
<path d="M28.4661 27.9017C28.4661 27.9017 28.4694 27.9514 28.483 27.9754C28.4904 27.9884 28.5084 28 28.5084 28C28.5084 28 28.4904 28.0117 28.483 28.0247C28.4694 28.0486 28.4661 28.0984 28.4661 28.0984C28.4661 28.0984 28.4628 28.0486 28.4492 28.0247C28.4418 28.0117 28.4238 28 28.4238 28C28.4238 28 28.4418 27.9884 28.4492 27.9754C28.4628 27.9514 28.4661 27.9017 28.4661 27.9017Z" fill="#E39AA6"/>
<path d="M27.4194 27.9017C27.4194 27.9017 27.4227 27.9514 27.4362 27.9754C27.4436 27.9884 27.4617 28 27.4617 28C27.4617 28 27.4436 28.0117 27.4362 28.0247C27.4227 28.0486 27.4194 28.0984 27.4194 28.0984C27.4194 28.0984 27.416 28.0486 27.4025 28.0247C27.3951 28.0117 27.377 28 27.377 28C27.377 28 27.3951 27.9884 27.4025 27.9754C27.416 27.9514 27.4194 27.9017 27.4194 27.9017Z" fill="#E39AA6"/>
<path d="M28.7555 27.9607C28.7555 27.9607 28.7568 27.9806 28.7622 27.9902C28.7652 27.9954 28.7724 28.0001 28.7724 28.0001C28.7724 28.0001 28.7652 28.0047 28.7622 28.0099C28.7568 28.0195 28.7555 28.0394 28.7555 28.0394C28.7555 28.0394 28.7541 28.0195 28.7487 28.0099C28.7458 28.0047 28.7385 28.0001 28.7385 28.0001C28.7385 28.0001 28.7458 27.9954 28.7487 27.9902C28.7541 27.9806 28.7555 27.9607 28.7555 27.9607Z" fill="#E39AA6"/>
<path d="M28.6017 27.9607C28.6017 27.9607 28.603 27.9806 28.6084 27.9902C28.6114 27.9954 28.6186 28 28.6186 28C28.6186 28 28.6114 28.0047 28.6084 28.0099C28.603 28.0195 28.6017 28.0394 28.6017 28.0394C28.6017 28.0394 28.6003 28.0195 28.5949 28.0099C28.5919 28.0047 28.5847 28 28.5847 28C28.5847 28 28.5919 27.9954 28.5949 27.9902C28.6003 27.9806 28.6017 27.9607 28.6017 27.9607Z" fill="#E39AA6"/>
</g>
<defs>
<filter id="filter0_f_48_374" x="-95.0375" y="-113.069" width="245.835" height="282.138" filterUnits="userSpaceOnUse" color-interpolation-filters="sRGB">
<feFlood flood-opacity="0" result="BackgroundImageFix"/>
<feBlend mode="normal" in="SourceGraphic" in2="BackgroundImageFix" result="shape"/>
<feGaussianBlur stdDeviation="54.6" result="effect1_foregroundBlur_48_374"/>
</filter>
<filter id="filter1_f_48_374" x="0.848731" y="-14.1574" width="54.0626" height="84.3149" filterUnits="userSpaceOnUse" color-interpolation-filters="sRGB">
<feFlood flood-opacity="0" result="BackgroundImageFix"/>
<feBlend mode="normal" in="SourceGraphic" in2="BackgroundImageFix" result="shape"/>
<feGaussianBlur stdDeviation="7.8" result="effect1_foregroundBlur_48_374"/>
</filter>
<linearGradient id="paint0_linear_48_374" x1="27.88" y1="-3.8689" x2="27.88" y2="59.869" gradientUnits="userSpaceOnUse">
<stop stop-color="#34E1DC"/>
<stop offset="1" stop-color="#ED80FF"/>
</linearGradient>
<linearGradient id="paint1_linear_48_374" x1="27.88" y1="1.44257" x2="27.88" y2="54.5575" gradientUnits="userSpaceOnUse">
<stop stop-color="#F9C0B2"/>
<stop offset="1" stop-color="#ED80FF"/>
</linearGradient>
<linearGradient id="paint2_linear_48_374" x1="27.88" y1="6.09009" x2="27.88" y2="49.9099" gradientUnits="userSpaceOnUse">
<stop stop-color="#6B6DB4"/>
<stop offset="0.645833" stop-color="#F9C0B2"/>
</linearGradient>
</defs>
</svg>
