<svg width="56" height="56" viewBox="0 0 56 56" fill="none" xmlns="http://www.w3.org/2000/svg">
<path id="Subtract" fill-rule="evenodd" clip-rule="evenodd" d="M27.8791 55.8791C43.2763 55.8791 55.7582 43.3972 55.7582 28C55.7582 12.6028 43.2763 0.12085 27.8791 0.12085C12.4819 0.12085 0 12.6028 0 28C0 43.3972 12.4819 55.8791 27.8791 55.8791ZM31.6405 22.5014C28.6233 17.1755 27.8791 6.09075 27.8791 6.09075C27.8791 6.09075 27.135 17.1755 24.1177 22.5014C22.4721 25.4062 18.4486 27.9999 18.4486 27.9999C18.4486 27.9999 22.4721 30.5937 24.1177 33.4984C27.135 38.8244 27.8791 49.9092 27.8791 49.9092C27.8791 49.9092 28.6233 38.8244 31.6405 33.4984C33.2861 30.5937 37.3096 27.9999 37.3096 27.9999C37.3096 27.9999 33.2861 25.4062 31.6405 22.5014Z" fill="black"/>
</svg>
