<svg width="57" height="57" viewBox="0 0 57 57" fill="none" xmlns="http://www.w3.org/2000/svg">
<path id="Subtract" fill-rule="evenodd" clip-rule="evenodd" d="M28.2589 56.4526C43.6561 56.4526 56.138 43.9707 56.138 28.5735C56.138 13.1762 43.6561 0.694336 28.2589 0.694336C12.8617 0.694336 0.379761 13.1762 0.379761 28.5735C0.379761 43.9707 12.8617 56.4526 28.2589 56.4526ZM32.0203 23.0749C29.003 17.749 28.2589 6.66423 28.2589 6.66423C28.2589 6.66423 27.5147 17.749 24.4975 23.0749C22.8519 25.9797 18.8284 28.5734 18.8284 28.5734C18.8284 28.5734 22.8519 31.1672 24.4975 34.0719C27.5147 39.3979 28.2589 50.4827 28.2589 50.4827C28.2589 50.4827 29.003 39.3979 32.0203 34.0719C33.6659 31.1672 37.6894 28.5734 37.6894 28.5734C37.6894 28.5734 33.6659 25.9797 32.0203 23.0749Z" fill="white"/>
</svg>
