<svg xmlns="http://www.w3.org/2000/svg" viewBox="0 0 96.86 96.83"><defs><style>.a,.b{fill:#fff;}.b{opacity:0.3;}.c{fill:#f5b929;}</style></defs><path class="a" d="M93.46,40a12.5,12.5,0,0,1,3.11,5.79A11.77,11.77,0,0,1,94.12,56a12.26,12.26,0,0,0-.73,1.14,4.58,4.58,0,0,0-.86.42,11.26,11.26,0,0,1-7.66,2.61c-1.06,0-2.12-.17-3.26-.27C75.73,68.65,68.73,76.34,60,82.23c.49,5.39-.12,7.51-3.18,11.19a13.12,13.12,0,0,1-5.56,3.06A11.69,11.69,0,0,1,41.2,94.39L40,93.5l-.22-.14,0,0L37.6,90.17c-1.73,0-3.49.06-5.24,0-1.25-.06-2.5-.3-3.75-.47-.87-.27-1.74-.56-2.62-.8a12.3,12.3,0,0,0-4.16-.47,15.33,15.33,0,0,1-9.6-2.63A7.48,7.48,0,0,1,9,79.61a29.74,29.74,0,0,1,.65-6.85,26.37,26.37,0,0,1,2.62-.32A11.19,11.19,0,0,1,23,80.53c.27,1,.44,1.93.67,3a53.52,53.52,0,0,0,12.88,1c.6-5.2,3.1-8.91,8-10.6s9.2-.39,12.79,3.19C62.85,73.93,74,62.34,76.68,56.84a13.16,13.16,0,0,1-3.18-5.57H60c-1.7,5.13-5,8.44-10.4,8.87-6.53.51-10.63-2.85-12.73-8.85H23.34L23,52.41a11.81,11.81,0,0,1-10.88,7.84,12.05,12.05,0,0,1-8.66-3.38A12.56,12.56,0,0,1,.11,50.08a11.74,11.74,0,0,1,2.32-8.84c.32-.42.67-.83,1-1.24a12.17,12.17,0,0,1,12.5-2.73C22.1,29,28.68,21.22,36.8,15a2.12,2.12,0,0,0,.05-.32c0-.23,0-.46-.08-.68a11.68,11.68,0,0,1,2.6-9.78,6.52,6.52,0,0,0,.48-.76,10.42,10.42,0,0,0,.95-.63A11.82,11.82,0,0,1,56.27,3l.5.46,2.58,3.39a37.86,37.86,0,0,1,9.26.45c.71.14,1.43.24,2.14.41a24.61,24.61,0,0,0,5.68.64,13.58,13.58,0,0,1,8.32,2.52,7.36,7.36,0,0,1,3,5.68A21.91,21.91,0,0,1,87,23.7l-.78.2a10,10,0,0,1-5.57.13c-3.74-1.33-6.43-3.7-7-7.91-.13-1-.31-2-.46-2.93a49.34,49.34,0,0,0-13-.71c-.63,5.11-3.1,8.76-7.86,10.44s-9.06.52-12.74-3C32.19,25.82,26.28,33,20.81,40.33l2.74,5.23H36.92C39,40,42.72,36.87,47.47,36.69c6.44-.25,10.46,3,12.56,8.91H73.49c.09-.23.17-.4.23-.58a11.82,11.82,0,0,1,19.19-5.38C93.08,39.79,93.28,39.91,93.46,40Z"/><path class="b" d="M3.56,57a12,12,0,0,0,8.66,3.38A11.81,11.81,0,0,0,23.1,52.54l.37-1.12H37c2.1,6,6.2,9.36,12.72,8.85,5.42-.43,8.71-3.75,10.41-8.87h13.5A13.06,13.06,0,0,0,76.81,57C74.09,62.47,63,74.05,57.39,77.21c-3.6-3.58-7.92-4.9-12.8-3.19s-7.36,5.4-8,10.6a53.48,53.48,0,0,1-12.88-1c-.23-1-.4-2-.67-3a11.18,11.18,0,0,0-10.7-8.09,26,26,0,0,0-2.62.32A35.65,35.65,0,0,1,5.4,64.08C4.68,62,4.19,59.89,3.62,57.79A4.14,4.14,0,0,1,3.56,57Z"/><path class="b" d="M93.46,40c-.18-.13-.38-.25-.55-.4A11.82,11.82,0,0,0,73.72,45c-.06.18-.14.35-.23.58H60c-2.1-5.94-6.12-9.16-12.56-8.91C42.72,36.87,39,40,36.92,45.56H23.55l-2.74-5.23C26.28,33,32.19,25.82,39.65,19.91c3.68,3.53,8,4.7,12.74,3s7.23-5.33,7.86-10.44a49.34,49.34,0,0,1,13,.71c.15,1,.33,2,.46,2.93.54,4.21,3.23,6.58,7,7.91a10,10,0,0,0,5.57-.13l.78-.2A45.61,45.61,0,0,1,93.46,40Z"/><path class="b" d="M39.85,3.41a6.52,6.52,0,0,1-.48.76A11.68,11.68,0,0,0,36.77,14c0,.22.06.45.08.68a2.12,2.12,0,0,1-.05.32C28.68,21.22,22.1,29,15.93,37.27A12.17,12.17,0,0,0,3.43,40c.37-1.64.66-3.3,1.13-4.91A42.58,42.58,0,0,1,9.34,24.45c.14-.22.31-.42.47-.63a7.07,7.07,0,0,0,1.56.22,13.8,13.8,0,0,0,8.91-3.8A11,11,0,0,0,23.42,10,44.4,44.4,0,0,1,39.85,3.41Z"/><path class="b" d="M57,93.55c3.07-3.68,3.68-5.8,3.19-11.19,8.72-5.89,15.72-13.58,21.6-22.3,1.14.1,2.19.23,3.26.27a11.31,11.31,0,0,0,7.66-2.61,4.58,4.58,0,0,1,.86-.42,44.55,44.55,0,0,1-6.71,16.43,2,2,0,0,0-.63-.24,51.36,51.36,0,0,0-6.08,0c-3.92.43-6.44,2.73-6.91,6.41-.31,2.42-.19,4.89-.26,7.34-1.76,1-3.48,2.06-5.29,2.94a41.5,41.5,0,0,1-9.77,3.23A7,7,0,0,1,57,93.55Z"/><path class="a" d="M72.8,87.14c.07-2.45,0-4.92.26-7.33.48-3.69,3-6,6.91-6.42a51.36,51.36,0,0,1,6.08,0,2,2,0,0,1,.63.24c-.34,2-.61,3.94-1,5.89a7.47,7.47,0,0,1-5.67,6C77.6,86.14,75.19,86.6,72.8,87.14Z"/><path class="a" d="M23.42,10a11,11,0,0,1-3.14,10.22A13.8,13.8,0,0,1,11.37,24a7.07,7.07,0,0,1-1.56-.22,28.68,28.68,0,0,1,1.46-6.73A8.42,8.42,0,0,1,16,12,30.21,30.21,0,0,1,23.42,10Z"/><path class="b" d="M68.73,7.42A37.78,37.78,0,0,0,59.48,7L56.9,3.58a31.5,31.5,0,0,1,7.52,2C65.89,6.11,67.3,6.8,68.73,7.42Z"/><path class="b" d="M28.74,89.81c1.25.16,2.5.41,3.75.47,1.75.08,3.51,0,5.24,0L40,93.51c-2.06-.52-4.16-.93-6.18-1.58C32.05,91.37,30.41,90.53,28.74,89.81Z"/><path class="c" d="M39.79,93.36l.22.14Z"/></svg>
