<?xml version="1.0" encoding="utf-8"?>
<!-- Generator: Adobe Illustrator 26.0.3, SVG Export Plug-In . SVG Version: 6.00 Build 0)  -->
<svg version="1.1" id="Layer_1" xmlns="http://www.w3.org/2000/svg" xmlns:xlink="http://www.w3.org/1999/xlink" x="0px" y="0px"
	 viewBox="0 0 500 500" style="enable-background:new 0 0 500 500;" xml:space="preserve">
<style type="text/css">
	.st0{fill:#EBEBEB;}
	.st1{fill:#F5F5F5;}
	.st2{fill:#FFFFFF;}
	.st3{fill:#E0E0E0;}
	.st4{fill:none;}
	.st5{fill:#263238;}
	.st6{fill:#5B5B5B;}
	.st7{opacity:0.4;}
	.st8{fill:#AB2C65;}
	.st9{opacity:0.3;}
	.st10{fill:#310527;}
	.st11{fill:#FFBE84;}
	.st12{fill:#6F4439;}
	.st13{opacity:0.3;enable-background:new    ;}
</style>
<g id="freepik--background-complete--inject-185">
	<path class="st0" d="M40.5,463.2l99.9,7.4c1.9,0.1,3.8-0.5,5.3-1.8l41.9-37.1c0.8-0.7,0.9-1.9,0.2-2.7c-0.3-0.4-0.8-0.6-1.3-0.6
		l-102.1-7.6c-0.5,0-1,0.1-1.4,0.5l-43.6,38.6c-0.8,0.7-0.9,1.9-0.2,2.7C39.5,463,40,463.2,40.5,463.2z"/>
	<ellipse class="st1" cx="113.5" cy="444.9" rx="44.5" ry="18.3"/>
	<path class="st2" d="M73.7,442.6c0,0,0.5,0.3,1.6,0.8c1.6,0.7,3.3,1.2,5,1.4c2.7,0.3,5.5-0.1,8-1.2c1.6-0.6,2.9-1.7,3.8-3.2
		c0.4-0.8,0.4-1.8,0.2-2.6c-0.2-0.9-1-1.6-1.9-1.8c-1.9-0.3-3.8,1.9-3.4,4c0.2,1.1,0.7,2.1,1.5,2.8c0.8,0.8,1.7,1.5,2.8,2
		c2.2,1.1,4.6,1.7,7,1.7c2.6,0,5.1-0.7,7.3-2c1.1-0.7,2.1-1.6,2.7-2.8c0.6-1.2,0.6-2.6,0-3.8c-0.3-0.6-0.7-1.1-1.3-1.4
		c-0.6-0.3-1.2-0.4-1.9-0.3c-1.3,0.4-2.3,1.4-2.7,2.8c-0.3,1.4,0,2.8,0.8,4c0.8,1.2,1.8,2.3,3,3.2c2.5,1.7,5.4,2.6,8.5,2.4
		c3,0,5.9-1.4,7.8-3.7c0.9-1.1,1.3-2.6,1.1-4c-0.3-1.4-1.2-2.6-2.5-3.2c-1.3-0.6-2.7-0.2-3.6,0.9c-0.8,1.1-1.1,2.5-0.8,3.8
		c0.3,1.3,1,2.5,1.8,3.5c0.9,1,1.9,1.9,3,2.6c4.3,2.7,9.8,2.9,14.3,0.6c2-1,3.6-2.7,4.6-4.8c0.8-1.9,0.4-4.2-1.1-5.7
		c-1.5-1.3-3.7-1.2-5,0.2c-0.6,0.6-0.8,1.5-0.6,2.4c0.2,0.8,0.5,1.5,1.1,2.1c1,1.1,2.2,2,3.6,2.6c1.1,0.6,2.3,1.1,3.4,1.5
		c1.6,0.6,3.3,1,5,1.2l1.3,0.2c0.3,0,0.5,0.1,0.5,0.1c-0.6,0-1.2,0-1.8-0.1c-1.7-0.2-3.4-0.6-5.1-1.1c-1.2-0.4-2.4-0.9-3.5-1.5
		c-1.4-0.6-2.6-1.5-3.7-2.6c-0.6-0.6-1-1.4-1.2-2.2c-0.2-0.9,0.1-1.9,0.7-2.6c1.5-1.5,3.8-1.7,5.5-0.3c1.6,1.6,2.1,4,1.2,6.1
		c-0.9,2.2-2.6,3.9-4.7,5c-4.7,2.4-10.3,2.2-14.8-0.6c-1.2-0.7-2.2-1.6-3.1-2.7c-1-1.1-1.6-2.4-2-3.8c-0.3-1.5,0-3,0.9-4.2
		c0.5-0.6,1.1-1.1,1.9-1.3c0.8-0.2,1.6-0.1,2.3,0.2c1.4,0.7,2.4,2,2.8,3.5c0.3,1.6-0.2,3.2-1.2,4.4c-2.1,2.4-5.1,3.8-8.2,3.9
		c-3.1,0.2-6.2-0.7-8.8-2.5c-1.3-0.9-2.3-2-3.1-3.3c-0.8-1.3-1.1-2.9-0.8-4.4c0.4-1.5,1.6-2.7,3.1-3.1c0.8-0.2,1.6-0.1,2.2,0.3
		c0.6,0.4,1.2,1,1.5,1.6c0.7,1.3,0.7,2.9,0,4.2c-0.7,1.2-1.7,2.3-2.9,3c-4.5,2.7-10.1,2.8-14.8,0.3c-1-0.6-2-1.3-2.8-2.1
		c-0.8-0.8-1.4-1.9-1.6-3.1c-0.2-1.1,0.2-2.3,0.9-3.2c0.7-0.9,1.8-1.3,2.9-1.2c1.1,0.2,1.9,1,2.2,2.1c0.3,0.9,0.2,2-0.2,2.9
		c-0.9,1.5-2.3,2.7-3.9,3.3c-2.6,1.1-5.4,1.5-8.1,1.2c-1.7-0.2-3.4-0.7-5-1.5C74.7,443.3,74.2,442.9,73.7,442.6z"/>
	<path class="st3" d="M39.4,459.9c0.1,0,0.3,0,0.4,0L41,460l4.8,0.4l17.5,1.5l57.8,5.1l21.3,1.9l-0.2,0.1l32.5-28.8l9.5-8.4l2.6-2.2
		c0.3-0.2,0.5-0.4,0.7-0.6l0.2-0.2l-0.2,0.2l-0.6,0.6c-0.6,0.5-1.4,1.3-2.5,2.3l-9.4,8.5l-32.4,28.9l-0.1,0.1h-0.1l-21.3-1.9
		l-57.8-5.3l-17.5-1.7l-4.8-0.5l-1.2-0.1C39.6,460,39.5,459.9,39.4,459.9z"/>
	<path class="st1" d="M389.3,448.9c-3.8-4-8-7.8-12.9-10.2s-10.9-3.2-16-1.3l-90.1,35.4c10.7,4.1,21.4,8.3,32.7,10.3
		c11.7,2,23.8,1.7,35.6,1.1c21.5-1.1,44.4,0.1,66.2-1.1c2.6-0.2,4.6-2.4,4.5-5.1c0-0.7-0.3-1.4-0.6-2.1
		C403.2,466.4,396.1,456,389.3,448.9z"/>
	<path class="st1" d="M51.6,368.1l-14.5,8.1c44,15.1,92,9.9,138.1,4.5c3.4-0.4,6.8-0.8,9.9-2.4s5.6-4.5,5.7-7.9
		C144.5,368,98.1,367.2,51.6,368.1z"/>
	<path class="st1" d="M447.6,368.5c-4.2-4.8-11.8-3.8-18.1-2.5c-57,11.9-115.7,12.2-174,12.5L243,396c10.3,5.3,22.5,4.8,34,3.2
		s23-4,34.5-2.3c9.3,1.4,17.9,5.6,26.8,8.5s18.9,4.6,27.6,1.1c4.7-1.9,8.7-5.1,13.4-6.9c10.7-4,22.5,0.1,33.9,0
		c10.6-0.1,20.9-3.9,29-10.7c3-2.5,5.7-5.6,7-9.3S450.2,371.5,447.6,368.5z"/>
	<polygon class="st3" points="415.6,25.8 415.6,142.1 248.5,142.1 242.5,26.6 	"/>
	<rect x="242.5" y="26.6" class="st2" width="167.1" height="115.3"/>
	<path class="st3" d="M410.4,142.7H241.7V25.8h168.7V142.7z M243.3,141.1h165.5V27.4H243.3L243.3,141.1z"/>
	<rect x="260.6" y="40.9" class="st2" width="130.9" height="86.6"/>
	<path class="st3" d="M391.5,40.9h-0.6L389,41h-7.2l-27,0.1l-94.2,0.2l0.4-0.4c0,26.5,0,55.8,0,86.6l0,0l-0.4-0.4l130.9,0.1
		l-0.3,0.3c0.1-26.4,0.1-48,0.2-63c0-7.5,0.1-13.4,0.1-17.4c0-2,0-3.5,0-4.6s0-1.6,0-1.6s0,0.5,0,1.5s0,2.5,0,4.5
		c0,4,0,9.9,0.1,17.4c0,15.1,0.1,36.8,0.2,63.2v0.3h-0.3L260.6,128h-0.4v-0.4l0,0c0-30.8,0-60.2,0-86.6v-0.4h0.4l94.5,0.2l26.9,0.1
		h7.1h1.8C391.3,40.9,391.5,40.9,391.5,40.9z"/>
	<path class="st3" d="M242.5,26.3c1,0.5,2,1.1,2.9,1.9c1.7,1.2,4,3,6.6,5s4.7,3.9,6.3,5.3c0.9,0.7,1.7,1.5,2.4,2.5
		c-0.1,0.2-4.2-3.1-9.2-7.2S242.4,26.5,242.5,26.3z"/>
	<path class="st3" d="M409.6,26.6c0.1,0.2-3.8,3.5-8.8,7.5s-9.2,7-9.3,6.8s3.8-3.5,8.8-7.5S409.5,26.4,409.6,26.6z"/>
	<path class="st2" d="M409.5,141.9l-18.6-15.1"/>
	<path class="st3" d="M390.8,126.8c0.1-0.2,4.4,3.1,9.6,7.2s9.2,7.7,9.1,7.9s-4.4-3.1-9.6-7.2S390.7,127,390.8,126.8z"/>
	<path class="st3" d="M242.5,141.9c-0.1-0.2,3.8-3.5,8.7-7.4s9.1-6.9,9.2-6.8s-3.8,3.5-8.7,7.4S242.6,142.1,242.5,141.9z"/>
	<rect x="287.2" y="67.9" class="st3" width="82.4" height="29"/>
	<rect x="79.8" y="74.5" class="st3" width="4.3" height="104.6"/>
	<rect x="84.9" y="74.5" class="st3" width="4.3" height="104.6"/>
	<rect x="183.7" y="74.5" class="st3" width="4.3" height="104.6"/>
	<rect x="188.8" y="74.5" class="st1" width="4.3" height="104.6"/>
	<rect x="90.1" y="74.5" class="st1" width="4.3" height="104.6"/>
	<polygon class="st1" points="111.6,180.4 107.3,180.9 94.7,77 98.9,76.5 	"/>
	<polygon class="st3" points="115.5,180.3 111.2,180.7 99.4,76.7 103.7,76.3 	"/>
	<polygon class="st1" points="120.3,179.9 116.1,180.3 104.3,76.3 108.5,75.9 	"/>
	<polygon class="st3" points="140.8,180.5 136.7,181.5 108.7,80.3 112.8,79.3 	"/>
	<polygon class="st3" points="174.6,181 170.8,182.9 118.7,90.6 122.5,88.7 	"/>
	<path class="st1" d="M74.1,111v72.2l0,0h122l0,0V111l0,0H74.1L74.1,111z M150.6,142.5H120c-4.6,0.1-8.5-3.4-8.9-8.1
		c-0.3-4.7,3.3-8.8,8.1-9.1c0.2,0,0.4,0,0.5,0h30.7c4.6-0.1,8.5,3.5,8.9,8.1c0.3,4.7-3.3,8.8-8,9.1
		C151,142.5,150.8,142.5,150.6,142.5L150.6,142.5z"/>
	<path class="st4" d="M74.1,111v72.2l0,0h122l0,0V111l0,0H74.1L74.1,111z M150.6,142.5H120c-4.6,0.1-8.5-3.4-8.9-8.1
		c-0.3-4.7,3.3-8.8,8.1-9.1c0.2,0,0.4,0,0.5,0h30.7c4.6-0.1,8.5,3.5,8.9,8.1c0.3,4.7-3.3,8.8-8,9.1
		C151,142.5,150.8,142.5,150.6,142.5L150.6,142.5z"/>
	<path class="st3" d="M150.6,142.5c0,0,0.4,0,1.2-0.1c1.1-0.2,2.2-0.5,3.1-1.1c1.5-0.9,2.7-2.3,3.4-3.9c0.9-2.1,0.9-4.6,0-6.7
		c-1.2-2.6-3.6-4.4-6.4-4.9c-1.6-0.2-3.1-0.2-4.7-0.1h-5.1h-22.6c-1.9,0-3.8,0.7-5.3,1.9c-1.5,1.2-2.5,2.8-2.8,4.7
		c-0.4,1.8-0.2,3.6,0.6,5.2c0.8,1.6,2,2.9,3.5,3.7c1.4,0.8,3.1,1.2,4.7,1.2h4.8h8.6l12.4,0.1l3.4,0.1h0.9h0.3c-0.1,0-0.2,0-0.3,0
		h-0.9h-3.4l-12.4,0.1h-8.6h-4.8c-1.7,0.1-3.5-0.4-5-1.2c-1.6-0.9-2.9-2.3-3.7-3.9c-0.8-1.7-1-3.5-0.6-5.3c0.9-4.1,4.5-7,8.6-7h22.6
		h7.5c0.8,0,1.6,0,2.4,0.2c2.9,0.6,5.4,2.5,6.6,5.2c1,2.2,0.9,4.8-0.1,7c-0.4,0.9-1,1.7-1.6,2.4c-0.6,0.6-1.2,1.1-1.9,1.5
		c-1,0.6-2.1,0.9-3.2,1.1C151.4,142.5,151,142.5,150.6,142.5z"/>
	<path class="st3" d="M74.1,111c1.3-0.1,2.6-0.2,3.9-0.1h11.3l41.6-0.1l61.7-0.1h3.4c0,0,0.3,0,0.3,0.2s0,0.1,0,0.2v14.3
		c0,6.1,0,12.3,0,18.6c0,12.6,0,25.7,0,39.1c0,0.1-0.1,0.3-0.3,0.3H157h-36.5h-33H74.2c-0.1,0-0.1,0-0.2-0.1c0-0.1-0.1-0.1-0.1-0.2
		v-1.6c0-4.8,0-9.4,0-13.8c0-17.6,0.1-31.8,0.1-41.6c0-4.9,0-8.7,0-11.3c0-1.3,0-2.3,0-2.9c0-0.7,0-1,0-1s0,0.3,0,1s0,1.7,0,2.9
		c0,2.6,0,6.4,0,11.3c0,9.8,0,24.1,0.1,41.6c0,4.4,0,9,0,13.8v1.5c0,0-0.3,0-0.2,0c0,0.1,0-0.2,0-0.1h13.6h33H196
		c0,0.1,0.1-0.2,0.1,0.2h-0.2c0-13.4,0-26.5,0-39.1c0-6.3,0-12.5,0-18.6v-14.4c-0.2,0,0.2-0.1,0.2,0s0-0.2,0,0.2h-3.4H131L74.1,111z
		"/>
	<rect x="50.6" y="261" class="st0" width="19.1" height="68.4"/>
	<path class="st3" d="M69.7,329.4c0-0.1,0-0.2,0-0.4c0-0.2,0-0.6,0-1c0-0.9,0-2.2-0.1-3.9c0-3.4,0-8.4-0.1-14.5
		c0-12.3-0.1-29.3-0.1-48.6l0.3,0.2H50.6L51,261c-0.1,29.6-0.2,55.3-0.2,68.4l-0.2-0.1h14.1h3.7L69.7,329.4l-1.2-0.1h-3.6H50.6h-0.2
		v-0.1c0-13.1-0.1-38.8-0.2-68.4v-0.2H70v0.3c0,19.3-0.1,36.5-0.1,48.7c0,6.1-0.1,11-0.1,14.4c0,1.7,0,3-0.1,3.9c0,0.4,0,0.8,0,1
		S69.7,329.4,69.7,329.4z"/>
	<rect x="198.5" y="260.4" class="st0" width="19.1" height="69"/>
	<path class="st3" d="M217.6,329.4c0-0.1,0-0.2,0-0.4c0-0.2,0-0.6,0-1c0-0.9,0-2.2,0-4c0-3.4-0.1-8.4-0.1-14.6
		c0-12.4-0.1-29.6-0.1-49l0.3,0.2h-19.2l0.3-0.2c-0.1,29.8-0.1,55.8-0.2,69l-0.2-0.1h14.1h3.7L217.6,329.4l-1.2,0h-3.6h-14.2h-0.2
		v-0.1c0-13.2-0.1-39.1-0.2-69v-0.2h19.8v0.2c-0.1,19.5-0.1,36.8-0.1,49.2c0,6.2-0.1,11.1-0.1,14.6c0,1.7,0,3-0.1,3.9
		c0,0.4,0,0.8,0,1S217.6,329.4,217.6,329.4z"/>
	<polygon class="st0" points="226.6,263.4 43.5,263.8 43.5,196 226.6,196 	"/>
	<path class="st3" d="M226.6,263.4c0,0,0-0.4,0-1.2s0-2,0-3.5c0-3.1,0-7.6-0.1-13.4c0-11.6-0.1-28.4-0.1-49.4l0.2,0.2l-183.1,0.1
		l0.3-0.3v0.2c0,23.6,0,46.4,0,67.6l-0.3-0.3l131.1-0.1h38.2H223h2.7L226.6,263.4c0.1-0.1-0.2-0.1-0.8-0.1h-2.6l-10.2,0.1l-38.1,0.2
		L43.5,264h-0.3v-0.3c0-21.2,0-44,0-67.6v-0.5h0.3l183.1,0.1h0.2v0.4c-0.1,21-0.1,37.9-0.1,49.6c0,5.8,0,10.3-0.1,13.3
		c0,1.5,0,2.6,0,3.4S226.6,263.4,226.6,263.4z"/>
	<path class="st3" d="M211.5,250c0,0,0-0.3,0-0.8s0-1.3,0-2.2c0-2,0-4.9-0.1-8.7c0-7.6-0.1-18.5-0.1-32.3l0.2,0.2l-154.2,0.1l0,0
		l0.4-0.3c0,15.3,0,30.1,0,44l-0.4-0.3l110.3,0.1l32.2,0.1h8.6h2.2L211.5,250c0.1-0.1-0.2-0.1-0.7-0.1h-2.2H200l-32.1,0.1
		l-110.5,0.1H57V250c0-13.9,0-28.7,0-44v-0.3h0.4l154.2,0.1h0.2v0.2c-0.1,13.8-0.1,24.8-0.1,32.4c0,3.8-0.1,6.6-0.1,8.6
		c0,1,0,1.7,0,2.2S211.5,250,211.5,250z"/>
	<path class="st3" d="M62.8,244.2c0.1,0.1-1,1.4-2.4,2.9s-2.8,2.6-2.9,2.5s1-1.4,2.4-2.9S62.7,244.1,62.8,244.2z"/>
	<path class="st3" d="M62.8,211.8c-0.1,0.1-1.5-1.1-3-2.7s-2.7-3-2.5-3.1s1.5,1.1,3,2.7S63,211.7,62.8,211.8z"/>
	<path class="st3" d="M211.8,206.2c0.2,0.1-1.3,1.6-3.4,3.1c-1.2,1-2.5,1.9-3.9,2.6c-0.2-0.1,1.3-1.6,3.4-3
		C209.1,207.8,210.4,206.9,211.8,206.2z"/>
	<path class="st3" d="M211.5,250c-0.1,0.1-1.8-1.1-3.7-2.7s-3.3-3-3.2-3.1s1.8,1.1,3.7,2.6S211.6,249.9,211.5,250z"/>
	<path class="st3" d="M204.6,244.2c0,0,0-0.2,0-0.6s0-0.9,0-1.6c0-1.5,0-3.6-0.1-6.4c0-5.6-0.1-13.6-0.1-23.9l0.2,0.2l-141.1,0.1
		l0,0l0.4-0.3c0,11.2,0,22,0,32.4l-0.4-0.3l100.7,0.1l29.6,0.1h8h2.1L204.6,244.2c0.1-0.1-0.1-0.1-0.6-0.1h-2h-7.9l-29.6,0.1
		l-101,0.1h-0.4v-0.3c0-10.4,0-21.3,0-32.4v-0.3h0.4l141.1,0.1h0.2v0.2c-0.1,10.3-0.1,18.4-0.1,24c0,2.8,0,4.9,0,6.3
		c0,0.7,0,1.2,0,1.6S204.6,244.2,204.6,244.2z"/>
	<path class="st3" d="M147,225c-1.1-0.6-2.2-1.1-3.4-1.5c-1.1-0.3-2.2-0.5-3.4-0.5h-9.4c-2.8,0-5.4,0.9-7.5,2.8
		c-0.4,0.4-0.8,0.8-1.1,1.3c-0.9,1.4-0.8,3.2,0.4,4.4c1.2,1.1,3.7,0.6,3.9-1c-0.1,2.1,2.2,3.8,4.3,3.6c2.2-0.2,4-1.7,4.6-3.8
		c0.1,1.9,1.5,3.4,3.4,3.5c1.9,0.1,3.5-1.2,3.9-3c1.2,1.4,2.9,2.8,4.9,2.2c1.1-0.3,2-1.2,2.3-2.4C150.4,228.3,148.9,226.2,147,225z"
		/>
	<rect x="30.3" y="183.7" class="st0" width="207.2" height="16.3"/>
	<path class="st3" d="M237.5,200c0,0,0-0.4,0-1.1s0-1.8,0-3.1c0-2.8-0.1-6.8-0.1-12.1l0.1,0.1L30.3,184l0,0l0.4-0.3
		c0,5.6,0,11.1,0,16.3l-0.3-0.3l147,0.1l44.1,0.1h12h3.1c0.7,0,1.1,0,1.1,0s-0.3,0-1,0h-3.1l-11.9,0.1l-44,0.1l-147.2,0.1H30v-17
		h0.4l207.2,0.2h0.1v0.1c0,5.3-0.1,9.4-0.1,12.2c0,1.4,0,2.4,0,3.1S237.5,200,237.5,200z"/>
</g>
<g id="freepik--Floor--inject-185">
	<path class="st5" d="M483.4,329.5c0,0.1-104.5,0.3-233.4,0.3s-233.4-0.1-233.4-0.3s104.5-0.3,233.4-0.3S483.4,329.3,483.4,329.5z"
		/>
</g>
<g id="freepik--Disks--inject-185">
	<path class="st5" d="M404.1,475.5H304c-1.9,0-3.8-0.8-5.1-2.2l-39.1-40.1c-0.7-0.8-0.7-2,0.1-2.7c0.4-0.3,0.8-0.5,1.3-0.5h102.3
		c0.5,0,1,0.2,1.4,0.6l40.6,41.7c0.7,0.8,0.7,2,0,2.7C405.1,475.3,404.6,475.5,404.1,475.5z"/>
	<path class="st6" d="M405.5,472.2c-0.1,0-0.3,0-0.4,0h-1.2l-4.8,0.1l-17.6,0.4l-58,1l-21.4,0.3H302l-0.1-0.1l-30.2-31.2l-8.7-9
		l-2.3-2.5l-0.6-0.6c-0.1-0.1-0.2-0.2-0.2-0.2c0.1,0.1,0.2,0.1,0.2,0.2l0.6,0.6c0.6,0.6,1.4,1.4,2.4,2.4l8.9,9l30.3,31.1l-0.2-0.1
		l21.4-0.4l58-0.9l17.6-0.2h4.8h1.2L405.5,472.2z"/>
	<path class="st6" d="M371,471.4H270.9c-1.9,0-3.8-0.8-5.1-2.2l-39.1-40.1c-0.7-0.8-0.7-2,0-2.7c0.4-0.3,0.8-0.5,1.3-0.5h102.4
		c0.5,0,1,0.2,1.4,0.6l40.6,41.7c0.7,0.8,0.7,2-0.1,2.7C372,471.2,371.5,471.4,371,471.4z"/>
	<g class="st7">
		
			<ellipse transform="matrix(7.376043e-02 -0.9973 0.9973 7.376043e-02 -168.9984 713.4763)" class="st2" cx="299.6" cy="447.7" rx="18.3" ry="44.5"/>
	</g>
	<path class="st2" d="M339.5,448.3c-0.5,0.3-1.1,0.6-1.6,0.8c-4.3,1.7-9.1,1.5-13.1-0.7c-1.6-0.7-2.9-2-3.7-3.6
		c-0.4-0.9-0.4-1.9,0-2.9c0.4-1,1.3-1.8,2.3-1.9c1.1-0.1,2.2,0.5,2.8,1.4c0.7,0.9,1,2.1,0.7,3.2c-0.3,1.1-0.9,2.2-1.8,2.9
		c-0.9,0.8-1.9,1.4-3,1.9c-4.8,2.1-10.4,1.6-14.7-1.4c-1.2-0.8-2.1-1.9-2.6-3.2c-0.6-1.4-0.5-2.9,0.3-4.2c0.4-0.7,0.9-1.2,1.6-1.5
		c0.7-0.3,1.5-0.4,2.3-0.2c1.5,0.5,2.5,1.8,2.8,3.4c0.2,1.5-0.2,3.1-1.1,4.3c-0.9,1.2-2,2.3-3.4,3.1c-2.7,1.6-5.9,2.3-9,1.9
		c-3.2-0.3-6.1-1.9-7.9-4.5c-0.9-1.3-1.2-2.9-0.9-4.5c0.4-1.5,1.5-2.7,3-3.3c0.7-0.3,1.6-0.3,2.3,0c0.7,0.3,1.4,0.8,1.8,1.4
		c0.8,1.3,1.1,2.8,0.6,4.3c-0.4,1.4-1.2,2.6-2.2,3.6c-1,1-2.1,1.8-3.3,2.5c-4.7,2.4-10.3,2.2-14.8-0.5c-2-1.2-3.6-3.1-4.4-5.3
		c-0.7-2.2,0-4.5,1.7-6c1.7-1.3,4.1-0.9,5.4,0.7c0.6,0.8,0.7,1.7,0.5,2.7c-0.2,0.8-0.7,1.6-1.4,2.2c-1.1,1-2.4,1.8-3.8,2.4
		c-1.2,0.5-2.4,0.9-3.6,1.2c-1.7,0.4-3.4,0.7-5.2,0.8c-0.6,0-1.2,0-1.8,0h0.5c0.3,0,0.8,0,1.4-0.1c3-0.2,6-0.9,8.7-2.1
		c1.4-0.5,2.7-1.3,3.7-2.3c0.6-0.5,1-1.2,1.2-2c0.2-0.8,0.1-1.7-0.4-2.4c-1.2-1.5-3.4-1.8-4.9-0.6c-1.6,1.4-2.2,3.6-1.5,5.6
		c0.8,2.1,2.3,3.9,4.2,5.1c4.4,2.7,9.8,2.8,14.3,0.5c1.2-0.6,2.2-1.4,3.2-2.4c1-0.9,1.7-2.1,2.1-3.4c0.4-1.3,0.2-2.7-0.6-3.9
		c-0.8-1.2-2.2-1.6-3.5-1.2c-1.3,0.5-2.3,1.6-2.7,3c-0.3,1.4,0,2.9,0.8,4c1.8,2.4,4.5,4,7.5,4.2c3,0.4,6-0.3,8.6-1.8
		c1.3-0.7,2.3-1.7,3.2-2.9c0.9-1.1,1.3-2.6,1.1-4c-0.2-1.4-1.2-2.5-2.5-3c-0.6-0.2-1.3-0.1-1.9,0.1c-0.6,0.3-1.1,0.8-1.4,1.3
		c-0.7,1.1-0.8,2.6-0.3,3.8c0.5,1.2,1.4,2.2,2.5,3c2.1,1.5,4.6,2.4,7.1,2.6c2.4,0.2,4.9-0.2,7.1-1.2c1.1-0.4,2-1.1,2.9-1.8
		c0.8-0.7,1.4-1.7,1.7-2.7c0.5-2-1.2-4.4-3.1-4.2c-0.9,0.1-1.7,0.8-2,1.7c-0.3,0.8-0.3,1.8,0,2.6c0.7,1.5,2,2.8,3.5,3.5
		c2.4,1.3,5.1,1.9,7.9,1.8c1.7-0.1,3.4-0.4,5.1-1C338.9,448.6,339.5,448.3,339.5,448.3z"/>
	<path class="st5" d="M372.4,468.1c-0.1,0-0.3,0-0.4,0l-1.2,0l-4.8,0.1l-17.6,0.4l-58,1L269,470h-0.1l-0.1-0.1l-30.2-31.2l-8.8-9.1
		l-2.3-2.5l-0.6-0.6c-0.1-0.1-0.1-0.1-0.2-0.2l0.2,0.2l0.6,0.6l2.4,2.4c2.1,2.1,5.1,5.2,8.9,9l30.3,31.1l-0.2-0.1l21.4-0.4l58-0.9
		l17.6-0.2h4.8h1.3C372.1,468.1,372.3,468.1,372.4,468.1z"/>
	<path class="st8" d="M379.3,462.1H279.2c-1.9,0-3.8-0.8-5.1-2.2l-39.1-40.1c-0.7-0.8-0.7-2,0-2.7c0.4-0.3,0.8-0.5,1.3-0.5h102.4
		c0.5,0,1,0.2,1.4,0.6l40.6,41.7c0.7,0.8,0.7,2,0,2.7C380.3,461.9,379.8,462.1,379.3,462.1z"/>
	<g class="st7">
		
			<ellipse transform="matrix(7.376043e-02 -0.9973 0.9973 7.376043e-02 -152.047 713.1439)" class="st2" cx="307.9" cy="438.4" rx="18.3" ry="44.5"/>
	</g>
	<path class="st2" d="M347.8,439c-0.5,0.3-1.1,0.6-1.6,0.8c-1.6,0.7-3.4,1.1-5.1,1.1c-2.8,0.1-5.5-0.5-8-1.8c-1.6-0.7-2.9-2-3.7-3.6
		c-0.4-0.9-0.4-1.9,0-2.9c0.4-1,1.3-1.8,2.3-1.9c1.1,0,2.2,0.5,2.8,1.4c0.7,0.9,1,2.1,0.7,3.2c-0.3,1.1-0.9,2.2-1.8,2.9
		c-0.9,0.8-1.9,1.5-3,1.9c-4.8,2.1-10.4,1.6-14.7-1.4c-1.2-0.8-2.1-1.9-2.6-3.2c-0.6-1.4-0.5-2.9,0.3-4.2c0.4-0.7,0.9-1.2,1.6-1.5
		c0.7-0.3,1.5-0.4,2.3-0.2c1.5,0.5,2.5,1.8,2.8,3.4c0.2,1.5-0.2,3.1-1.1,4.4c-0.9,1.2-2,2.3-3.4,3.1c-2.7,1.6-5.9,2.3-9,1.9
		c-3.2-0.3-6.1-1.9-7.9-4.5c-0.9-1.3-1.2-2.9-0.9-4.5c0.4-1.5,1.5-2.7,3-3.3c0.7-0.3,1.6-0.3,2.3,0c0.7,0.3,1.4,0.8,1.8,1.4
		c0.8,1.3,1.1,2.8,0.6,4.3c-0.4,1.4-1.2,2.6-2.2,3.6c-1,1-2.1,1.8-3.3,2.5c-4.7,2.4-10.3,2.2-14.8-0.5c-2-1.2-3.6-3.1-4.4-5.4
		c-0.7-2.2,0-4.5,1.7-6c1.7-1.2,4.1-0.9,5.4,0.7c0.6,0.8,0.7,1.7,0.5,2.7c-0.2,0.8-0.7,1.6-1.4,2.2c-1.1,1-2.4,1.8-3.8,2.4
		c-1.2,0.5-2.4,0.9-3.6,1.2c-1.7,0.4-3.4,0.7-5.2,0.8c-0.6,0-1.2,0-1.8,0c0.2,0,0.3,0,0.5,0c0.3,0,0.8,0,1.4-0.1
		c1.7-0.1,3.4-0.4,5.1-0.8c1.2-0.3,2.4-0.7,3.5-1.2c1.4-0.5,2.7-1.3,3.7-2.3c0.6-0.5,1-1.2,1.2-2c0.2-0.8,0.1-1.7-0.4-2.4
		c-1.2-1.5-3.4-1.8-4.9-0.6c-1.6,1.4-2.2,3.6-1.5,5.6c0.8,2.1,2.2,3.9,4.2,5.1c4.4,2.7,9.8,2.8,14.3,0.5c1.2-0.6,2.2-1.4,3.2-2.4
		c1-0.9,1.7-2.1,2.1-3.4c0.4-1.3,0.2-2.7-0.6-3.9c-0.7-1.2-2.1-1.7-3.4-1.3c-1.3,0.5-2.3,1.6-2.7,3c-0.3,1.4,0,2.9,0.8,4
		c1.8,2.4,4.5,4,7.5,4.2c3,0.4,6-0.2,8.6-1.8c1.3-0.8,2.3-1.8,3.2-2.9c0.9-1.1,1.2-2.6,1.1-4c-0.2-1.4-1.2-2.5-2.5-3
		c-0.6-0.2-1.3-0.1-1.9,0.1c-0.6,0.3-1.1,0.8-1.4,1.3c-0.7,1.1-0.8,2.6-0.2,3.8c0.5,1.2,1.4,2.2,2.5,3c2.1,1.5,4.6,2.4,7.1,2.6
		c2.4,0.2,4.9-0.2,7.1-1.2c1.1-0.4,2-1.1,2.9-1.8c0.8-0.7,1.4-1.7,1.7-2.7c0.5-2-1.2-4.4-3.1-4.2c-0.9,0.1-1.7,0.8-2,1.7
		c-0.3,0.8-0.3,1.8,0,2.6c0.7,1.5,2,2.8,3.5,3.5c4,2.1,8.7,2.4,13,0.8C347.2,439.3,347.7,439,347.8,439z"/>
	<path class="st5" d="M380.7,458.9h-0.4H379l-4.8,0.1l-17.6,0.4l-58,1l-21.4,0.3h-0.1l-0.1-0.1l-30.2-31.2l-8.8-9.1l-2.3-2.5
		l-0.6-0.6c-0.1-0.1-0.2-0.2-0.2-0.2s0.1,0.1,0.2,0.2l0.6,0.6l2.4,2.4l8.9,9l30.3,31.1l-0.2-0.1l21.4-0.4l58-0.9l17.6-0.2h4.8h1.2
		L380.7,458.9z"/>
</g>
<g id="freepik--record-player--inject-185">
	<rect x="28.4" y="349.2" class="st8" width="159.7" height="27.3"/>
	<polygon class="st8" points="188.2,349.2 179.1,328.6 37.7,330.5 28.4,349.2 	"/>
	<g class="st9">
		<polygon points="188.2,349.2 179.1,328.6 37.7,330.5 28.4,349.2 		"/>
	</g>
	<ellipse class="st6" cx="108" cy="336.5" rx="68.3" ry="11.2"/>
	<ellipse class="st5" cx="108" cy="335" rx="68.3" ry="11.2"/>
	<path class="st2" d="M130.3,335c0,2-10,3.6-22.3,3.6S85.7,337,85.7,335s10-3.6,22.3-3.6S130.3,333,130.3,335z"/>
	<path class="st5" d="M37.2,331V229.3h143.1v99.8L37.2,331z M38.2,230.2V330l141.1-1.9v-97.8L38.2,230.2z"/>
	<path class="st5" d="M57.1,315.2h0.5h1.5L65,315l22-0.3l76.6-1.1l-0.2,0.2c0-20.9,0-43.9,0-68.1l0.3,0.3H163l-106,0l0.2-0.2
		c0,21.1-0.1,38.5-0.1,50.5c0,6,0,10.7,0,14c0,1.6,0,2.8,0,3.7C57.2,314.8,57.2,315.2,57.1,315.2c0.1,0,0.1-0.4,0.1-1.2s0-2,0-3.6
		c0-3.2,0-7.9,0-13.9c0-12.1-0.1-29.5-0.1-50.6v-0.2h0.2l105.9-0.1h0.9v0.3c0,24.2,0,47.2,0,68.1v0.2h-0.2l-77,0.9l-21.9,0.2H59
		L57.1,315.2L57.1,315.2z"/>
	<path class="st5" d="M180.4,229.3c-0.8,0.9-1.6,1.7-2.4,2.5c-1.6,1.5-3.7,3.6-6,5.9s-4.3,4.5-5.8,6c-0.8,0.9-1.6,1.7-2.4,2.5
		c0,0,0.2-0.3,0.5-0.8s0.9-1.1,1.6-2c1.4-1.6,3.4-3.8,5.7-6.2s4.5-4.4,6.1-5.8c0.8-0.7,1.5-1.3,1.9-1.7
		C179.9,229.6,180.1,229.4,180.4,229.3z"/>
	<path class="st5" d="M180.3,329.9c-0.8-0.8-1.6-1.7-2.4-2.6c-1.5-1.6-3.5-3.9-5.9-6.2s-4.7-4.3-6.4-5.7c-1-0.7-1.9-1.5-2.7-2.3
		c0.3,0.1,0.6,0.3,0.8,0.5c0.5,0.3,1.2,0.9,2.1,1.5c2.3,1.7,4.5,3.6,6.5,5.6c2.1,2,4,4.1,5.9,6.3c0.7,0.9,1.2,1.5,1.6,2
		C180,329.3,180.2,329.6,180.3,329.9z"/>
	<path class="st5" d="M56.7,245.9c-1-0.7-1.9-1.5-2.7-2.3c-1.7-1.4-4-3.4-6.6-5.6s-5-4-6.7-5.4c-1-0.7-1.9-1.4-2.8-2.2
		c0.3,0.1,0.6,0.3,0.8,0.5c0.5,0.3,1.3,0.8,2.2,1.5c1.8,1.3,4.2,3.1,6.8,5.2s4.9,4.2,6.5,5.7c0.8,0.8,1.4,1.4,1.9,1.8
		C56.4,245.3,56.6,245.6,56.7,245.9z"/>
	<path class="st5" d="M57.7,315.6c0.1,0.1-4.3,3.4-9.9,7.3s-10.1,7-10.2,6.9s4.3-3.4,9.9-7.3S57.6,315.5,57.7,315.6z"/>
	<path class="st5" d="M114,293.5c0.4-0.4,0.8-0.8,1.2-1.1c0.8-0.7,1.9-1.7,3.4-2.8c2.9-2.4,6.9-5.5,11.5-8.9s8.8-6.3,11.9-8.4
		c1.6-1,2.8-1.9,3.7-2.4c0.4-0.3,0.9-0.6,1.4-0.8c-0.4,0.4-0.8,0.7-1.3,1l-3.6,2.5c-3.1,2.1-7.3,5.1-11.8,8.5s-8.7,6.5-11.6,8.8
		l-3.5,2.7C114.9,292.9,114.5,293.2,114,293.5z"/>
	<path class="st5" d="M75.2,293.5c0.4-0.4,0.8-0.8,1.2-1.1c0.8-0.7,1.9-1.7,3.4-2.8c2.9-2.4,6.9-5.5,11.5-8.9s8.8-6.3,11.9-8.4
		c1.6-1,2.8-1.9,3.7-2.4c0.4-0.3,0.9-0.6,1.4-0.8c-0.4,0.4-0.8,0.7-1.3,1l-3.6,2.5c-3.1,2.1-7.3,5.1-11.8,8.5s-8.7,6.5-11.6,8.8
		l-3.5,2.7C76.1,292.9,75.7,293.2,75.2,293.5z"/>
	<path class="st5" d="M86.3,299.6c-0.1-0.1,10.7-7.8,24-17.1s24.2-16.8,24.3-16.7s-10.7,7.8-24,17.1S86.4,299.7,86.3,299.6z"/>
	<path class="st3" d="M108.4,327.4L108.4,327.4c1,0,1.9,0.9,1.9,1.9v7.3l0,0h-3.8l0,0v-7.3C106.5,328.3,107.4,327.4,108.4,327.4z"/>
	<polygon class="st3" points="136.3,341.2 136.9,341.2 137.3,336.2 135.8,336.2 	"/>
	<rect x="133.8" y="332.1" class="st6" width="46" height="4.6"/>
	<path class="st6" d="M85.3,339.6c-0.6-0.1-1.2-0.3-1.8-0.6c-0.6-0.3-1.2-0.7-1.8-1.1c-0.7-0.6-1.2-1.3-1.5-2.1
		c-0.3-0.9-0.3-1.8,0.1-2.6c0.3-0.7,0.7-1.3,1.3-1.7c0.5-0.5,1.1-0.7,1.8-0.8c-0.5,0.3-1,0.7-1.5,1.1c-0.5,0.4-0.9,1-1.1,1.6
		c-0.3,0.7-0.3,1.6,0,2.3c0.6,1.4,1.7,2.5,3,3.1C84.3,338.9,84.8,339.2,85.3,339.6z"/>
	<path class="st6" d="M76.2,338.8c-0.5-0.4-0.9-0.9-1.1-1.6c-1.4-3,0-6.6,3-8c0.6-0.3,1.2-0.5,1.9-0.4c0,0.1-0.7,0.2-1.7,0.8
		c-2.7,1.4-3.9,4.7-2.8,7.5C75.8,338.2,76.3,338.8,76.2,338.8z"/>
	<path class="st6" d="M71.7,337c-0.1,0-0.3-0.3-0.4-0.9c-0.2-0.7-0.1-1.5,0.1-2.3c0.2-0.8,0.6-1.4,1.2-2c0.4-0.4,0.8-0.5,0.8-0.5
		c-0.6,0.8-1.1,1.7-1.5,2.6C71.7,335,71.6,336,71.7,337z"/>
	<circle class="st5" cx="53.4" cy="359.9" r="2.9"/>
	<circle class="st5" cx="115.4" cy="359.9" r="2.9"/>
	<rect x="66.3" y="357" class="st5" width="16.1" height="5.8"/>
	<rect x="85.4" y="357" class="st2" width="4.9" height="5.8"/>
	<rect x="93.1" y="357" class="st2" width="4.9" height="5.8"/>
	<rect x="100.8" y="357" class="st6" width="4.9" height="5.8"/>
	<path class="st6" d="M124,362h-8.6c-2.4-0.4-2.3-3.5,0-4.2h8.6c1.1,0,2.1,0.9,2.1,2.1l0,0C126.1,361.1,125.1,362,124,362
		C124,362,124,362,124,362z"/>
</g>
<g id="freepik--speech-bubble--inject-185">
	<path class="st2" d="M322.3,129.3l-10.7-0.2c-13.4,13.6-35.3,13.7-48.9,0.2c-13.6-13.4-13.7-35.3-0.2-48.9
		c13.4-13.6,35.3-13.7,48.9-0.2c10.2,10.1,13.1,25.5,7.2,38.7l0,0L322.3,129.3z"/>
	<path class="st5" d="M322.3,129.3c0,0-0.1-0.2-0.3-0.7s-0.4-1.1-0.7-2c-0.6-1.8-1.6-4.3-2.8-7.7h0.2l0,0l-0.5,0.6l0.3-0.8
		c3-6.8,3.8-14.5,2-21.8c-0.5-1.8-1.1-3.7-1.8-5.4c-1.6-3.8-3.9-7.4-6.8-10.4c-6.7-7-16-10.9-25.6-10.7c-11,0.2-21.1,5.7-27.4,14.7
		c-0.4,0.6-0.8,1.2-1.2,1.8l-1,1.8l-0.5,0.9l-0.4,1l-0.8,1.9c-0.2,0.6-0.4,1.3-0.6,2c-0.2,0.7-0.4,1.3-0.6,2c-0.3,1.3-0.6,2.7-0.7,4
		c-0.6,5.3-0.1,10.6,1.7,15.6c4.8,13.3,17.2,22.3,31.4,22.7c1.9,0.1,3.8,0,5.7-0.3c1.8-0.3,3.5-0.7,5.2-1.1
		c5.5-1.6,10.4-4.6,14.4-8.6l0,0h0l8,0.2l2.1,0.1L322.3,129.3l-0.7,0h-2l-8-0.1h0.1c-4,4.1-9,7.1-14.5,8.8c-1.7,0.5-3.5,0.9-5.3,1.2
		c-1.9,0.2-3.8,0.3-5.8,0.3c-9-0.2-17.6-4-23.8-10.4c-3.6-3.6-6.3-7.9-8-12.7c-1.8-5.1-2.3-10.5-1.7-15.8c0.2-1.4,0.4-2.7,0.7-4.1
		c0.2-0.7,0.3-1.3,0.6-2c0.2-0.7,0.4-1.3,0.7-2l0.8-1.9l0.4-1l0.5-0.9l1-1.9c0.4-0.6,0.8-1.2,1.2-1.8c6.4-9.1,16.7-14.6,27.8-14.9
		c9.8-0.2,19.2,3.8,25.9,10.9c2.9,3.1,5.2,6.6,6.8,10.5c0.7,1.8,1.3,3.6,1.8,5.5c0.4,1.7,0.7,3.5,0.8,5.3c0.4,5.7-0.6,11.5-3,16.7
		l-0.2-0.1l0,0l0.1-0.2l0.1,0.2l2.7,7.8l0.7,2C322.3,129.1,322.3,129.3,322.3,129.3z"/>
	<path class="st5" d="M322.3,129.3c0,0-0.1-0.2-0.2-0.7s-0.4-1.1-0.7-2l-2.7-7.8c0-0.1-0.1-0.1-0.2-0.1c0,0,0,0,0,0l0,0l0.2,0.1
		c2.4-5.2,3.4-11,3-16.7c-0.1-1.8-0.4-3.6-0.8-5.3c-0.5-1.9-1-3.7-1.8-5.5c-1.6-3.9-3.9-7.5-6.8-10.5c-6.8-7.1-16.2-11-26-10.8
		c-11.1,0.2-21.4,5.8-27.8,14.9l-1.2,1.8l-1,1.9l-0.5,0.9l-0.4,1l-0.8,2c-0.2,0.7-0.4,1.3-0.7,2c-0.2,0.7-0.4,1.3-0.6,2
		c-0.3,1.3-0.6,2.7-0.7,4.1c-1.9,15.5,6.8,30.3,21.2,36.3c3.9,1.6,8.1,2.5,12.3,2.6c1.9,0,3.9-0.1,5.8-0.3c1.8-0.3,3.5-0.7,5.2-1.2
		c5.5-1.7,10.5-4.7,14.5-8.8h-0.1l8,0.1L322.3,129.3l-0.7,0l-2.1-0.1l-7.9-0.3c0,0-0.1,0-0.1,0c-4,4-9,7-14.5,8.6
		c-1.7,0.5-3.4,0.9-5.2,1.1c-1.9,0.2-3.8,0.3-5.7,0.3c-14.1-0.5-26.6-9.5-31.3-22.8c-1.7-5-2.3-10.3-1.7-15.6c0.2-1.3,0.4-2.7,0.7-4
		c0.1-0.7,0.3-1.3,0.6-2c0.2-0.7,0.4-1.3,0.6-2l0.8-1.9l0.4-0.9l0.5-0.9l1-1.8l1.2-1.8c3.1-4.6,7.3-8.3,12.2-10.8
		c4.7-2.5,9.8-3.8,15.1-3.9c9.7-0.2,19,3.7,25.6,10.7c2.9,3,5.2,6.5,6.8,10.4c0.7,1.8,1.3,3.6,1.8,5.4c0.4,1.7,0.7,3.5,0.8,5.2
		c0.4,5.7-0.5,11.4-2.9,16.6c0,0.1,0,0.1,0.1,0.2c0,0,0,0,0,0c0,0,0.1,0,0.1,0l0,0h-0.2c1.2,3.3,2.2,5.9,2.8,7.7
		c0.3,0.9,0.6,1.5,0.7,2S322.3,129.3,322.3,129.3z"/>
	<path class="st5" d="M295.9,93.2L295.9,93.2c-0.1-0.5-3.9,0.2-8.3-0.5c-1.9-0.3-3.7-0.9-5.3-1.8c-0.6-0.3-1.1-0.7-1.6-1.1
		c-0.1-0.4-0.2-0.6-0.3-0.6c-0.5,0-0.9,5.1-1.3,11.4c-0.1,2.5-0.1,4.9,0,7.4c-1.9-2-5-2.2-7.1-0.4c-2,1.9-2.2,5-0.4,7.1
		s5,2.2,7.1,0.4c1.3-1.2,1.9-3,1.5-4.8c0.2-2,0.2-5.6,0.5-9.6c0.1-2,0.2-3.8,0.2-5.4c2,1.6,4.4,2.6,7,2.8c2.5,0.4,5,0,7.2-1
		c-0.2,2-0.4,4.6-0.6,7.4c-0.1,2.5-0.1,4.9,0,7.4c-0.3-0.3-0.7-0.7-1.1-0.9c-2.4-1.4-5.4-0.7-6.9,1.6c-1.4,2.4-0.7,5.4,1.6,6.9
		s5.4,0.7,6.9-1.6c0.7-1.1,0.9-2.4,0.6-3.7c0.2-2,0.2-5.6,0.5-9.6C296.7,98.4,296.4,93.2,295.9,93.2z M288.1,96.4
		c-2.4-0.4-4.8-1-7.1-1.8c0-1.4-0.1-2.7-0.1-3.6c0.2,0.3,0.5,0.5,0.7,0.8c1.7,1.4,3.7,2.2,5.8,2.5c4.2,0.7,7.7-0.4,8.4-1
		c-0.3,1-0.4,2-0.5,3C292.9,96.6,290.5,96.7,288.1,96.4z"/>
</g>
<g id="freepik--Character--inject-185">
	<path class="st10" d="M440.4,156.2c-0.4-11.3-0.8-22.7-3-33.9s-4.9-22-11.9-30.9l-65.2,3.5c-2.5,10-5,20.3-4,30.7
		c1,10,5.4,19.7,4.7,29.7c-0.5,7.1-3.5,13.7-5.7,20.5s-3.6,14.2-1,20.9c0.6,1.7,1.7,3.2,3.1,4.3c1.8,1.2,4.2,1.2,6.4,1.2
		c26.1,0,52.1-0.6,78.2-1.8C441.5,185.6,441,170.9,440.4,156.2z"/>
	<path class="st8" d="M367.1,184.2l12.6-3.7l38.2-3.8c0,0,30.2,12.1,35.4,19.1S442,285.9,442,285.9l7.2,24.8
		c0.9,3.4,5.4,15.7,1.9,16l-101.4,2.5l4.5-50.1c0-0.5-4.5-45.4-4.5-45.4c1.2,2.2,4.1-27.4,4.1-27.4L367.1,184.2z"/>
	<path class="st8" d="M367.1,184.2c0,0-20.4,5.9-28.5,36.5l-12.7,27.4l25.4,6.3L367.1,184.2z"/>
	<path class="st10" d="M353.7,212.6c0,0.5-0.1,1.1-0.2,1.6c-0.2,1.1-0.4,2.6-0.6,4.4c-0.5,3.7-1.1,8.9-1.6,14.6
		c-0.4,4.9-0.5,9.8-0.4,14.7c0.1,0.9,0.1,1.8,0.2,2.5c0.1,0.6,0.2,1.3,0.3,1.9c0.2,1,0.5,1.5,0.4,1.6c-0.1-0.1-0.1-0.2-0.2-0.4
		c-0.2-0.4-0.3-0.7-0.4-1.1c-0.2-0.6-0.3-1.3-0.4-1.9c-0.1-0.7-0.2-1.6-0.3-2.5c-0.3-4.9-0.2-9.8,0.2-14.7
		c0.4-5.7,1.1-10.9,1.7-14.6c0.3-1.9,0.6-3.4,0.8-4.4C353.4,213.7,353.5,213.2,353.7,212.6z"/>
	<g class="st9">
		<path d="M353.7,216.3c-5.5,11.1-6.4,23.9-2.4,35.6C350.9,240,351.7,228.1,353.7,216.3"/>
	</g>
	<path class="st10" d="M451.8,327.5l-0.5-2.3l-21.2,0.7l-3.8-6.4c-13.9-21.4-22.5-29.8-41.8-28l0,0c-7.3,0.7-14.2,3.5-19.8,8.1
		l-17.1,13.4c-26.6-7.2-67-18.6-87.7-24.4c-8.5-2.4-17.6-1-25,3.8l-0.4,0.2c-10.9,7-16.2,20.1-13.2,32.7l0,0
		c1.9,8,6.8,14.9,13.9,19.2c10.5,6.4,26.7,16.3,40.7,24.7l-1.9,1.4l12.3,20.3l25.4-7.9c16.3-2.3,50.7-6.8,54.2-7.3
		c18.3,12.5,40.5,18.2,65,4.8c8.5-4.7,14.5-11.8,18.2-21.2C453.1,349.2,454,338.1,451.8,327.5z"/>
	<path class="st6" d="M276.6,373c0,0-12.2,2.6-23.1,1c-10.2-1.5-33.1,0-33.1,13.5c0,15,30.5,11.3,42.4,8.9s23.8-4.5,23.8-4.5
		L276.6,373z"/>
	<path class="st10" d="M249.2,392.3c-1.2-3.4-2-7-2.4-10.6c0.7,1.7,1.2,3.4,1.5,5.2C248.8,388.7,249.1,390.4,249.2,392.3z"/>
	<path class="st10" d="M253.4,392.5c-0.5-1.7-0.9-3.5-1-5.4c-0.3-1.8-0.5-3.6-0.4-5.4c0.5,1.7,0.9,3.5,1,5.4
		C253.3,388.8,253.4,390.6,253.4,392.5z"/>
	<path class="st10" d="M257.4,390.9c-0.5-1.5-0.8-3.1-0.9-4.7c-0.3-1.6-0.4-3.2-0.3-4.8c0.5,1.5,0.8,3.1,0.9,4.7
		C257.4,387.7,257.5,389.3,257.4,390.9z"/>
	<path class="st10" d="M263.7,389.3c-1.4-2.5-2.1-5.4-2-8.3c0.4,1.4,0.8,2.7,1,4.1C263.2,386.5,263.5,387.9,263.7,389.3z"/>
	<path class="st10" d="M265.1,383.8c0.5-0.1,1.1-0.1,1.6-0.1c1.5,0,2.9,0.3,4.3,0.8c0.5,0.2,0.9,0.4,1.3,0.7
		c0.5,0.3,0.8,0.9,0.8,1.5c-0.1,1.2-1.2,2.2-2.4,2.1c-0.1,0-0.2,0-0.3-0.1c-1.3-0.4-2.4-1.2-3.2-2.3c-2.6-3.3-2.8-7.9-0.5-11.5
		c0.2-0.3,0.6-0.5,0.9-0.5c0.4-0.1,0.7,0.1,1,0.3c0.4,0.4,0.7,1,0.8,1.6c0.1,1,0.1,2.1-0.2,3c-0.3,1.4-1.1,2.8-2.1,3.9
		c-0.3,0.3-0.6,0.6-0.9,0.8c-0.2,0.2-0.3,0.2-0.4,0.2c0,0,0.4-0.4,1.1-1.1c0.9-1.1,1.5-2.4,1.8-3.8c0.2-1,0.2-1.9,0.1-2.9
		c-0.1-0.5-0.3-1-0.6-1.3c-0.3-0.3-0.8-0.2-1.1,0.1c0,0-0.1,0.1-0.1,0.1c-2.1,3.4-1.9,7.7,0.5,10.8c0.7,1,1.7,1.7,2.8,2.1
		c0.9,0.2,1.9-0.3,2.1-1.3c0-0.1,0-0.1,0-0.2c0-0.5-0.3-0.9-0.6-1.1c-0.4-0.3-0.8-0.5-1.2-0.7c-1.3-0.5-2.7-0.9-4.1-1
		C265.6,383.9,265.1,383.9,265.1,383.8z"/>
	<path class="st10" d="M285.4,390c-0.1,0-0.2,0.1-0.3,0.1l-0.9,0.2l-3.5,0.8c-3.1,0.7-7.5,1.6-13.1,2.7s-12.2,2.3-19.6,3.3
		c-3.9,0.6-7.8,0.8-11.8,0.6c-2.1-0.1-4.2-0.5-6.2-1.2c-1-0.3-2-0.8-3-1.3c-1-0.5-1.9-1.2-2.6-2.1v0.1c-0.4-0.4-0.8-0.8-1.1-1.3
		c-1.2-2-1.4-4.4-0.6-6.6c0.7-2.1,2.1-3.9,3.9-5.1c1.7-1.2,3.6-2.1,5.6-2.8c1-0.3,1.9-0.6,2.9-0.8s1.9-0.5,2.9-0.6
		c7.6-1.2,14.6-0.6,20.4-0.6c2.9,0,5.5,0,7.8-0.2c2-0.1,3.9-0.4,5.9-0.7l2.1-0.4l1.5-0.4l0.9-0.3c0.1,0,0.2-0.1,0.3-0.1l-0.3,0.1
		l-0.9,0.3l-1.5,0.5l-2.1,0.5c-1.9,0.4-3.9,0.7-5.9,0.8c-2.3,0.2-4.9,0.3-7.8,0.2c-5.8,0-12.7-0.5-20.3,0.7c-1,0.1-1.9,0.4-2.8,0.6
		s-1.9,0.5-2.8,0.8c-1.9,0.6-3.8,1.5-5.4,2.7c-1.7,1.2-3,2.9-3.7,4.8c-0.7,2-0.5,4.2,0.6,6.1c0.3,0.4,0.6,0.8,1,1.1l0,0l0,0
		c0.7,0.8,1.5,1.4,2.4,1.9c0.9,0.5,1.9,0.9,2.9,1.3c1.9,0.6,4,1,6,1.2c3.9,0.2,7.8,0.1,11.7-0.5c7.4-1,14.1-2.2,19.6-3.2
		s10-1.9,13.1-2.5l3.6-0.7l0.9-0.2C285.1,390,285.3,390,285.4,390z"/>
	<path class="st10" d="M240.8,397.2c-0.2-1-0.3-2.1-0.3-3.1c-0.1-1.9-0.4-4.6-0.8-7.5s-0.9-5.5-1.2-7.4c-0.3-1-0.4-2-0.5-3.1
		c0.4,1,0.7,2,0.9,3c0.6,2.5,1.1,4.9,1.4,7.4c0.3,2.5,0.5,5,0.6,7.6C241,395.1,240.9,396.1,240.8,397.2z"/>
	<path class="st6" d="M307.8,344c-0.1,0.1-9.8-7-21.8-15.9s-21.5-16.2-21.4-16.3s9.9,7,21.8,15.9S307.9,343.9,307.8,344z"/>
	<path class="st6" d="M402.7,342.7c0,0-0.1,0.1-0.2,0.2l-0.7,0.6l-2.9,2.3l-2.1,1.7c-0.8,0.6-1.7,1.2-2.6,1.8l-3,2.1
		c-0.5,0.4-1.1,0.8-1.6,1.1l-1.8,1.1c-2.5,1.5-5.1,3.2-8.1,4.7c-1.5,0.8-3,1.6-4.6,2.4l-5,2.4c-6.9,3.1-14.6,6.3-22.9,9.1
		c-16.6,5.7-31.9,9.8-42.9,13.1c-2.8,0.8-5.2,1.6-7.4,2.2s-4,1.3-5.6,1.8l-3.5,1.1l-0.9,0.3c-0.1,0-0.2,0.1-0.3,0.1l0.3-0.1l0.9-0.3
		l3.5-1.2c1.5-0.5,3.4-1.2,5.5-1.9s4.6-1.5,7.4-2.3c11-3.4,26.2-7.6,42.8-13.3c8.3-2.8,16-6,22.9-9.1l5-2.4c1.6-0.8,3.1-1.6,4.6-2.4
		c3-1.5,5.7-3.2,8.1-4.6l1.8-1.1l1.7-1.1l3-2c0.9-0.6,1.9-1.2,2.6-1.8l2.1-1.6l3-2.2l0.8-0.6C402.5,342.8,402.6,342.7,402.7,342.7z"
		/>
	<path class="st6" d="M404.9,352.2c-0.3,0.2-0.6,0.4-0.9,0.5c-0.6,0.3-1.5,0.6-2.6,1c-2.9,1.1-5.9,1.9-8.9,2.6
		c-3,0.7-6.1,1.1-9.2,1.3c-1.2,0.1-2.1,0.1-2.8,0.1c-0.3,0-0.7,0-1-0.1c1.3-0.2,2.5-0.4,3.8-0.5c3.1-0.3,6.1-0.8,9.1-1.5
		c3.5-0.8,6.6-1.7,8.9-2.4C402.5,352.9,403.7,352.5,404.9,352.2z"/>
	<path class="st6" d="M361.1,302.9c0.1,0.1-19.3,15.4-43.4,34.1s-43.6,33.7-43.8,33.6s19.3-15.4,43.4-34.1S361,302.8,361.1,302.9z"
		/>
	<path class="st6" d="M451.2,354.9c0,0,0,0.1-0.1,0.3s-0.1,0.5-0.2,0.8c-0.2,0.7-0.6,1.8-1.1,3.1c-1.4,3.8-3.2,7.4-5.5,10.7
		c-3.5,4.9-8.1,8.9-13.5,11.7c-13,7.2-28.3,9-42.6,5.2c-5.8-1.6-11.3-4-16.3-7.3c-3.4-2.2-6.5-4.8-9.4-7.6c-1-1-1.7-1.8-2.2-2.4
		l-0.5-0.7c-0.1-0.1-0.1-0.1-0.2-0.2c0,0,0.1,0.1,0.2,0.2l0.6,0.6c0.5,0.5,1.3,1.3,2.3,2.3c7.2,7,16,12,25.7,14.6
		c7,1.9,14.4,2.4,21.6,1.5c7.2-0.9,14.2-3.1,20.6-6.6c5.3-2.8,9.9-6.7,13.4-11.5c2.3-3.3,4.2-6.9,5.6-10.6c0.5-1.3,0.9-2.4,1.2-3.1
		c0.1-0.3,0.2-0.6,0.3-0.8C451.1,355,451.1,355,451.2,354.9z"/>
	<path class="st6" d="M442.4,352.5c-0.1-0.2-0.2-0.4-0.2-0.6l-0.5-1.7l-1-2.6l-1.4-3.4c-2.2-5-5.6-11.7-9.7-18.9
		c-3.4-6.2-7.2-12.2-11.3-18l-2.2-2.9l-1.8-2.1l-1.3-1.2c-0.2-0.1-0.3-0.3-0.4-0.5c0.2,0.1,0.3,0.2,0.5,0.4l1.3,1.1l1.9,2
		c0.7,0.8,1.5,1.8,2.3,2.9c4.2,5.7,8,11.7,11.5,17.9c3.5,6.2,6.7,12.5,9.6,19c0.5,1.2,1,2.4,1.4,3.4l0.9,2.6
		c0.2,0.7,0.3,1.2,0.5,1.7C442.4,352,442.4,352.3,442.4,352.5z"/>
	<path class="st6" d="M370.2,375.1c-5.1-2.7-10.9-1.1-15.8,0.5c-3.3,1.1-6.6,2.8-10,1.9c-2.4-0.7-4.2-2.6-6-4.3
		c-7.5-6.8-17.4-10.4-27.5-9.9c-2.9,0.1-5.6,1.4-7.6,3.4c-5,5.5-1.2,12.5,3.3,17.1c8,8.1,18.6,13.2,30,14.5c9.4,1,22.2-0.3,31.7-4.4
		c5.9-2.5,8.9-9.4,5.8-15C373.3,377.3,371.9,376,370.2,375.1z"/>
	<g class="st7">
		<path d="M370.2,379.5c-5.1-2.7-10.9-1.1-15.8,0.5c-3.3,1.1-6.6,2.8-10,1.9c-2.4-0.7-4.2-2.6-6-4.3c-7.5-6.9-17.4-10.4-27.6-9.9
			c-2.9,0.1-5.6,1.3-7.6,3.4c-1,1.1-1.7,2.4-2.1,3.8c1,3.4,2.8,6.5,5.4,8.9c8,8.1,18.6,13.2,30,14.5c9.4,1,22.2-0.3,31.7-4.4
			c3.4-1.5,5.9-4.4,6.8-8c-0.2-0.9-0.5-1.8-1-2.6C373.2,381.7,371.9,380.4,370.2,379.5z"/>
	</g>
	<path class="st10" d="M375.1,386c-0.2-1.1-0.7-2.1-1.2-3c-0.7-1.1-1.7-2-2.7-2.7c-1.4-1-3-1.6-4.7-1.8c-3.8-0.5-8.2,1.1-13.1,2.5
		c-2.4,0.6-5.1,1.6-8,1.2c-1.4-0.2-2.8-0.7-4.1-1.4c-1.2-0.8-2.4-1.7-3.5-2.6c-4-3.8-8.8-6.6-14-8.3c-2.3-0.8-4.6-1.3-7-1.6
		c-2.1-0.3-4.1-0.3-6.2,0c-1.7,0.3-3.3,0.8-4.8,1.7c-1.1,0.7-2.1,1.5-2.9,2.5c-0.6,0.8-1.3,1.7-1.8,2.6c0.4-1.1,1-2,1.7-2.9
		c0.8-1,1.8-1.9,2.9-2.6c1.5-0.9,3.2-1.5,4.9-1.8c2.1-0.3,4.2-0.3,6.3,0c2.4,0.3,4.8,0.8,7.1,1.6c2.5,0.8,5,1.9,7.3,3.2
		c1.2,0.7,2.4,1.5,3.6,2.3c1.1,0.9,2.2,1.9,3.3,2.8c1.1,1,2.2,1.8,3.4,2.6c1.2,0.7,2.5,1.2,3.8,1.3c2.7,0.4,5.2-0.6,7.7-1.2
		c4.9-1.3,9.4-2.9,13.3-2.4c3.1,0.4,5.9,2.2,7.6,4.8c0.4,0.7,0.8,1.5,1,2.3C375.1,385.4,375.1,385.7,375.1,386z"/>
	<path class="st10" d="M375.1,386c-0.2-1.1-0.7-2.1-1.2-3c-0.7-1.1-1.7-2-2.7-2.7c-1.4-1-3-1.6-4.7-1.8c-3.8-0.5-8.2,1.1-13.1,2.5
		c-2.4,0.6-5.1,1.6-8,1.2c-1.4-0.2-2.8-0.7-4.1-1.4c-1.2-0.8-2.4-1.7-3.5-2.6c-4-3.8-8.8-6.6-14-8.3c-2.3-0.8-4.6-1.3-7-1.6
		c-2.1-0.3-4.1-0.3-6.2,0c-1.7,0.3-3.3,0.8-4.8,1.7c-1.1,0.7-2.1,1.5-2.9,2.5c-0.6,0.8-1.3,1.7-1.8,2.6c0.4-1.1,1-2,1.7-2.9
		c0.8-1,1.8-1.9,2.9-2.6c1.5-0.9,3.2-1.5,4.9-1.8c2.1-0.3,4.2-0.3,6.3,0c2.4,0.3,4.8,0.8,7.1,1.6c2.5,0.8,5,1.9,7.3,3.2
		c1.2,0.7,2.4,1.5,3.6,2.3c1.1,0.9,2.2,1.9,3.3,2.8c1.1,1,2.2,1.8,3.4,2.6c1.2,0.7,2.5,1.2,3.8,1.3c2.7,0.4,5.2-0.6,7.7-1.2
		c4.9-1.3,9.4-2.9,13.3-2.4c3.1,0.4,5.9,2.2,7.6,4.8c0.4,0.7,0.8,1.5,1,2.3C375.1,385.4,375.1,385.7,375.1,386z"/>
	<path class="st10" d="M311.6,384.7c0.8-0.7,1.7-1.3,2.6-1.8c2.2-1.3,4.5-2.5,6.8-3.6c2.3-1.1,4.7-2.1,7.1-2.9c1-0.4,2-0.7,3.1-0.9
		c-0.9,0.5-1.9,1-2.9,1.3c-1.8,0.8-4.3,1.8-7,3.1s-5.1,2.5-6.8,3.4C313.6,383.9,312.6,384.3,311.6,384.7z"/>
	<path class="st10" d="M313.4,389.8c-0.1-0.2,4.4-2.5,10-5.2s10.2-4.8,10.3-4.6s-4.4,2.5-10,5.2S313.5,390,313.4,389.8z"/>
	<path class="st10" d="M334.6,392.1c-0.1,0.2-5.6-3.1-12.2-7.3s-11.9-7.7-11.8-7.9s5.6,3.1,12.2,7.3S334.7,391.9,334.6,392.1z"/>
	<path class="st10" d="M337.6,386.8c-0.9-0.5-1.8-1.1-2.6-1.8c-1.6-1.1-3.8-2.8-6.3-4.5s-4.8-3.2-6.4-4.3c-0.9-0.5-1.8-1.2-2.6-1.9
		c1,0.4,2,0.9,2.9,1.5c1.7,1,4,2.5,6.5,4.2s4.7,3.4,6.2,4.7C336.2,385.2,336.9,386,337.6,386.8z"/>
	<path class="st11" d="M429.9,247.6l-1.6,20l-55.8-3.3l-6.8,18.9c0,0,60.4,17.8,64.6,18.8s19.6,1.8,25.6-12.6
		c4.3-10.3,6.2-36.4,6.2-36.4L429.9,247.6z"/>
	<path class="st8" d="M429.1,204.7c-2.2,16.1-3.5,32.2-3.9,48.4c0,0.6,39,3.5,39,3.5s0.4-42.2-5.9-56c-4.8-10.5-13.6-12.7-13.6-12.7
		l-7,4.7L429.1,204.7z"/>
	<path class="st10" d="M464.2,256.7c-0.3,0-0.5,0-0.8,0l-2.3-0.1l-8.3-0.6l-27.6-2.1H425v-0.2c0-0.4,0.1-0.8,0.1-1.2
		c0.8-8.9,1.5-17,2-22.9c0.3-2.9,0.5-5.3,0.7-6.9c0.1-0.8,0.2-1.4,0.2-1.9c0-0.2,0-0.4,0.1-0.7c0,0.2,0,0.4,0,0.7
		c0,0.5-0.1,1.1-0.1,1.9c-0.1,1.7-0.3,4-0.5,6.9c-0.5,5.9-1.1,14-1.9,22.9c0,0.4-0.1,0.9-0.1,1.2l-0.2-0.2l27.6,2.3l8.3,0.7l2.2,0.2
		C463.7,256.6,464,256.7,464.2,256.7z"/>
	<path class="st10" d="M274.4,218.5c-23-18.9-52.7-20.7-66.2-4.2s-5.8,45.2,17.2,64.1s52.7,20.7,66.2,4.2S297.4,237.3,274.4,218.5z
		 M261.9,258.2c-4.1,5-13.1,4.4-20-1.3s-9.3-14.4-5.2-19.4s13.1-4.4,20,1.3S266,253.2,261.9,258.2z"/>
	<path class="st4" d="M274.4,218.5c-23-18.9-52.7-20.7-66.2-4.2s-5.8,45.2,17.2,64.1s52.7,20.7,66.2,4.2S297.4,237.3,274.4,218.5z
		 M261.9,258.2c-4.1,5-13.1,4.4-20-1.3s-9.3-14.4-5.2-19.4s13.1-4.4,20,1.3S266,253.2,261.9,258.2z"/>
	<path class="st6" d="M261.9,258.2c0.6-1,1.2-2,1.5-3.1c0.3-1.3,0.4-2.7,0.3-4c-0.2-1.8-0.7-3.5-1.5-5.1c-2.1-4.2-5.5-7.6-9.7-9.6
		c-2.4-1.3-5.1-2-7.9-2c-1.4,0-2.9,0.3-4.2,0.8c-1.4,0.5-2.6,1.4-3.5,2.5c-0.9,1.2-1.5,2.5-1.8,4c-0.2,1.4-0.2,2.9,0.1,4.3
		c0.6,2.7,1.8,5.2,3.5,7.3c2.9,3.7,6.9,6.4,11.4,7.7c1.7,0.5,3.5,0.6,5.3,0.5c1.3-0.1,2.7-0.5,3.9-1.1
		C260.2,259.8,261.1,259.1,261.9,258.2c0,0,0,0.1-0.1,0.2l-0.4,0.5c-0.6,0.6-1.3,1.2-2.1,1.6c-1.2,0.6-2.6,1-3.9,1.2
		c-1.8,0.2-3.7,0.1-5.4-0.4c-4.6-1.2-8.7-3.9-11.7-7.7c-1.8-2.2-3-4.8-3.6-7.5c-0.3-1.5-0.3-3-0.1-4.5c0.5-3.1,2.7-5.8,5.6-6.9
		c1.4-0.5,2.9-0.8,4.4-0.8c2.8,0,5.6,0.7,8.1,2c4.3,2.2,7.7,5.6,9.8,9.9c0.8,1.6,1.3,3.4,1.5,5.2c0.1,1.4,0,2.8-0.4,4.1
		c-0.3,0.8-0.6,1.6-1.1,2.3l-0.4,0.5C262,258.1,262,258.2,261.9,258.2z"/>
	<path class="st6" d="M274.4,218.5c0,0,0.2,0.1,0.6,0.5l1.7,1.4c2.1,1.9,4.2,3.9,6.1,6c3,3.3,5.7,7,8,10.9
		c3.1,5.1,5.3,10.7,6.7,16.6c0.7,3.4,1.1,6.9,1,10.4c-0.1,3.8-0.9,7.5-2.3,11c-1.5,3.8-3.8,7.2-6.7,10c-1.5,1.5-3.2,2.8-5,3.9
		c-1.9,1.1-3.9,2-5.9,2.8c-8.4,3-18,2.8-27.2,0.3c-19.2-5.5-35.4-18.7-44.6-36.5c-4.2-8.6-6.3-18-5.1-26.7c0.3-2.2,0.8-4.3,1.6-6.3
		c0.7-2,1.6-3.9,2.7-5.6c2.2-3.4,5.1-6.4,8.5-8.6c3.2-2.1,6.7-3.5,10.4-4.4c3.4-0.8,6.9-1.1,10.4-1.1c6,0.1,11.9,1.2,17.6,3.2
		c4.3,1.5,8.3,3.4,12.2,5.7c2.4,1.5,4.8,3.1,7.1,4.8l1.7,1.4L274.4,218.5c0,0-0.2-0.1-0.6-0.4l-1.8-1.3c-2.3-1.7-4.7-3.3-7.1-4.7
		c-3.9-2.3-8-4.2-12.2-5.6c-5.6-2-11.5-3.1-17.5-3.2c-3.4,0-6.9,0.3-10.2,1.1c-3.6,0.9-7.1,2.4-10.2,4.4c-3.3,2.2-6.2,5.1-8.3,8.5
		c-1.1,1.8-2,3.7-2.8,5.6c-0.7,2-1.2,4.1-1.5,6.2c-1.2,8.6,0.9,18,5.1,26.4c9.1,17.7,25.1,30.7,44.2,36.2c9.1,2.5,18.7,2.6,26.9-0.3
		c2-0.7,4-1.6,5.8-2.7c1.8-1.1,3.5-2.4,5-3.8c2.9-2.8,5.2-6.1,6.7-9.8c1.3-3.5,2.1-7.2,2.2-10.9c0.1-3.5-0.2-6.9-0.9-10.3
		c-1.3-5.8-3.5-11.4-6.5-16.5c-2.3-3.9-4.9-7.5-7.9-10.9c-1.9-2.1-3.9-4.1-6-6L275,219L274.4,218.5z"/>
	<path class="st3" d="M253,264.2h-1c-8.5-0.8-15.6-6.7-18.1-14.8c-2.1-6.1,1.2-12.8,7.3-14.9c1.7-0.6,3.5-0.8,5.3-0.5
		c8.5,0.8,15.6,6.7,18.1,14.8c1.2,3.8,0.4,8-2,11.2C260.2,262.8,256.7,264.4,253,264.2z M245.6,242c-1.3-0.1-2.5,0.4-3.4,1.3
		c-1,1.3-0.8,3.1-0.5,4.1c1.6,4.8,5.8,8.3,10.9,8.9c1,0.1,2.9,0,3.9-1.3l0,0c1-1.3,0.8-3.1,0.5-4.1c-1.6-4.8-5.8-8.3-10.8-8.9H245.6
		z"/>
	<polygon class="st6" points="370.6,293.8 322.7,201.5 225.9,201.5 275.5,291.8 370.6,293.8 	"/>
	<path class="st3" d="M332.2,231.1c-7.8,2.3-14.8,0.7-21.7-3.8s-12-12.5-13.7-20.9l21.8,0.1L332.2,231.1z"/>
	<path class="st10" d="M365.6,292.1c-0.1-0.1-0.2-0.3-0.3-0.4c-0.2-0.3-0.4-0.7-0.7-1.2c-0.6-1.1-1.5-2.7-2.6-4.8
		c-2.3-4.2-5.5-10.1-9.6-17.5l-31.5-58c-0.7-1.2-1.4-2.5-2-3.7l0.2,0.1l-63.2-0.6l-19-0.2l-5.1-0.1h-1.3h-0.5c0.2,0,0.3,0,0.5,0h1.3
		h5.1l19,0.1l63.2,0.4h0.2l0.1,0.1l2,3.7l31.3,57.9l9.4,17.6c1.1,2.1,2,3.7,2.5,4.8l0.6,1.3L365.6,292.1z"/>
	<path class="st10" d="M283,230.5c0,0.1-4.9,0.1-11,0s-10.9-0.4-10.9-0.5s4.9-0.1,11,0S283,230.4,283,230.5z"/>
	<path class="st10" d="M298.6,230.5c-1.9,0.2-3.8,0.3-5.6,0.1c-1.9,0-3.8-0.1-5.6-0.4c1.9-0.2,3.7-0.3,5.6-0.1
		C294.9,230,296.7,230.2,298.6,230.5z"/>
	<path class="st10" d="M285.6,235.5c0,0.1-4.9,0.1-11,0s-10.9-0.4-10.9-0.5s4.9-0.1,11,0S285.6,235.4,285.6,235.5z"/>
	<path class="st10" d="M301.2,235.5c-1.9,0.2-3.8,0.2-5.6,0.1c-1.9,0-3.8-0.1-5.6-0.4c1.9-0.2,3.7-0.3,5.6-0.1
		C297.5,235.1,299.4,235.2,301.2,235.5z"/>
	<path class="st10" d="M288.3,240.5c0,0.1-4.9,0.1-11,0s-10.9-0.4-10.9-0.5s4.9-0.1,11,0S288.3,240.4,288.3,240.5z"/>
	<path class="st10" d="M303.9,240.5c-1.9,0.2-3.7,0.3-5.6,0.1c-1.9,0-3.8-0.1-5.6-0.4c1.9-0.2,3.7-0.3,5.6-0.1
		C300.1,240.1,302,240.2,303.9,240.5z"/>
	<path class="st10" d="M290.9,245.5c0,0.1-4.9,0.1-11,0s-11-0.4-11-0.5s4.9-0.1,11,0S290.9,245.4,290.9,245.5z"/>
	<path class="st10" d="M306.5,245.5c-1.9,0.2-3.7,0.3-5.6,0.1c-1.9,0-3.8-0.1-5.6-0.4c1.9-0.2,3.8-0.3,5.6-0.1
		C302.8,245.1,304.7,245.2,306.5,245.5z"/>
	<path class="st10" d="M293.6,250.5c0,0.1-4.9,0.1-11,0s-10.9-0.4-10.9-0.5s4.9-0.1,11,0S293.6,250.4,293.6,250.5z"/>
	<path class="st10" d="M309.1,250.5c-1.9,0.2-3.7,0.3-5.6,0.1c-1.9,0-3.8-0.1-5.6-0.4c1.9-0.2,3.8-0.2,5.6-0.1
		C305.4,250.1,307.3,250.2,309.1,250.5z"/>
	<path class="st10" d="M296.2,255.5c0,0.1-4.9,0.1-11,0s-11-0.4-10.9-0.5s4.9-0.1,11,0S296.2,255.4,296.2,255.5z"/>
	<path class="st10" d="M311.8,255.5c-1.9,0.2-3.7,0.3-5.6,0.1c-1.9,0-3.8-0.1-5.6-0.4c1.9-0.2,3.8-0.3,5.6-0.1
		C308.1,255.1,309.9,255.2,311.8,255.5z"/>
	<path class="st10" d="M298.9,260.5c0,0.1-4.9,0.1-11,0S277,260.2,277,260s4.9-0.1,11,0S298.9,260.4,298.9,260.5z"/>
	<path class="st10" d="M314.4,260.5c-1.9,0.2-3.7,0.3-5.6,0.1c-1.9,0-3.8-0.1-5.6-0.4c1.9-0.2,3.8-0.3,5.6-0.1
		C310.7,260.1,312.6,260.2,314.4,260.5z"/>
	<path class="st10" d="M301.5,265.6c0,0.1-4.9,0.1-11,0s-10.9-0.4-10.9-0.5s4.9-0.1,11,0S301.5,265.4,301.5,265.6z"/>
	<path class="st10" d="M317.1,265.5c-1.9,0.2-3.7,0.2-5.6,0.1c-1.9,0-3.8-0.1-5.6-0.4c1.9-0.2,3.8-0.3,5.6-0.1
		C313.3,265.1,315.2,265.2,317.1,265.5z"/>
	<path class="st10" d="M304.1,270.6c0,0.1-4.9,0.1-11,0s-10.9-0.4-10.9-0.5s4.9-0.1,11,0S304.1,270.4,304.1,270.6z"/>
	<path class="st10" d="M319.7,270.5c-1.9,0.2-3.7,0.3-5.6,0.1c-1.9,0-3.8-0.1-5.6-0.4c1.9-0.2,3.8-0.3,5.6-0.1
		C316,270.1,317.9,270.2,319.7,270.5z"/>
	<path class="st10" d="M299.3,219.6c0,0.1-10,0.3-22.4,0.3s-22.4-0.1-22.4-0.3s10-0.3,22.4-0.3S299.3,219.5,299.3,219.6z"/>
	<path class="st10" d="M279.3,216.8c0,0.1-6,0.3-13.4,0.3s-13.4-0.1-13.4-0.3s6-0.3,13.4-0.3S279.3,216.6,279.3,216.8z"/>
	<path class="st3" d="M306.6,294c0-8.2-6.3-15.6-14-18.6s-16.4-2.1-24.2,0.5l9.5,16.9L306.6,294z"/>
	<path class="st11" d="M374.6,265.1l-7.7-6c-3.5-4.1-8.5-6.5-13.9-6.6l-4.2-0.6l1.7,4.3c0,0-24.4,0.9-25.1,3.5v0.8v0.5l17.6,1.2
		c0,0-15,0-15.9,0s-4.2-0.2-4.1,1.5c0,1.4,1.8,2.6,4.4,3c1.1,0.2,14,1.3,14,1.3l-14.3-0.1c-1.6,0-1.4,2.6-0.5,2.9
		c0.8,0.2,19.1,5.6,19.1,5.6s-3.1,2.1-5.6,1.9s-6.8-3.4-7.7-1.9s-0.7,2.4-0.2,2.8c2.7,1.5,5.5,2.8,8.4,4c2,0.5,18.1,3.1,18.1,3.1
		l13.4-1.7L374.6,265.1z"/>
	<path class="st12" d="M339.8,256.4c2.4-0.2,4.8-0.3,7.2-0.3c2.4-0.1,4.8,0,7.2,0.2c-2.4,0.2-4.8,0.3-7.2,0.3
		C344.6,256.7,342.2,256.6,339.8,256.4z"/>
	<polygon class="st13" points="427.8,225 421.2,258.7 428.7,263.3 429.3,254 425.5,253.6 	"/>
	<path class="st11" d="M200.2,242.4c-0.9,1.6-0.8,3.7,0.3,5.2c1.1,1.1,2.6,1.9,4.2,2.1c3.4,0.9,7.1,0.9,10.5-0.1
		c1.4-0.3,1-2.4,0.6-3.2c-0.3-0.6-0.9-1.2-1.6-1.4C209.3,244.1,204.9,242.9,200.2,242.4"/>
	<path class="st11" d="M201.1,247.6c-0.9,1.4-0.3,3.8,0.8,5c1.1,1.1,2.6,1.9,4.2,2.1c3.4,0.9,7.1,0.9,10.5-0.1
		c1.4-0.3,0.8-3,0.4-3.8c-0.3-0.5-0.8-0.8-1.4-0.8L201.1,247.6"/>
	<path class="st11" d="M202.6,252.6c-0.9,1.4-0.3,3.8,0.8,5c1.1,1.1,2.6,1.9,4.2,2.1c3.4,0.9,7.1,0.9,10.5-0.1
		c1.3-0.3,0.8-3,0.4-3.8c-0.3-0.5-0.8-0.8-1.4-0.8L202.6,252.6"/>
	<path class="st12" d="M215.8,249.2c-0.6,0.5-1.3,0.8-2.1,0.9c-0.8,0.2-1.6,0.3-2.5,0.4c-1,0.1-2.1,0.1-3.1-0.1c-1-0.1-2-0.4-3-0.6
		c-0.8-0.2-1.6-0.4-2.4-0.7c-0.7-0.2-1.4-0.6-2-1.1c0-0.1,0.8,0.4,2.1,0.8c0.7,0.2,1.5,0.4,2.4,0.6c1,0.3,2,0.5,2.9,0.6
		c1.8,0.2,3.6,0.2,5.4-0.2C215,249.5,215.8,249.1,215.8,249.2z"/>
	<path class="st12" d="M217.2,254.2c-0.5,0.6-1.2,1-1.9,1.3c-1.8,0.7-3.7,0.9-5.6,0.5c-1.8-0.4-3.6-1-5.3-1.8
		c-0.7-0.3-1.4-0.7-2-1.1c0.7,0.2,1.5,0.5,2.2,0.8c1.7,0.7,3.4,1.3,5.2,1.6c1.8,0.3,3.6,0.2,5.4-0.4
		C216.4,254.6,217.1,254.1,217.2,254.2z"/>
	<path class="st6" d="M348.7,127.7c0,8.1,5.9,14.6,13.2,14.6s13.2-6.6,13.2-14.7s-5.9-14.7-13.2-14.7S348.7,119.6,348.7,127.7z"/>
	<path class="st10" d="M430.5,119.6c0.3,14.2-5.4,27.8-15.8,37.4c-2.4-6.8-4.7-13.7-7.1-20.5"/>
	<path class="st10" d="M377.2,78.9c6.1-3.3,13.4-3.8,20.2-2.4s13.1,4.4,19.1,7.9c3.4,2,6.7,4.1,9.1,7.1c4.4,5.5,8.8,14.7,9.2,21.7
		c0.3,5.7-1.9,20-4.3,25.2c-2.2,4.8-12.6,8.4-17.7,9.6l-47-54.7C367.5,87.1,371.6,82,377.2,78.9z"/>
	<path class="st10" d="M369.1,86.2l11.3-2c-6.2,14.7-7.8,48.2-11.4,63.7c-4.1-6-13.8-24.4-13.3-31.7S355.7,85,369.1,86.2z"/>
	<path class="st11" d="M422.5,110.2c-0.1-8-5.6-15-13.4-17l-27-6.9c-11.2-1.2-18.7,12.6-19.4,23.8c-0.8,12.5-1.3,25.7,0.1,35
		c2.9,18.8,17.3,21.2,17.3,21.2l0.3,12.6l0,0c0.8,8,8,13.8,16,13c2.9-0.3,5.7-1.5,7.9-3.3l12.5-10.5l5.8-67.2
		C422.6,110.5,422.5,111.4,422.5,110.2z"/>
	<path class="st10" d="M367.2,126.4c0,1.3,1,2.4,2.3,2.4c1.3,0.1,2.4-0.8,2.5-2.1c0,0,0,0,0,0c0-1.3-1-2.4-2.3-2.4
		C368.4,124.1,367.3,125.1,367.2,126.4C367.2,126.4,367.2,126.4,367.2,126.4z"/>
	<path class="st10" d="M365.5,117.5c0.3,0.3,2.1-1,4.7-1s4.5,1.3,4.8,1c0.1-0.1-0.2-0.7-1-1.3c-1.1-0.8-2.4-1.2-3.8-1.2
		c-1.3,0-2.7,0.4-3.8,1.2C365.6,116.8,365.3,117.4,365.5,117.5z"/>
	<path class="st10" d="M389.6,126.4c0,1.3,1,2.4,2.3,2.4c1.3,0.1,2.4-0.8,2.5-2.1c0,0,0,0,0-0.1c0-1.3-1-2.4-2.3-2.4
		C390.9,124.1,389.8,125.1,389.6,126.4C389.7,126.4,389.7,126.4,389.6,126.4z"/>
	<path class="st10" d="M390.1,117.5c0.3,0.3,2.1-1,4.7-1s4.5,1.3,4.8,1c0.1-0.1-0.2-0.7-1-1.3c-1.1-0.8-2.5-1.2-3.8-1.2
		c-1.3,0-2.7,0.4-3.8,1.2C390.2,116.8,389.9,117.4,390.1,117.5z"/>
	<path class="st10" d="M382,137.8c0-0.1-1.6-0.4-4.2-0.8c-0.7-0.1-1.3-0.2-1.4-0.6c-0.1-0.7,0.1-1.4,0.4-2l2-5
		c2.7-7.2,4.7-13,4.4-13.2s-2.7,5.6-5.5,12.8l-1.9,5.1c-0.4,0.8-0.5,1.7-0.3,2.6c0.2,0.5,0.6,0.9,1.1,1c0.4,0.1,0.7,0.2,1.1,0.2
		C380.3,138,382,138,382,137.8z"/>
	<path class="st12" d="M405,159.7c0,0-6.1,12.9-24.9,11.1v-4.4C388.9,166.5,397.5,164.2,405,159.7z"/>
	<path class="st10" d="M390.9,108.1c0.2,0.7,2.8,0.4,5.9,0.8s5.5,1.2,5.9,0.6c0.2-0.3-0.2-1-1.2-1.7c-2.7-1.7-6-2.1-9-1
		C391.3,107.3,390.8,107.8,390.9,108.1z"/>
	<path class="st10" d="M366.3,109.6c0.5,0.6,2.2,0,4.4,0s4,0.4,4.4-0.2c0.2-0.3-0.1-0.9-0.9-1.4c-1.1-0.7-2.3-1-3.6-1
		c-1.3,0-2.5,0.4-3.5,1.2C366.4,108.7,366.1,109.3,366.3,109.6z"/>
	<path class="st10" d="M367.8,93c1.1-2.8,4.2-4.5,7.3-4.7c3.1,0,6.1,0.9,8.6,2.5c11.2,6.4,16.9,22,28,28.7c2.7,1.7,6.2,0.1,8.6,2.3
		s3.8,5.7,2.5,8.6c1.6-2,2.9-4.1,3.8-6.5c1-2.4,0.8-5-0.3-7.3c-1-1.7-2.6-2.9-3.1-4.8c-0.4-1.6,0.2-3.3,0.2-5
		c-0.2-1.7-0.8-3.3-1.7-4.8c-4.3-7.6-10.3-14.6-17.9-18.9c-5-2.9-10.7-4.4-16.5-4.3c-5.8,0.1-11.4,2.3-15.7,6.2
		C369.1,87.5,366.5,89.9,367.8,93"/>
	<path class="st11" d="M419.9,124.2c0.2-0.5,10-4.1,10.1,6.3c0.1,10.1-10.1,8.1-10.1,7.8S419.9,124.2,419.9,124.2z"/>
	<path class="st12" d="M423,134.5c0,0,0.2,0.1,0.5,0.3c0.4,0.2,0.9,0.2,1.3,0c1.1-0.4,2-2.1,2-3.9c0-0.9-0.2-1.7-0.5-2.5
		c-0.2-0.6-0.6-1.1-1.3-1.4c-0.4-0.1-0.8,0.1-1,0.5c-0.1,0.3-0.1,0.5-0.1,0.5c-0.1,0-0.2-0.2-0.1-0.6c0.1-0.2,0.2-0.5,0.4-0.6
		c0.3-0.2,0.6-0.3,1-0.3c0.8,0.2,1.5,0.8,1.9,1.6c0.4,0.9,0.7,1.8,0.6,2.8c0,2-1.1,3.9-2.5,4.4c-0.5,0.2-1.1,0.1-1.6-0.2
		C423.1,134.8,423,134.6,423,134.5z"/>
	<path class="st6" d="M424,119.1c-0.2-0.1-0.4-0.2-0.6-0.3c-0.4-0.2-1-0.6-1.7-1.1c-2-1.5-3.8-3.1-5.5-5c-2.4-2.8-4.6-5.7-6.7-8.7
		c-2.5-3.7-5.3-7.2-8.3-10.4c-1.6-1.6-3.4-3-5.4-4.2c-1.8-1.1-3.8-2-5.8-2.6c-3.5-1.1-7.1-1.6-10.7-1.3c-2.4,0.2-4.9,0.6-7.2,1.4
		c-0.8,0.2-1.5,0.5-1.9,0.7c-0.2,0.1-0.4,0.2-0.7,0.2c0.2-0.1,0.4-0.2,0.6-0.3c0.6-0.3,1.2-0.6,1.9-0.8c2.3-0.9,4.7-1.4,7.2-1.6
		c3.7-0.3,7.4,0.1,10.9,1.2c2.1,0.7,4,1.6,5.9,2.7c2,1.2,3.8,2.7,5.5,4.3c3.1,3.2,5.9,6.7,8.4,10.5c2,3,4.2,5.9,6.6,8.7
		c1.6,1.8,3.4,3.5,5.3,5c0.7,0.5,1.3,0.9,1.6,1.1C423.6,118.7,423.8,118.9,424,119.1z"/>
	<path class="st10" d="M421.4,121.9c0.2,2.8,0.3,5.7-1,8.1s-4.5,4.1-6.9,2.8c-2-1.1-2.5-3.6-2.9-5.9c-1-6.4-1.4-12.9-2.4-19.4
		L421.4,121.9z"/>
	<path class="st12" d="M388.3,142.8c1.7,2.2,1.3,5.3-0.9,7c-0.5,0.4-1,0.6-1.6,0.8c-0.6,0.2-1.3,0.2-1.9,0c-1-0.6-1.7-1.5-2-2.6
		c-0.4-0.9-0.7-1.7-1-2.6c-0.2-0.3-0.2-0.6-0.1-0.9c0.1-0.3,0.5-0.4,0.9-0.5l6.5-1.6"/>
	<path class="st10" d="M384.1,150.3c1,0.1,2,0,2.9-0.4c1.1-0.4,2-1.1,2.6-2.1c0.3-0.6,0.5-1.3,0.4-2c0-0.7-0.2-1.4-0.5-2.1
		c-0.3-0.6-0.7-1.2-1.2-1.7l-0.2-0.1l-0.2,0.1c-4.3,1.5-7.6,2.3-7.6,2.5s3.5-0.3,7.9-1.8l-0.4-0.1c0.4,0.4,0.8,0.9,1,1.5
		c0.5,1.1,0.6,2.3,0.2,3.4c-0.5,0.9-1.2,1.6-2.1,1.9C385.2,150.1,384.1,150.1,384.1,150.3z"/>
	<path class="st6" d="M370.2,88.2c0,0.1,0.9-0.2,2.5-0.2c2.3,0,4.6,0.4,6.7,1.2c1.5,0.6,2.9,1.3,4.2,2.2c1.5,1,2.9,2.1,4.3,3.3
		c3.2,2.7,6,5.8,8.5,9.1c1.3,1.8,2.4,3.7,3.6,5.4c1.2,1.7,2.5,3.2,4.1,4.6c2.6,2.2,5.5,4.1,8.5,5.7c2.6,1.4,4.8,2.3,6.2,3l1.7,0.7
		c0.2,0.1,0.4,0.2,0.6,0.2c-0.2-0.1-0.4-0.2-0.6-0.3l-1.7-0.8c-1.5-0.7-3.6-1.7-6.1-3.1c-3-1.6-5.8-3.5-8.4-5.8
		c-1.5-1.3-2.8-2.8-3.9-4.5c-1.2-1.7-2.4-3.6-3.6-5.4c-2.5-3.4-5.4-6.5-8.6-9.2c-1.4-1.2-2.9-2.3-4.4-3.3c-1.3-0.9-2.8-1.6-4.3-2.1
		c-2.2-0.8-4.5-1.2-6.8-1.1c-0.6,0-1.3,0.1-1.9,0.3C370.7,88.1,370.4,88.1,370.2,88.2z"/>
	<path class="st10" d="M438.2,126.5c3.5,12.9,0.5,30.2,4,40.5s6,21.9,2.1,32.1c-1.8-4-3.6-8-5.5-12c3.5,7.6,0.2,16.7-7.4,20.2
		c-2.2,1-4.7,1.5-7.1,1.4c-10.3-21.1-13.5-45.6-4.4-67.3l7.3,5.1l6.3-2.7L438.2,126.5z"/>
	<path class="st6" d="M411.4,129c0,8.1,5.9,14.6,13.2,14.6s13.2-6.6,13.2-14.6s-5.9-14.7-13.2-14.7S411.4,120.9,411.4,129z"/>
	<path class="st10" d="M416.8,129c0-0.2,0-0.4,0-0.6c0-0.6,0.1-1.2,0.2-1.8c0.2-1,0.5-1.9,0.9-2.7c0.6-1.2,1.4-2.2,2.3-3.1
		c1.2-1.1,2.6-1.8,4.1-2.2c1.8-0.4,3.6-0.2,5.3,0.5c1.8,0.8,3.4,2.1,4.5,3.8c0.6,0.9,1,1.9,1.3,2.9c0.6,2.1,0.6,4.3,0,6.4
		c-0.3,1-0.7,2-1.3,2.9c-1.1,1.7-2.6,3-4.5,3.8c-1.7,0.7-3.5,0.9-5.3,0.5c-1.5-0.4-2.9-1.1-4.1-2.1c-1-0.9-1.7-1.9-2.3-3.1
		c-0.4-0.9-0.7-1.8-0.9-2.7c-0.1-0.6-0.2-1.2-0.2-1.8C416.7,129.4,416.7,129.2,416.8,129c0.1,0,0,0.9,0.3,2.4c0.2,0.9,0.6,1.8,1,2.7
		c0.6,1.1,1.4,2.2,2.3,3c1.1,1,2.5,1.7,4,2c1.7,0.4,3.5,0.2,5.1-0.5c1.8-0.8,3.3-2.1,4.3-3.7c0.5-0.9,0.9-1.8,1.2-2.8
		c0.6-2,0.6-4.2,0-6.2c-0.3-1-0.7-1.9-1.2-2.8c-1-1.6-2.5-2.9-4.3-3.7c-1.6-0.7-3.4-0.9-5.1-0.5c-1.5,0.3-2.9,1-4,2
		c-1,0.8-1.7,1.9-2.3,3c-0.4,0.8-0.8,1.7-1,2.7C416.8,128.1,416.8,129,416.8,129z"/>
	<path class="st6" d="M427.1,115.2c0,0,2.2-38.5-36.1-39.7c0,0-12.9,0-18.3,6.7c0,0,8.8-5.1,18.8-2.3c8.1,2.3,26.5,10.4,27.6,35.8
		l3.6,1.2L427.1,115.2z"/>
	<g class="st9">
		<path d="M434.6,134c-1,4-4.7,6.9-8.8,6.9c-4.1-0.2-7.8-2.8-9.3-6.6c-1.4-3.6-0.8-7.6,1.6-10.6c-1.5,3.2-1.6,7-0.1,10.2
			c1.5,3.1,4.5,5.3,8,5.6C429.1,139.8,432.9,137.5,434.6,134"/>
	</g>
	<path class="st10" d="M418.4,116.1c0.4-0.4,1-0.7,1.5-0.8c2.6-1.1,5.5-1.3,8.2-0.6c0.6,0.1,1.1,0.3,1.6,0.6
		C425.9,114.2,421.9,114.5,418.4,116.1z"/>
	<path class="st6" d="M370.8,83.8c0,0,0-0.1,0.1-0.2s0.1-0.3,0.2-0.6c0.3-0.8,0.8-1.5,1.3-2.2c0.8-1,1.8-2,2.9-2.7
		c1.5-1,3-1.9,4.7-2.6c0.9-0.4,1.9-0.7,3-1s2.1-0.6,3.3-0.8c2.4-0.5,4.9-0.6,7.4-0.6c5.7,0.2,11.3,1.7,16.3,4.4
		c2.6,1.4,5,3.2,7.1,5.2c3.8,3.6,6.7,8.1,8.6,13c1.9,5,2.7,10.3,2.3,15.6c-0.1,0.8-0.2,1.7-0.3,2.5l-0.1,0.7c0,0.1,0,0.2,0,0.2
		c0-0.1,0-0.2,0-0.2c0-0.2,0-0.4,0.1-0.7c0.1-0.6,0.2-1.4,0.2-2.5c0.5-7.8-1.6-15.5-5.8-22c-1.5-2.3-3.2-4.4-5.2-6.3
		c-2.1-2-4.5-3.7-7.1-5.1c-5-2.7-10.5-4.2-16.2-4.4c-2.5-0.1-4.9,0.1-7.4,0.5c-1.1,0.2-2.2,0.5-3.3,0.7s-2,0.6-2.9,1
		c-1.7,0.6-3.2,1.5-4.7,2.4c-1.1,0.8-2.1,1.7-2.9,2.7c-0.5,0.7-0.9,1.4-1.3,2.1l-0.3,0.6C370.8,83.7,370.8,83.7,370.8,83.8z"/>
	<path class="st10" d="M367.6,86.9c0,0,0-0.1,0.1-0.2l0.3-0.6c0.4-0.7,0.8-1.4,1.3-2c0.7-1,1.6-2,2.5-2.8c1.3-1.1,2.7-2,4.2-2.7
		c1.8-0.9,3.8-1.5,5.8-1.8c2.3-0.3,4.7-0.4,7-0.4c2.6,0.1,5.1,0.5,7.6,1c2.7,0.5,5.4,1.3,7.9,2.5c2.5,1.1,4.9,2.7,6.9,4.6
		c1.9,1.8,3.5,3.8,4.8,6c2.2,3.8,3.8,7.8,4.8,12.1c0.7,2.8,1.2,5.7,1.6,8.6c0.1,1,0.2,1.8,0.3,2.4c0,0.2,0.1,0.4,0.1,0.6
		c0,0.1,0,0.1,0,0.2c0-0.1,0-0.1,0-0.2c0-0.2-0.1-0.4-0.1-0.6c-0.1-0.6-0.2-1.3-0.4-2.4c-0.4-2-0.8-5-1.7-8.6
		c-1-4.2-2.7-8.2-4.9-11.9c-1.3-2.2-2.9-4.2-4.8-5.9c-2-1.8-4.3-3.4-6.8-4.5c-2.5-1.1-5.1-2-7.8-2.5c-2.5-0.5-5-0.9-7.6-1
		c-2.3-0.1-4.6,0-6.9,0.3c-2,0.3-3.9,0.9-5.7,1.8c-1.5,0.7-2.9,1.5-4.2,2.6c-0.9,0.8-1.8,1.7-2.5,2.8c-0.6,0.8-1,1.5-1.3,2
		c-0.1,0.2-0.2,0.4-0.3,0.5L367.6,86.9z"/>
	<path class="st6" d="M312.2,428.1c-37.5,0-75-3.6-111.8-7.2c-10-1-22.4-2.2-31.4-9.3c-7.1-5.6-11-13.7-15.1-23
		c-3.7-8.4-7.5-17.1-14.4-23c-5.3-4.5-9.5-4.7-14.9-5c-1.5-0.1-3.1-0.1-4.8-0.3l0.1-1c1.7,0.2,3.2,0.2,4.8,0.3
		c5.3,0.2,9.9,0.5,15.5,5.2c7.1,6,10.9,14.8,14.6,23.2c4.1,9.2,8,17.3,14.9,22.7c8.8,6.9,21,8.1,30.9,9
		c63.4,6.1,128.9,12.5,192.7,0.1c1.5-0.3,2.4-0.8,2.7-1.5c0.6-1.4-0.8-3.8-2.2-6.3c-2.4-4.2-5.4-9.3-2-13.8c3.1-4,12-4.3,20.5-4.6
		c8.3-0.3,16.8-0.6,17.6-4.5c8.6-40.9,3.7-98.5-1-154.2c-2.9-33.8-5.6-65.7-5-91.3h1c-0.6,25.6,2.1,57.5,5,91.2
		c4.7,55.8,9.6,113.5,1,154.5c-1,4.7-9.5,5-18.6,5.3c-8.3,0.3-17,0.6-19.8,4.3c-3,3.9-0.3,8.5,2,12.6c1.7,2.9,3.1,5.4,2.3,7.2
		c-0.5,1-1.6,1.7-3.5,2.1C366.6,426.2,339.4,428.1,312.2,428.1z"/>
</g>
</svg>
